<svg class="hills" viewbox="0 0 1440 320" xmlns="http://www.w3.org/2000/svg">
                <path d="M0,320L34.3,314.7C68.6,309,137,299,206,256C274.3,213,343,139,411,96C480,53,549,43,617,69.3C685.7,96,754,160,823,181.3C891.4,203,960,181,1029,181.3C1097.1,181,1166,203,1234,218.7C1302.9,235,1371,245,1406,250.7L1440,256L1440,320L1405.7,320C1371.4,320,1303,320,1234,320C1165.7,320,1097,320,1029,320C960,320,891,320,823,320C754.3,320,686,320,617,320C548.6,320,480,320,411,320C342.9,320,274,320,206,320C137.1,320,69,320,34,320L0,320Z" fill-opacity="1"></path>
            </svg>