<svg width="1405" height="351" viewBox="0 0 1405 351" fill="none" xmlns="http://www.w3.org/2000/svg">
<path d="M506.369 97.4422L501 68.5483V329H506.369H533.214H565.429H597.643H629.857H662.071H694.286H726.5H758.714H790.929H823.143H855.357H887.571H919.786H952H984.214H1016.43H1048.64H1080.86H1113.07H1145.29H1177.5H1209.71H1241.93H1274.14H1306.36H1338.57H1370.79H1403C1392.26 306.889 1381.52 170.287 1370.79 162.555C1360.05 155.366 1349.31 198.774 1338.57 198.774C1327.83 198.774 1317.1 155.366 1306.36 140.851C1295.62 126.879 1284.88 140.444 1274.14 140.851C1263.4 140.444 1252.67 126.879 1241.93 119.146C1231.19 111.957 1220.45 111.957 1209.71 140.851C1198.98 170.287 1188.24 227.261 1177.5 234.993C1166.76 242.183 1156.02 198.774 1145.29 184.259C1134.55 170.287 1123.81 183.852 1113.07 155.366C1102.33 126.879 1091.6 53.6266 1080.86 39.6544C1070.12 25.1397 1059.38 68.5483 1048.64 97.4422C1037.9 126.879 1027.17 140.444 1016.43 104.767C1005.69 68.5483 994.952 -18.2689 984.214 3.43537C973.476 25.1397 962.738 155.366 952 198.774C941.262 242.183 930.524 198.774 919.786 148.176C909.048 97.0352 898.31 40.0614 887.571 17.9501C876.833 -3.34722 866.095 10.218 855.357 17.9501C844.619 25.1397 833.881 25.1397 823.143 54.0335C812.405 83.47 801.667 140.444 790.929 177.07C780.19 213.696 769.452 227.261 758.714 249.372C747.976 270.67 737.238 300.513 726.5 271.077C715.762 242.183 705.024 155.366 694.286 97.4422C683.548 40.0614 672.81 10.218 662.071 10.6249C651.333 10.218 640.595 40.0614 629.857 46.844C619.119 53.6266 608.381 40.0614 597.643 61.3587C586.905 83.47 576.167 140.444 565.429 177.07C554.69 213.696 543.952 227.261 533.214 205.964C522.476 183.852 511.738 126.879 506.369 97.4422Z" fill="url(#paint0_linear)" fill-opacity="0.72"/>
<path d="M725.857 39.3475C693.571 46.1344 661.286 230.534 629 292H725.857H822.714H919.571H1016.43H1113.29H1210.14H1307C1274.71 284.701 1242.43 142.176 1210.14 107.601C1177.86 73.0259 1145.57 60.2204 1113.29 93.8989C1081 128.09 1048.71 210.045 1016.43 189.556C984.143 169.067 951.857 46.1344 919.571 39.3475C887.286 32.0483 855 142.176 822.714 141.791C790.429 142.176 758.143 32.0483 725.857 39.3475Z" fill="url(#paint1_linear)"/>
<path d="M-1 351L33.3073 344.464C67.6146 337.434 118.526 302.099 205.044 272.072C321.069 245.369 342.073 127.781 410.088 74.7509C479.102 21.7209 548.117 9.3884 616.132 41.823C684.846 74.7509 753.161 153.679 822.176 179.948C890.59 206.709 959.205 179.578 1028.22 179.948C1096.33 179.578 1165.25 206.709 1233.26 226.071C1302.18 246.173 1342.44 272.072 1366.79 302.099L1405 351C1370.69 351 1302.28 351 1233.26 351C1164.95 351 1096.23 351 1028.22 351C959.205 351 890.19 351 822.176 351C753.461 351 685.146 351 616.132 351C547.717 351 479.102 351 410.088 351C341.973 351 273.058 351 205.044 351C136.129 351 68.0147 351 33.0073 351H-1Z" fill="url(#paint2_linear)"/>
<line x1="150.71" y1="287.495" x2="150.71" y2="298.495" stroke="black" stroke-width="2"/>
<rect x="146.866" y="275.366" width="20" height="13" transform="rotate(30 146.866 275.366)" fill="#333837" stroke="black" stroke-width="2"/>
<rect x="147.119" y="277.809" width="2.41195" height="2.41195" transform="rotate(30 147.119 277.809)" fill="#03709B"/>
<rect x="145.672" y="280.316" width="2.41195" height="2.41195" transform="rotate(30 145.672 280.316)" fill="#03709B"/>
<rect x="152.132" y="280.703" width="2.41195" height="2.41195" transform="rotate(30 152.132 280.703)" fill="#03709B"/>
<rect x="150.685" y="283.21" width="2.41195" height="2.41195" transform="rotate(30 150.685 283.21)" fill="#03709B"/>
<rect x="149.626" y="279.256" width="2.41195" height="2.41195" transform="rotate(30 149.626 279.256)" fill="#03709B"/>
<rect x="148.178" y="281.763" width="2.41195" height="2.41195" transform="rotate(30 148.178 281.763)" fill="#03709B"/>
<rect x="144.119" y="283.005" width="2.41195" height="2.41195" transform="rotate(30 144.119 283.005)" fill="#03709B"/>
<rect x="149.132" y="285.9" width="2.41195" height="2.41195" transform="rotate(30 149.132 285.9)" fill="#03709B"/>
<rect x="146.626" y="284.452" width="2.41195" height="2.41195" transform="rotate(30 146.626 284.452)" fill="#03709B"/>
<rect x="154.907" y="282.306" width="2.41195" height="2.41195" transform="rotate(30 154.907 282.306)" fill="#03709B"/>
<rect x="153.46" y="284.812" width="2.41195" height="2.41195" transform="rotate(30 153.46 284.812)" fill="#03709B"/>
<rect x="159.92" y="285.2" width="2.41195" height="2.41195" transform="rotate(30 159.92 285.2)" fill="#03709B"/>
<rect x="158.473" y="287.706" width="2.41195" height="2.41195" transform="rotate(30 158.473 287.706)" fill="#03709B"/>
<rect x="157.414" y="283.753" width="2.41195" height="2.41195" transform="rotate(30 157.414 283.753)" fill="#03709B"/>
<rect x="155.967" y="286.259" width="2.41195" height="2.41195" transform="rotate(30 155.967 286.259)" fill="#03709B"/>
<rect x="151.907" y="287.502" width="2.41195" height="2.41195" transform="rotate(30 151.907 287.502)" fill="#03709B"/>
<rect x="156.92" y="290.396" width="2.41195" height="2.41195" transform="rotate(30 156.92 290.396)" fill="#03709B"/>
<rect x="154.414" y="288.949" width="2.41195" height="2.41195" transform="rotate(30 154.414 288.949)" fill="#03709B"/>
<line x1="310.71" y1="252.495" x2="310.71" y2="263.495" stroke="black" stroke-width="2"/>
<rect x="306.866" y="240.366" width="20" height="13" transform="rotate(30 306.866 240.366)" fill="#333837" stroke="black" stroke-width="2"/>
<rect x="307.119" y="242.809" width="2.41195" height="2.41195" transform="rotate(30 307.119 242.809)" fill="#03709B"/>
<rect x="305.672" y="245.316" width="2.41195" height="2.41195" transform="rotate(30 305.672 245.316)" fill="#03709B"/>
<rect x="312.132" y="245.703" width="2.41195" height="2.41195" transform="rotate(30 312.132 245.703)" fill="#03709B"/>
<rect x="310.685" y="248.21" width="2.41195" height="2.41195" transform="rotate(30 310.685 248.21)" fill="#03709B"/>
<rect x="309.626" y="244.256" width="2.41195" height="2.41195" transform="rotate(30 309.626 244.256)" fill="#03709B"/>
<rect x="308.178" y="246.763" width="2.41195" height="2.41195" transform="rotate(30 308.178 246.763)" fill="#03709B"/>
<rect x="304.119" y="248.005" width="2.41195" height="2.41195" transform="rotate(30 304.119 248.005)" fill="#03709B"/>
<rect x="309.132" y="250.9" width="2.41195" height="2.41195" transform="rotate(30 309.132 250.9)" fill="#03709B"/>
<rect x="306.626" y="249.452" width="2.41195" height="2.41195" transform="rotate(30 306.626 249.452)" fill="#03709B"/>
<rect x="314.907" y="247.306" width="2.41195" height="2.41195" transform="rotate(30 314.907 247.306)" fill="#03709B"/>
<rect x="313.46" y="249.812" width="2.41195" height="2.41195" transform="rotate(30 313.46 249.812)" fill="#03709B"/>
<rect x="319.92" y="250.2" width="2.41195" height="2.41195" transform="rotate(30 319.92 250.2)" fill="#03709B"/>
<rect x="318.473" y="252.706" width="2.41195" height="2.41195" transform="rotate(30 318.473 252.706)" fill="#03709B"/>
<rect x="317.414" y="248.753" width="2.41195" height="2.41195" transform="rotate(30 317.414 248.753)" fill="#03709B"/>
<rect x="315.967" y="251.259" width="2.41195" height="2.41195" transform="rotate(30 315.967 251.259)" fill="#03709B"/>
<rect x="311.907" y="252.502" width="2.41195" height="2.41195" transform="rotate(30 311.907 252.502)" fill="#03709B"/>
<rect x="316.92" y="255.396" width="2.41195" height="2.41195" transform="rotate(30 316.92 255.396)" fill="#03709B"/>
<rect x="314.414" y="253.949" width="2.41195" height="2.41195" transform="rotate(30 314.414 253.949)" fill="#03709B"/>
<line x1="278.71" y1="315.495" x2="278.71" y2="326.495" stroke="black" stroke-width="2"/>
<rect x="274.866" y="303.366" width="20" height="13" transform="rotate(30 274.866 303.366)" fill="#333837" stroke="black" stroke-width="2"/>
<rect x="275.119" y="305.809" width="2.41195" height="2.41195" transform="rotate(30 275.119 305.809)" fill="#03709B"/>
<rect x="273.672" y="308.316" width="2.41195" height="2.41195" transform="rotate(30 273.672 308.316)" fill="#03709B"/>
<rect x="280.132" y="308.703" width="2.41195" height="2.41195" transform="rotate(30 280.132 308.703)" fill="#03709B"/>
<rect x="278.685" y="311.21" width="2.41195" height="2.41195" transform="rotate(30 278.685 311.21)" fill="#03709B"/>
<rect x="277.626" y="307.256" width="2.41195" height="2.41195" transform="rotate(30 277.626 307.256)" fill="#03709B"/>
<rect x="276.178" y="309.763" width="2.41195" height="2.41195" transform="rotate(30 276.178 309.763)" fill="#03709B"/>
<rect x="272.119" y="311.005" width="2.41195" height="2.41195" transform="rotate(30 272.119 311.005)" fill="#03709B"/>
<rect x="277.132" y="313.9" width="2.41195" height="2.41195" transform="rotate(30 277.132 313.9)" fill="#03709B"/>
<rect x="274.626" y="312.452" width="2.41195" height="2.41195" transform="rotate(30 274.626 312.452)" fill="#03709B"/>
<rect x="282.907" y="310.306" width="2.41195" height="2.41195" transform="rotate(30 282.907 310.306)" fill="#03709B"/>
<rect x="281.46" y="312.812" width="2.41195" height="2.41195" transform="rotate(30 281.46 312.812)" fill="#03709B"/>
<rect x="287.92" y="313.2" width="2.41195" height="2.41195" transform="rotate(30 287.92 313.2)" fill="#03709B"/>
<rect x="286.473" y="315.706" width="2.41195" height="2.41195" transform="rotate(30 286.473 315.706)" fill="#03709B"/>
<rect x="285.414" y="311.753" width="2.41195" height="2.41195" transform="rotate(30 285.414 311.753)" fill="#03709B"/>
<rect x="283.967" y="314.259" width="2.41195" height="2.41195" transform="rotate(30 283.967 314.259)" fill="#03709B"/>
<rect x="279.907" y="315.502" width="2.41195" height="2.41195" transform="rotate(30 279.907 315.502)" fill="#03709B"/>
<rect x="284.92" y="318.396" width="2.41195" height="2.41195" transform="rotate(30 284.92 318.396)" fill="#03709B"/>
<rect x="282.414" y="316.949" width="2.41195" height="2.41195" transform="rotate(30 282.414 316.949)" fill="#03709B"/>
<line x1="227.71" y1="272.495" x2="227.71" y2="283.495" stroke="black" stroke-width="2"/>
<rect x="223.866" y="260.366" width="20" height="13" transform="rotate(30 223.866 260.366)" fill="#333837" stroke="black" stroke-width="2"/>
<rect x="224.119" y="262.809" width="2.41195" height="2.41195" transform="rotate(30 224.119 262.809)" fill="#03709B"/>
<rect x="222.672" y="265.316" width="2.41195" height="2.41195" transform="rotate(30 222.672 265.316)" fill="#03709B"/>
<rect x="229.132" y="265.703" width="2.41195" height="2.41195" transform="rotate(30 229.132 265.703)" fill="#03709B"/>
<rect x="227.685" y="268.21" width="2.41195" height="2.41195" transform="rotate(30 227.685 268.21)" fill="#03709B"/>
<rect x="226.626" y="264.256" width="2.41195" height="2.41195" transform="rotate(30 226.626 264.256)" fill="#03709B"/>
<rect x="225.178" y="266.763" width="2.41195" height="2.41195" transform="rotate(30 225.178 266.763)" fill="#03709B"/>
<rect x="221.119" y="268.005" width="2.41195" height="2.41195" transform="rotate(30 221.119 268.005)" fill="#03709B"/>
<rect x="226.132" y="270.9" width="2.41195" height="2.41195" transform="rotate(30 226.132 270.9)" fill="#03709B"/>
<rect x="223.626" y="269.452" width="2.41195" height="2.41195" transform="rotate(30 223.626 269.452)" fill="#03709B"/>
<rect x="231.907" y="267.306" width="2.41195" height="2.41195" transform="rotate(30 231.907 267.306)" fill="#03709B"/>
<rect x="230.46" y="269.812" width="2.41195" height="2.41195" transform="rotate(30 230.46 269.812)" fill="#03709B"/>
<rect x="236.92" y="270.2" width="2.41195" height="2.41195" transform="rotate(30 236.92 270.2)" fill="#03709B"/>
<rect x="235.473" y="272.706" width="2.41195" height="2.41195" transform="rotate(30 235.473 272.706)" fill="#03709B"/>
<rect x="234.414" y="268.753" width="2.41195" height="2.41195" transform="rotate(30 234.414 268.753)" fill="#03709B"/>
<rect x="232.967" y="271.259" width="2.41195" height="2.41195" transform="rotate(30 232.967 271.259)" fill="#03709B"/>
<rect x="228.907" y="272.502" width="2.41195" height="2.41195" transform="rotate(30 228.907 272.502)" fill="#03709B"/>
<rect x="233.92" y="275.396" width="2.41195" height="2.41195" transform="rotate(30 233.92 275.396)" fill="#03709B"/>
<rect x="231.414" y="273.949" width="2.41195" height="2.41195" transform="rotate(30 231.414 273.949)" fill="#03709B"/>
<line x1="387.71" y1="237.495" x2="387.71" y2="248.495" stroke="black" stroke-width="2"/>
<rect x="383.866" y="225.366" width="20" height="13" transform="rotate(30 383.866 225.366)" fill="#333837" stroke="black" stroke-width="2"/>
<rect x="384.119" y="227.809" width="2.41195" height="2.41195" transform="rotate(30 384.119 227.809)" fill="#03709B"/>
<rect x="382.672" y="230.316" width="2.41195" height="2.41195" transform="rotate(30 382.672 230.316)" fill="#03709B"/>
<rect x="389.132" y="230.703" width="2.41195" height="2.41195" transform="rotate(30 389.132 230.703)" fill="#03709B"/>
<rect x="387.685" y="233.21" width="2.41195" height="2.41195" transform="rotate(30 387.685 233.21)" fill="#03709B"/>
<rect x="386.626" y="229.256" width="2.41195" height="2.41195" transform="rotate(30 386.626 229.256)" fill="#03709B"/>
<rect x="385.178" y="231.763" width="2.41195" height="2.41195" transform="rotate(30 385.178 231.763)" fill="#03709B"/>
<rect x="381.119" y="233.005" width="2.41195" height="2.41195" transform="rotate(30 381.119 233.005)" fill="#03709B"/>
<rect x="386.132" y="235.9" width="2.41195" height="2.41195" transform="rotate(30 386.132 235.9)" fill="#03709B"/>
<rect x="383.626" y="234.452" width="2.41195" height="2.41195" transform="rotate(30 383.626 234.452)" fill="#03709B"/>
<rect x="391.907" y="232.306" width="2.41195" height="2.41195" transform="rotate(30 391.907 232.306)" fill="#03709B"/>
<rect x="390.46" y="234.812" width="2.41195" height="2.41195" transform="rotate(30 390.46 234.812)" fill="#03709B"/>
<rect x="396.92" y="235.2" width="2.41195" height="2.41195" transform="rotate(30 396.92 235.2)" fill="#03709B"/>
<rect x="395.473" y="237.706" width="2.41195" height="2.41195" transform="rotate(30 395.473 237.706)" fill="#03709B"/>
<rect x="394.414" y="233.753" width="2.41195" height="2.41195" transform="rotate(30 394.414 233.753)" fill="#03709B"/>
<rect x="392.967" y="236.259" width="2.41195" height="2.41195" transform="rotate(30 392.967 236.259)" fill="#03709B"/>
<rect x="388.907" y="237.502" width="2.41195" height="2.41195" transform="rotate(30 388.907 237.502)" fill="#03709B"/>
<rect x="393.92" y="240.396" width="2.41195" height="2.41195" transform="rotate(30 393.92 240.396)" fill="#03709B"/>
<rect x="391.414" y="238.949" width="2.41195" height="2.41195" transform="rotate(30 391.414 238.949)" fill="#03709B"/>
<line x1="355.71" y1="300.495" x2="355.71" y2="311.495" stroke="black" stroke-width="2"/>
<rect x="351.866" y="288.366" width="20" height="13" transform="rotate(30 351.866 288.366)" fill="#333837" stroke="black" stroke-width="2"/>
<rect x="352.119" y="290.809" width="2.41195" height="2.41195" transform="rotate(30 352.119 290.809)" fill="#03709B"/>
<rect x="350.672" y="293.316" width="2.41195" height="2.41195" transform="rotate(30 350.672 293.316)" fill="#03709B"/>
<rect x="357.132" y="293.703" width="2.41195" height="2.41195" transform="rotate(30 357.132 293.703)" fill="#03709B"/>
<rect x="355.685" y="296.21" width="2.41195" height="2.41195" transform="rotate(30 355.685 296.21)" fill="#03709B"/>
<rect x="354.626" y="292.256" width="2.41195" height="2.41195" transform="rotate(30 354.626 292.256)" fill="#03709B"/>
<rect x="353.178" y="294.763" width="2.41195" height="2.41195" transform="rotate(30 353.178 294.763)" fill="#03709B"/>
<rect x="349.119" y="296.005" width="2.41195" height="2.41195" transform="rotate(30 349.119 296.005)" fill="#03709B"/>
<rect x="354.132" y="298.9" width="2.41195" height="2.41195" transform="rotate(30 354.132 298.9)" fill="#03709B"/>
<rect x="351.626" y="297.452" width="2.41195" height="2.41195" transform="rotate(30 351.626 297.452)" fill="#03709B"/>
<rect x="359.907" y="295.306" width="2.41195" height="2.41195" transform="rotate(30 359.907 295.306)" fill="#03709B"/>
<rect x="358.46" y="297.812" width="2.41195" height="2.41195" transform="rotate(30 358.46 297.812)" fill="#03709B"/>
<rect x="364.92" y="298.2" width="2.41195" height="2.41195" transform="rotate(30 364.92 298.2)" fill="#03709B"/>
<rect x="363.473" y="300.706" width="2.41195" height="2.41195" transform="rotate(30 363.473 300.706)" fill="#03709B"/>
<rect x="362.414" y="296.753" width="2.41195" height="2.41195" transform="rotate(30 362.414 296.753)" fill="#03709B"/>
<rect x="360.967" y="299.259" width="2.41195" height="2.41195" transform="rotate(30 360.967 299.259)" fill="#03709B"/>
<rect x="356.907" y="300.502" width="2.41195" height="2.41195" transform="rotate(30 356.907 300.502)" fill="#03709B"/>
<rect x="361.92" y="303.396" width="2.41195" height="2.41195" transform="rotate(30 361.92 303.396)" fill="#03709B"/>
<rect x="359.414" y="301.949" width="2.41195" height="2.41195" transform="rotate(30 359.414 301.949)" fill="#03709B"/>
<line x1="201.71" y1="327.495" x2="201.71" y2="338.495" stroke="black" stroke-width="2"/>
<rect x="197.866" y="315.366" width="20" height="13" transform="rotate(30 197.866 315.366)" fill="#333837" stroke="black" stroke-width="2"/>
<rect x="198.119" y="317.809" width="2.41195" height="2.41195" transform="rotate(30 198.119 317.809)" fill="#03709B"/>
<rect x="196.672" y="320.316" width="2.41195" height="2.41195" transform="rotate(30 196.672 320.316)" fill="#03709B"/>
<rect x="203.132" y="320.703" width="2.41195" height="2.41195" transform="rotate(30 203.132 320.703)" fill="#03709B"/>
<rect x="201.685" y="323.21" width="2.41195" height="2.41195" transform="rotate(30 201.685 323.21)" fill="#03709B"/>
<rect x="200.626" y="319.256" width="2.41195" height="2.41195" transform="rotate(30 200.626 319.256)" fill="#03709B"/>
<rect x="199.178" y="321.763" width="2.41195" height="2.41195" transform="rotate(30 199.178 321.763)" fill="#03709B"/>
<rect x="195.119" y="323.005" width="2.41195" height="2.41195" transform="rotate(30 195.119 323.005)" fill="#03709B"/>
<rect x="200.132" y="325.9" width="2.41195" height="2.41195" transform="rotate(30 200.132 325.9)" fill="#03709B"/>
<rect x="197.626" y="324.452" width="2.41195" height="2.41195" transform="rotate(30 197.626 324.452)" fill="#03709B"/>
<rect x="205.907" y="322.306" width="2.41195" height="2.41195" transform="rotate(30 205.907 322.306)" fill="#03709B"/>
<rect x="204.46" y="324.812" width="2.41195" height="2.41195" transform="rotate(30 204.46 324.812)" fill="#03709B"/>
<rect x="210.92" y="325.2" width="2.41195" height="2.41195" transform="rotate(30 210.92 325.2)" fill="#03709B"/>
<rect x="209.473" y="327.706" width="2.41195" height="2.41195" transform="rotate(30 209.473 327.706)" fill="#03709B"/>
<rect x="208.414" y="323.753" width="2.41195" height="2.41195" transform="rotate(30 208.414 323.753)" fill="#03709B"/>
<rect x="206.967" y="326.259" width="2.41195" height="2.41195" transform="rotate(30 206.967 326.259)" fill="#03709B"/>
<rect x="202.907" y="327.502" width="2.41195" height="2.41195" transform="rotate(30 202.907 327.502)" fill="#03709B"/>
<rect x="207.92" y="330.396" width="2.41195" height="2.41195" transform="rotate(30 207.92 330.396)" fill="#03709B"/>
<rect x="205.414" y="328.949" width="2.41195" height="2.41195" transform="rotate(30 205.414 328.949)" fill="#03709B"/>
<line x1="128.71" y1="304.495" x2="128.71" y2="315.495" stroke="black" stroke-width="2"/>
<rect x="124.866" y="292.366" width="20" height="13" transform="rotate(30 124.866 292.366)" fill="#333837" stroke="black" stroke-width="2"/>
<rect x="125.119" y="294.809" width="2.41195" height="2.41195" transform="rotate(30 125.119 294.809)" fill="#03709B"/>
<rect x="123.672" y="297.316" width="2.41195" height="2.41195" transform="rotate(30 123.672 297.316)" fill="#03709B"/>
<rect x="130.132" y="297.703" width="2.41195" height="2.41195" transform="rotate(30 130.132 297.703)" fill="#03709B"/>
<rect x="128.685" y="300.21" width="2.41195" height="2.41195" transform="rotate(30 128.685 300.21)" fill="#03709B"/>
<rect x="127.626" y="296.256" width="2.41195" height="2.41195" transform="rotate(30 127.626 296.256)" fill="#03709B"/>
<rect x="126.178" y="298.763" width="2.41195" height="2.41195" transform="rotate(30 126.178 298.763)" fill="#03709B"/>
<rect x="122.119" y="300.005" width="2.41195" height="2.41195" transform="rotate(30 122.119 300.005)" fill="#03709B"/>
<rect x="127.132" y="302.9" width="2.41195" height="2.41195" transform="rotate(30 127.132 302.9)" fill="#03709B"/>
<rect x="124.626" y="301.452" width="2.41195" height="2.41195" transform="rotate(30 124.626 301.452)" fill="#03709B"/>
<rect x="132.907" y="299.306" width="2.41195" height="2.41195" transform="rotate(30 132.907 299.306)" fill="#03709B"/>
<rect x="131.46" y="301.812" width="2.41195" height="2.41195" transform="rotate(30 131.46 301.812)" fill="#03709B"/>
<rect x="137.92" y="302.2" width="2.41195" height="2.41195" transform="rotate(30 137.92 302.2)" fill="#03709B"/>
<rect x="136.473" y="304.706" width="2.41195" height="2.41195" transform="rotate(30 136.473 304.706)" fill="#03709B"/>
<rect x="135.414" y="300.753" width="2.41195" height="2.41195" transform="rotate(30 135.414 300.753)" fill="#03709B"/>
<rect x="133.967" y="303.259" width="2.41195" height="2.41195" transform="rotate(30 133.967 303.259)" fill="#03709B"/>
<rect x="129.907" y="304.502" width="2.41195" height="2.41195" transform="rotate(30 129.907 304.502)" fill="#03709B"/>
<rect x="134.92" y="307.396" width="2.41195" height="2.41195" transform="rotate(30 134.92 307.396)" fill="#03709B"/>
<rect x="132.414" y="305.949" width="2.41195" height="2.41195" transform="rotate(30 132.414 305.949)" fill="#03709B"/>
<line x1="288.71" y1="269.495" x2="288.71" y2="280.495" stroke="black" stroke-width="2"/>
<rect x="284.866" y="257.366" width="20" height="13" transform="rotate(30 284.866 257.366)" fill="#333837" stroke="black" stroke-width="2"/>
<rect x="285.119" y="259.809" width="2.41195" height="2.41195" transform="rotate(30 285.119 259.809)" fill="#03709B"/>
<rect x="283.672" y="262.316" width="2.41195" height="2.41195" transform="rotate(30 283.672 262.316)" fill="#03709B"/>
<rect x="290.132" y="262.703" width="2.41195" height="2.41195" transform="rotate(30 290.132 262.703)" fill="#03709B"/>
<rect x="288.685" y="265.21" width="2.41195" height="2.41195" transform="rotate(30 288.685 265.21)" fill="#03709B"/>
<rect x="287.626" y="261.256" width="2.41195" height="2.41195" transform="rotate(30 287.626 261.256)" fill="#03709B"/>
<rect x="286.178" y="263.763" width="2.41195" height="2.41195" transform="rotate(30 286.178 263.763)" fill="#03709B"/>
<rect x="282.119" y="265.005" width="2.41195" height="2.41195" transform="rotate(30 282.119 265.005)" fill="#03709B"/>
<rect x="287.132" y="267.9" width="2.41195" height="2.41195" transform="rotate(30 287.132 267.9)" fill="#03709B"/>
<rect x="284.626" y="266.452" width="2.41195" height="2.41195" transform="rotate(30 284.626 266.452)" fill="#03709B"/>
<rect x="292.907" y="264.306" width="2.41195" height="2.41195" transform="rotate(30 292.907 264.306)" fill="#03709B"/>
<rect x="291.46" y="266.812" width="2.41195" height="2.41195" transform="rotate(30 291.46 266.812)" fill="#03709B"/>
<rect x="297.92" y="267.2" width="2.41195" height="2.41195" transform="rotate(30 297.92 267.2)" fill="#03709B"/>
<rect x="296.473" y="269.706" width="2.41195" height="2.41195" transform="rotate(30 296.473 269.706)" fill="#03709B"/>
<rect x="295.414" y="265.753" width="2.41195" height="2.41195" transform="rotate(30 295.414 265.753)" fill="#03709B"/>
<rect x="293.967" y="268.259" width="2.41195" height="2.41195" transform="rotate(30 293.967 268.259)" fill="#03709B"/>
<rect x="289.907" y="269.502" width="2.41195" height="2.41195" transform="rotate(30 289.907 269.502)" fill="#03709B"/>
<rect x="294.92" y="272.396" width="2.41195" height="2.41195" transform="rotate(30 294.92 272.396)" fill="#03709B"/>
<rect x="292.414" y="270.949" width="2.41195" height="2.41195" transform="rotate(30 292.414 270.949)" fill="#03709B"/>
<line x1="205.71" y1="289.495" x2="205.71" y2="300.495" stroke="black" stroke-width="2"/>
<rect x="201.866" y="277.366" width="20" height="13" transform="rotate(30 201.866 277.366)" fill="#333837" stroke="black" stroke-width="2"/>
<rect x="202.119" y="279.809" width="2.41195" height="2.41195" transform="rotate(30 202.119 279.809)" fill="#03709B"/>
<rect x="200.672" y="282.316" width="2.41195" height="2.41195" transform="rotate(30 200.672 282.316)" fill="#03709B"/>
<rect x="207.132" y="282.703" width="2.41195" height="2.41195" transform="rotate(30 207.132 282.703)" fill="#03709B"/>
<rect x="205.685" y="285.21" width="2.41195" height="2.41195" transform="rotate(30 205.685 285.21)" fill="#03709B"/>
<rect x="204.626" y="281.256" width="2.41195" height="2.41195" transform="rotate(30 204.626 281.256)" fill="#03709B"/>
<rect x="203.178" y="283.763" width="2.41195" height="2.41195" transform="rotate(30 203.178 283.763)" fill="#03709B"/>
<rect x="199.119" y="285.005" width="2.41195" height="2.41195" transform="rotate(30 199.119 285.005)" fill="#03709B"/>
<rect x="204.132" y="287.9" width="2.41195" height="2.41195" transform="rotate(30 204.132 287.9)" fill="#03709B"/>
<rect x="201.626" y="286.452" width="2.41195" height="2.41195" transform="rotate(30 201.626 286.452)" fill="#03709B"/>
<rect x="209.907" y="284.306" width="2.41195" height="2.41195" transform="rotate(30 209.907 284.306)" fill="#03709B"/>
<rect x="208.46" y="286.812" width="2.41195" height="2.41195" transform="rotate(30 208.46 286.812)" fill="#03709B"/>
<rect x="214.92" y="287.2" width="2.41195" height="2.41195" transform="rotate(30 214.92 287.2)" fill="#03709B"/>
<rect x="213.473" y="289.706" width="2.41195" height="2.41195" transform="rotate(30 213.473 289.706)" fill="#03709B"/>
<rect x="212.414" y="285.753" width="2.41195" height="2.41195" transform="rotate(30 212.414 285.753)" fill="#03709B"/>
<rect x="210.967" y="288.259" width="2.41195" height="2.41195" transform="rotate(30 210.967 288.259)" fill="#03709B"/>
<rect x="206.907" y="289.502" width="2.41195" height="2.41195" transform="rotate(30 206.907 289.502)" fill="#03709B"/>
<rect x="211.92" y="292.396" width="2.41195" height="2.41195" transform="rotate(30 211.92 292.396)" fill="#03709B"/>
<rect x="209.414" y="290.949" width="2.41195" height="2.41195" transform="rotate(30 209.414 290.949)" fill="#03709B"/>
<line x1="365.71" y1="254.495" x2="365.71" y2="265.495" stroke="black" stroke-width="2"/>
<rect x="361.866" y="242.366" width="20" height="13" transform="rotate(30 361.866 242.366)" fill="#333837" stroke="black" stroke-width="2"/>
<rect x="362.119" y="244.809" width="2.41195" height="2.41195" transform="rotate(30 362.119 244.809)" fill="#03709B"/>
<rect x="360.672" y="247.316" width="2.41195" height="2.41195" transform="rotate(30 360.672 247.316)" fill="#03709B"/>
<rect x="367.132" y="247.703" width="2.41195" height="2.41195" transform="rotate(30 367.132 247.703)" fill="#03709B"/>
<rect x="365.685" y="250.21" width="2.41195" height="2.41195" transform="rotate(30 365.685 250.21)" fill="#03709B"/>
<rect x="364.626" y="246.256" width="2.41195" height="2.41195" transform="rotate(30 364.626 246.256)" fill="#03709B"/>
<rect x="363.178" y="248.763" width="2.41195" height="2.41195" transform="rotate(30 363.178 248.763)" fill="#03709B"/>
<rect x="359.119" y="250.005" width="2.41195" height="2.41195" transform="rotate(30 359.119 250.005)" fill="#03709B"/>
<rect x="364.132" y="252.9" width="2.41195" height="2.41195" transform="rotate(30 364.132 252.9)" fill="#03709B"/>
<rect x="361.626" y="251.452" width="2.41195" height="2.41195" transform="rotate(30 361.626 251.452)" fill="#03709B"/>
<rect x="369.907" y="249.306" width="2.41195" height="2.41195" transform="rotate(30 369.907 249.306)" fill="#03709B"/>
<rect x="368.46" y="251.812" width="2.41195" height="2.41195" transform="rotate(30 368.46 251.812)" fill="#03709B"/>
<rect x="374.92" y="252.2" width="2.41195" height="2.41195" transform="rotate(30 374.92 252.2)" fill="#03709B"/>
<rect x="373.473" y="254.706" width="2.41195" height="2.41195" transform="rotate(30 373.473 254.706)" fill="#03709B"/>
<rect x="372.414" y="250.753" width="2.41195" height="2.41195" transform="rotate(30 372.414 250.753)" fill="#03709B"/>
<rect x="370.967" y="253.259" width="2.41195" height="2.41195" transform="rotate(30 370.967 253.259)" fill="#03709B"/>
<rect x="366.907" y="254.502" width="2.41195" height="2.41195" transform="rotate(30 366.907 254.502)" fill="#03709B"/>
<rect x="371.92" y="257.396" width="2.41195" height="2.41195" transform="rotate(30 371.92 257.396)" fill="#03709B"/>
<rect x="369.414" y="255.949" width="2.41195" height="2.41195" transform="rotate(30 369.414 255.949)" fill="#03709B"/>
<line x1="333.71" y1="317.495" x2="333.71" y2="328.495" stroke="black" stroke-width="2"/>
<rect x="329.866" y="305.366" width="20" height="13" transform="rotate(30 329.866 305.366)" fill="#333837" stroke="black" stroke-width="2"/>
<rect x="330.119" y="307.809" width="2.41195" height="2.41195" transform="rotate(30 330.119 307.809)" fill="#03709B"/>
<rect x="328.672" y="310.316" width="2.41195" height="2.41195" transform="rotate(30 328.672 310.316)" fill="#03709B"/>
<rect x="335.132" y="310.703" width="2.41195" height="2.41195" transform="rotate(30 335.132 310.703)" fill="#03709B"/>
<rect x="333.685" y="313.21" width="2.41195" height="2.41195" transform="rotate(30 333.685 313.21)" fill="#03709B"/>
<rect x="332.626" y="309.256" width="2.41195" height="2.41195" transform="rotate(30 332.626 309.256)" fill="#03709B"/>
<rect x="331.178" y="311.763" width="2.41195" height="2.41195" transform="rotate(30 331.178 311.763)" fill="#03709B"/>
<rect x="327.119" y="313.005" width="2.41195" height="2.41195" transform="rotate(30 327.119 313.005)" fill="#03709B"/>
<rect x="332.132" y="315.9" width="2.41195" height="2.41195" transform="rotate(30 332.132 315.9)" fill="#03709B"/>
<rect x="329.626" y="314.452" width="2.41195" height="2.41195" transform="rotate(30 329.626 314.452)" fill="#03709B"/>
<rect x="337.907" y="312.306" width="2.41195" height="2.41195" transform="rotate(30 337.907 312.306)" fill="#03709B"/>
<rect x="336.46" y="314.812" width="2.41195" height="2.41195" transform="rotate(30 336.46 314.812)" fill="#03709B"/>
<rect x="342.92" y="315.2" width="2.41195" height="2.41195" transform="rotate(30 342.92 315.2)" fill="#03709B"/>
<rect x="341.473" y="317.706" width="2.41195" height="2.41195" transform="rotate(30 341.473 317.706)" fill="#03709B"/>
<rect x="340.414" y="313.753" width="2.41195" height="2.41195" transform="rotate(30 340.414 313.753)" fill="#03709B"/>
<rect x="338.967" y="316.259" width="2.41195" height="2.41195" transform="rotate(30 338.967 316.259)" fill="#03709B"/>
<rect x="334.907" y="317.502" width="2.41195" height="2.41195" transform="rotate(30 334.907 317.502)" fill="#03709B"/>
<rect x="339.92" y="320.396" width="2.41195" height="2.41195" transform="rotate(30 339.92 320.396)" fill="#03709B"/>
<rect x="337.414" y="318.949" width="2.41195" height="2.41195" transform="rotate(30 337.414 318.949)" fill="#03709B"/>
<line x1="163.71" y1="315.495" x2="163.71" y2="326.495" stroke="black" stroke-width="2"/>
<rect x="159.866" y="303.366" width="20" height="13" transform="rotate(30 159.866 303.366)" fill="#333837" stroke="black" stroke-width="2"/>
<rect x="160.119" y="305.809" width="2.41195" height="2.41195" transform="rotate(30 160.119 305.809)" fill="#03709B"/>
<rect x="158.672" y="308.316" width="2.41195" height="2.41195" transform="rotate(30 158.672 308.316)" fill="#03709B"/>
<rect x="165.132" y="308.703" width="2.41195" height="2.41195" transform="rotate(30 165.132 308.703)" fill="#03709B"/>
<rect x="163.685" y="311.21" width="2.41195" height="2.41195" transform="rotate(30 163.685 311.21)" fill="#03709B"/>
<rect x="162.626" y="307.256" width="2.41195" height="2.41195" transform="rotate(30 162.626 307.256)" fill="#03709B"/>
<rect x="161.178" y="309.763" width="2.41195" height="2.41195" transform="rotate(30 161.178 309.763)" fill="#03709B"/>
<rect x="157.119" y="311.005" width="2.41195" height="2.41195" transform="rotate(30 157.119 311.005)" fill="#03709B"/>
<rect x="162.132" y="313.9" width="2.41195" height="2.41195" transform="rotate(30 162.132 313.9)" fill="#03709B"/>
<rect x="159.626" y="312.452" width="2.41195" height="2.41195" transform="rotate(30 159.626 312.452)" fill="#03709B"/>
<rect x="167.907" y="310.306" width="2.41195" height="2.41195" transform="rotate(30 167.907 310.306)" fill="#03709B"/>
<rect x="166.46" y="312.812" width="2.41195" height="2.41195" transform="rotate(30 166.46 312.812)" fill="#03709B"/>
<rect x="172.92" y="313.2" width="2.41195" height="2.41195" transform="rotate(30 172.92 313.2)" fill="#03709B"/>
<rect x="171.473" y="315.706" width="2.41195" height="2.41195" transform="rotate(30 171.473 315.706)" fill="#03709B"/>
<rect x="170.414" y="311.753" width="2.41195" height="2.41195" transform="rotate(30 170.414 311.753)" fill="#03709B"/>
<rect x="168.967" y="314.259" width="2.41195" height="2.41195" transform="rotate(30 168.967 314.259)" fill="#03709B"/>
<rect x="164.907" y="315.502" width="2.41195" height="2.41195" transform="rotate(30 164.907 315.502)" fill="#03709B"/>
<rect x="169.92" y="318.396" width="2.41195" height="2.41195" transform="rotate(30 169.92 318.396)" fill="#03709B"/>
<rect x="167.414" y="316.949" width="2.41195" height="2.41195" transform="rotate(30 167.414 316.949)" fill="#03709B"/>
<line x1="323.71" y1="280.495" x2="323.71" y2="291.495" stroke="black" stroke-width="2"/>
<rect x="319.866" y="268.366" width="20" height="13" transform="rotate(30 319.866 268.366)" fill="#333837" stroke="black" stroke-width="2"/>
<rect x="320.119" y="270.809" width="2.41195" height="2.41195" transform="rotate(30 320.119 270.809)" fill="#03709B"/>
<rect x="318.672" y="273.316" width="2.41195" height="2.41195" transform="rotate(30 318.672 273.316)" fill="#03709B"/>
<rect x="325.132" y="273.703" width="2.41195" height="2.41195" transform="rotate(30 325.132 273.703)" fill="#03709B"/>
<rect x="323.685" y="276.21" width="2.41195" height="2.41195" transform="rotate(30 323.685 276.21)" fill="#03709B"/>
<rect x="322.626" y="272.256" width="2.41195" height="2.41195" transform="rotate(30 322.626 272.256)" fill="#03709B"/>
<rect x="321.178" y="274.763" width="2.41195" height="2.41195" transform="rotate(30 321.178 274.763)" fill="#03709B"/>
<rect x="317.119" y="276.005" width="2.41195" height="2.41195" transform="rotate(30 317.119 276.005)" fill="#03709B"/>
<rect x="322.132" y="278.9" width="2.41195" height="2.41195" transform="rotate(30 322.132 278.9)" fill="#03709B"/>
<rect x="319.626" y="277.452" width="2.41195" height="2.41195" transform="rotate(30 319.626 277.452)" fill="#03709B"/>
<rect x="327.907" y="275.306" width="2.41195" height="2.41195" transform="rotate(30 327.907 275.306)" fill="#03709B"/>
<rect x="326.46" y="277.812" width="2.41195" height="2.41195" transform="rotate(30 326.46 277.812)" fill="#03709B"/>
<rect x="332.92" y="278.2" width="2.41195" height="2.41195" transform="rotate(30 332.92 278.2)" fill="#03709B"/>
<rect x="331.473" y="280.706" width="2.41195" height="2.41195" transform="rotate(30 331.473 280.706)" fill="#03709B"/>
<rect x="330.414" y="276.753" width="2.41195" height="2.41195" transform="rotate(30 330.414 276.753)" fill="#03709B"/>
<rect x="328.967" y="279.259" width="2.41195" height="2.41195" transform="rotate(30 328.967 279.259)" fill="#03709B"/>
<rect x="324.907" y="280.502" width="2.41195" height="2.41195" transform="rotate(30 324.907 280.502)" fill="#03709B"/>
<rect x="329.92" y="283.396" width="2.41195" height="2.41195" transform="rotate(30 329.92 283.396)" fill="#03709B"/>
<rect x="327.414" y="281.949" width="2.41195" height="2.41195" transform="rotate(30 327.414 281.949)" fill="#03709B"/>
<line x1="240.71" y1="300.495" x2="240.71" y2="311.495" stroke="black" stroke-width="2"/>
<rect x="236.866" y="288.366" width="20" height="13" transform="rotate(30 236.866 288.366)" fill="#333837" stroke="black" stroke-width="2"/>
<rect x="237.119" y="290.809" width="2.41195" height="2.41195" transform="rotate(30 237.119 290.809)" fill="#03709B"/>
<rect x="235.672" y="293.316" width="2.41195" height="2.41195" transform="rotate(30 235.672 293.316)" fill="#03709B"/>
<rect x="242.132" y="293.703" width="2.41195" height="2.41195" transform="rotate(30 242.132 293.703)" fill="#03709B"/>
<rect x="240.685" y="296.21" width="2.41195" height="2.41195" transform="rotate(30 240.685 296.21)" fill="#03709B"/>
<rect x="239.626" y="292.256" width="2.41195" height="2.41195" transform="rotate(30 239.626 292.256)" fill="#03709B"/>
<rect x="238.178" y="294.763" width="2.41195" height="2.41195" transform="rotate(30 238.178 294.763)" fill="#03709B"/>
<rect x="234.119" y="296.005" width="2.41195" height="2.41195" transform="rotate(30 234.119 296.005)" fill="#03709B"/>
<rect x="239.132" y="298.9" width="2.41195" height="2.41195" transform="rotate(30 239.132 298.9)" fill="#03709B"/>
<rect x="236.626" y="297.452" width="2.41195" height="2.41195" transform="rotate(30 236.626 297.452)" fill="#03709B"/>
<rect x="244.907" y="295.306" width="2.41195" height="2.41195" transform="rotate(30 244.907 295.306)" fill="#03709B"/>
<rect x="243.46" y="297.812" width="2.41195" height="2.41195" transform="rotate(30 243.46 297.812)" fill="#03709B"/>
<rect x="249.92" y="298.2" width="2.41195" height="2.41195" transform="rotate(30 249.92 298.2)" fill="#03709B"/>
<rect x="248.473" y="300.706" width="2.41195" height="2.41195" transform="rotate(30 248.473 300.706)" fill="#03709B"/>
<rect x="247.414" y="296.753" width="2.41195" height="2.41195" transform="rotate(30 247.414 296.753)" fill="#03709B"/>
<rect x="245.967" y="299.259" width="2.41195" height="2.41195" transform="rotate(30 245.967 299.259)" fill="#03709B"/>
<rect x="241.907" y="300.502" width="2.41195" height="2.41195" transform="rotate(30 241.907 300.502)" fill="#03709B"/>
<rect x="246.92" y="303.396" width="2.41195" height="2.41195" transform="rotate(30 246.92 303.396)" fill="#03709B"/>
<rect x="244.414" y="301.949" width="2.41195" height="2.41195" transform="rotate(30 244.414 301.949)" fill="#03709B"/>
<line x1="400.71" y1="265.495" x2="400.71" y2="276.495" stroke="black" stroke-width="2"/>
<rect x="396.866" y="253.366" width="20" height="13" transform="rotate(30 396.866 253.366)" fill="#333837" stroke="black" stroke-width="2"/>
<rect x="397.119" y="255.809" width="2.41195" height="2.41195" transform="rotate(30 397.119 255.809)" fill="#03709B"/>
<rect x="395.672" y="258.316" width="2.41195" height="2.41195" transform="rotate(30 395.672 258.316)" fill="#03709B"/>
<rect x="402.132" y="258.703" width="2.41195" height="2.41195" transform="rotate(30 402.132 258.703)" fill="#03709B"/>
<rect x="400.685" y="261.21" width="2.41195" height="2.41195" transform="rotate(30 400.685 261.21)" fill="#03709B"/>
<rect x="399.626" y="257.256" width="2.41195" height="2.41195" transform="rotate(30 399.626 257.256)" fill="#03709B"/>
<rect x="398.178" y="259.763" width="2.41195" height="2.41195" transform="rotate(30 398.178 259.763)" fill="#03709B"/>
<rect x="394.119" y="261.005" width="2.41195" height="2.41195" transform="rotate(30 394.119 261.005)" fill="#03709B"/>
<rect x="399.132" y="263.9" width="2.41195" height="2.41195" transform="rotate(30 399.132 263.9)" fill="#03709B"/>
<rect x="396.626" y="262.452" width="2.41195" height="2.41195" transform="rotate(30 396.626 262.452)" fill="#03709B"/>
<rect x="404.907" y="260.306" width="2.41195" height="2.41195" transform="rotate(30 404.907 260.306)" fill="#03709B"/>
<rect x="403.46" y="262.812" width="2.41195" height="2.41195" transform="rotate(30 403.46 262.812)" fill="#03709B"/>
<rect x="409.92" y="263.2" width="2.41195" height="2.41195" transform="rotate(30 409.92 263.2)" fill="#03709B"/>
<rect x="408.473" y="265.706" width="2.41195" height="2.41195" transform="rotate(30 408.473 265.706)" fill="#03709B"/>
<rect x="407.414" y="261.753" width="2.41195" height="2.41195" transform="rotate(30 407.414 261.753)" fill="#03709B"/>
<rect x="405.967" y="264.259" width="2.41195" height="2.41195" transform="rotate(30 405.967 264.259)" fill="#03709B"/>
<rect x="401.907" y="265.502" width="2.41195" height="2.41195" transform="rotate(30 401.907 265.502)" fill="#03709B"/>
<rect x="406.92" y="268.396" width="2.41195" height="2.41195" transform="rotate(30 406.92 268.396)" fill="#03709B"/>
<rect x="404.414" y="266.949" width="2.41195" height="2.41195" transform="rotate(30 404.414 266.949)" fill="#03709B"/>
<line x1="183.71" y1="302.495" x2="183.71" y2="313.495" stroke="black" stroke-width="2"/>
<rect x="179.866" y="290.366" width="20" height="13" transform="rotate(30 179.866 290.366)" fill="#333837" stroke="black" stroke-width="2"/>
<rect x="180.119" y="292.809" width="2.41195" height="2.41195" transform="rotate(30 180.119 292.809)" fill="#03709B"/>
<rect x="178.672" y="295.316" width="2.41195" height="2.41195" transform="rotate(30 178.672 295.316)" fill="#03709B"/>
<rect x="185.132" y="295.703" width="2.41195" height="2.41195" transform="rotate(30 185.132 295.703)" fill="#03709B"/>
<rect x="183.685" y="298.21" width="2.41195" height="2.41195" transform="rotate(30 183.685 298.21)" fill="#03709B"/>
<rect x="182.626" y="294.256" width="2.41195" height="2.41195" transform="rotate(30 182.626 294.256)" fill="#03709B"/>
<rect x="181.178" y="296.763" width="2.41195" height="2.41195" transform="rotate(30 181.178 296.763)" fill="#03709B"/>
<rect x="177.119" y="298.005" width="2.41195" height="2.41195" transform="rotate(30 177.119 298.005)" fill="#03709B"/>
<rect x="182.132" y="300.9" width="2.41195" height="2.41195" transform="rotate(30 182.132 300.9)" fill="#03709B"/>
<rect x="179.626" y="299.452" width="2.41195" height="2.41195" transform="rotate(30 179.626 299.452)" fill="#03709B"/>
<rect x="187.907" y="297.306" width="2.41195" height="2.41195" transform="rotate(30 187.907 297.306)" fill="#03709B"/>
<rect x="186.46" y="299.812" width="2.41195" height="2.41195" transform="rotate(30 186.46 299.812)" fill="#03709B"/>
<rect x="192.92" y="300.2" width="2.41195" height="2.41195" transform="rotate(30 192.92 300.2)" fill="#03709B"/>
<rect x="191.473" y="302.706" width="2.41195" height="2.41195" transform="rotate(30 191.473 302.706)" fill="#03709B"/>
<rect x="190.414" y="298.753" width="2.41195" height="2.41195" transform="rotate(30 190.414 298.753)" fill="#03709B"/>
<rect x="188.967" y="301.259" width="2.41195" height="2.41195" transform="rotate(30 188.967 301.259)" fill="#03709B"/>
<rect x="184.907" y="302.502" width="2.41195" height="2.41195" transform="rotate(30 184.907 302.502)" fill="#03709B"/>
<rect x="189.92" y="305.396" width="2.41195" height="2.41195" transform="rotate(30 189.92 305.396)" fill="#03709B"/>
<rect x="187.414" y="303.949" width="2.41195" height="2.41195" transform="rotate(30 187.414 303.949)" fill="#03709B"/>
<line x1="343.71" y1="267.495" x2="343.71" y2="278.495" stroke="black" stroke-width="2"/>
<rect x="339.866" y="255.366" width="20" height="13" transform="rotate(30 339.866 255.366)" fill="#333837" stroke="black" stroke-width="2"/>
<rect x="340.119" y="257.809" width="2.41195" height="2.41195" transform="rotate(30 340.119 257.809)" fill="#03709B"/>
<rect x="338.672" y="260.316" width="2.41195" height="2.41195" transform="rotate(30 338.672 260.316)" fill="#03709B"/>
<rect x="345.132" y="260.703" width="2.41195" height="2.41195" transform="rotate(30 345.132 260.703)" fill="#03709B"/>
<rect x="343.685" y="263.21" width="2.41195" height="2.41195" transform="rotate(30 343.685 263.21)" fill="#03709B"/>
<rect x="342.626" y="259.256" width="2.41195" height="2.41195" transform="rotate(30 342.626 259.256)" fill="#03709B"/>
<rect x="341.178" y="261.763" width="2.41195" height="2.41195" transform="rotate(30 341.178 261.763)" fill="#03709B"/>
<rect x="337.119" y="263.005" width="2.41195" height="2.41195" transform="rotate(30 337.119 263.005)" fill="#03709B"/>
<rect x="342.132" y="265.9" width="2.41195" height="2.41195" transform="rotate(30 342.132 265.9)" fill="#03709B"/>
<rect x="339.626" y="264.452" width="2.41195" height="2.41195" transform="rotate(30 339.626 264.452)" fill="#03709B"/>
<rect x="347.907" y="262.306" width="2.41195" height="2.41195" transform="rotate(30 347.907 262.306)" fill="#03709B"/>
<rect x="346.46" y="264.812" width="2.41195" height="2.41195" transform="rotate(30 346.46 264.812)" fill="#03709B"/>
<rect x="352.92" y="265.2" width="2.41195" height="2.41195" transform="rotate(30 352.92 265.2)" fill="#03709B"/>
<rect x="351.473" y="267.706" width="2.41195" height="2.41195" transform="rotate(30 351.473 267.706)" fill="#03709B"/>
<rect x="350.414" y="263.753" width="2.41195" height="2.41195" transform="rotate(30 350.414 263.753)" fill="#03709B"/>
<rect x="348.967" y="266.259" width="2.41195" height="2.41195" transform="rotate(30 348.967 266.259)" fill="#03709B"/>
<rect x="344.907" y="267.502" width="2.41195" height="2.41195" transform="rotate(30 344.907 267.502)" fill="#03709B"/>
<rect x="349.92" y="270.396" width="2.41195" height="2.41195" transform="rotate(30 349.92 270.396)" fill="#03709B"/>
<rect x="347.414" y="268.949" width="2.41195" height="2.41195" transform="rotate(30 347.414 268.949)" fill="#03709B"/>
<line x1="260.71" y1="287.495" x2="260.71" y2="298.495" stroke="black" stroke-width="2"/>
<rect x="256.866" y="275.366" width="20" height="13" transform="rotate(30 256.866 275.366)" fill="#333837" stroke="black" stroke-width="2"/>
<rect x="257.119" y="277.809" width="2.41195" height="2.41195" transform="rotate(30 257.119 277.809)" fill="#03709B"/>
<rect x="255.672" y="280.316" width="2.41195" height="2.41195" transform="rotate(30 255.672 280.316)" fill="#03709B"/>
<rect x="262.132" y="280.703" width="2.41195" height="2.41195" transform="rotate(30 262.132 280.703)" fill="#03709B"/>
<rect x="260.685" y="283.21" width="2.41195" height="2.41195" transform="rotate(30 260.685 283.21)" fill="#03709B"/>
<rect x="259.626" y="279.256" width="2.41195" height="2.41195" transform="rotate(30 259.626 279.256)" fill="#03709B"/>
<rect x="258.178" y="281.763" width="2.41195" height="2.41195" transform="rotate(30 258.178 281.763)" fill="#03709B"/>
<rect x="254.119" y="283.005" width="2.41195" height="2.41195" transform="rotate(30 254.119 283.005)" fill="#03709B"/>
<rect x="259.132" y="285.9" width="2.41195" height="2.41195" transform="rotate(30 259.132 285.9)" fill="#03709B"/>
<rect x="256.626" y="284.452" width="2.41195" height="2.41195" transform="rotate(30 256.626 284.452)" fill="#03709B"/>
<rect x="264.907" y="282.306" width="2.41195" height="2.41195" transform="rotate(30 264.907 282.306)" fill="#03709B"/>
<rect x="263.46" y="284.812" width="2.41195" height="2.41195" transform="rotate(30 263.46 284.812)" fill="#03709B"/>
<rect x="269.92" y="285.2" width="2.41195" height="2.41195" transform="rotate(30 269.92 285.2)" fill="#03709B"/>
<rect x="268.473" y="287.706" width="2.41195" height="2.41195" transform="rotate(30 268.473 287.706)" fill="#03709B"/>
<rect x="267.414" y="283.753" width="2.41195" height="2.41195" transform="rotate(30 267.414 283.753)" fill="#03709B"/>
<rect x="265.967" y="286.259" width="2.41195" height="2.41195" transform="rotate(30 265.967 286.259)" fill="#03709B"/>
<rect x="261.907" y="287.502" width="2.41195" height="2.41195" transform="rotate(30 261.907 287.502)" fill="#03709B"/>
<rect x="266.92" y="290.396" width="2.41195" height="2.41195" transform="rotate(30 266.92 290.396)" fill="#03709B"/>
<rect x="264.414" y="288.949" width="2.41195" height="2.41195" transform="rotate(30 264.414 288.949)" fill="#03709B"/>
<line x1="420.71" y1="252.495" x2="420.71" y2="263.495" stroke="black" stroke-width="2"/>
<rect x="416.866" y="240.366" width="20" height="13" transform="rotate(30 416.866 240.366)" fill="#333837" stroke="black" stroke-width="2"/>
<rect x="417.119" y="242.809" width="2.41195" height="2.41195" transform="rotate(30 417.119 242.809)" fill="#03709B"/>
<rect x="415.672" y="245.316" width="2.41195" height="2.41195" transform="rotate(30 415.672 245.316)" fill="#03709B"/>
<rect x="422.132" y="245.703" width="2.41195" height="2.41195" transform="rotate(30 422.132 245.703)" fill="#03709B"/>
<rect x="420.685" y="248.21" width="2.41195" height="2.41195" transform="rotate(30 420.685 248.21)" fill="#03709B"/>
<rect x="419.626" y="244.256" width="2.41195" height="2.41195" transform="rotate(30 419.626 244.256)" fill="#03709B"/>
<rect x="418.178" y="246.763" width="2.41195" height="2.41195" transform="rotate(30 418.178 246.763)" fill="#03709B"/>
<rect x="414.119" y="248.005" width="2.41195" height="2.41195" transform="rotate(30 414.119 248.005)" fill="#03709B"/>
<rect x="419.132" y="250.9" width="2.41195" height="2.41195" transform="rotate(30 419.132 250.9)" fill="#03709B"/>
<rect x="416.626" y="249.452" width="2.41195" height="2.41195" transform="rotate(30 416.626 249.452)" fill="#03709B"/>
<rect x="424.907" y="247.306" width="2.41195" height="2.41195" transform="rotate(30 424.907 247.306)" fill="#03709B"/>
<rect x="423.46" y="249.812" width="2.41195" height="2.41195" transform="rotate(30 423.46 249.812)" fill="#03709B"/>
<rect x="429.92" y="250.2" width="2.41195" height="2.41195" transform="rotate(30 429.92 250.2)" fill="#03709B"/>
<rect x="428.473" y="252.706" width="2.41195" height="2.41195" transform="rotate(30 428.473 252.706)" fill="#03709B"/>
<rect x="427.414" y="248.753" width="2.41195" height="2.41195" transform="rotate(30 427.414 248.753)" fill="#03709B"/>
<rect x="425.967" y="251.259" width="2.41195" height="2.41195" transform="rotate(30 425.967 251.259)" fill="#03709B"/>
<rect x="421.907" y="252.502" width="2.41195" height="2.41195" transform="rotate(30 421.907 252.502)" fill="#03709B"/>
<rect x="426.92" y="255.396" width="2.41195" height="2.41195" transform="rotate(30 426.92 255.396)" fill="#03709B"/>
<rect x="424.414" y="253.949" width="2.41195" height="2.41195" transform="rotate(30 424.414 253.949)" fill="#03709B"/>
<line x1="388.71" y1="315.495" x2="388.71" y2="326.495" stroke="black" stroke-width="2"/>
<rect x="384.866" y="303.366" width="20" height="13" transform="rotate(30 384.866 303.366)" fill="#333837" stroke="black" stroke-width="2"/>
<rect x="385.119" y="305.809" width="2.41195" height="2.41195" transform="rotate(30 385.119 305.809)" fill="#03709B"/>
<rect x="383.672" y="308.316" width="2.41195" height="2.41195" transform="rotate(30 383.672 308.316)" fill="#03709B"/>
<rect x="390.132" y="308.703" width="2.41195" height="2.41195" transform="rotate(30 390.132 308.703)" fill="#03709B"/>
<rect x="388.685" y="311.21" width="2.41195" height="2.41195" transform="rotate(30 388.685 311.21)" fill="#03709B"/>
<rect x="387.626" y="307.256" width="2.41195" height="2.41195" transform="rotate(30 387.626 307.256)" fill="#03709B"/>
<rect x="386.178" y="309.763" width="2.41195" height="2.41195" transform="rotate(30 386.178 309.763)" fill="#03709B"/>
<rect x="382.119" y="311.005" width="2.41195" height="2.41195" transform="rotate(30 382.119 311.005)" fill="#03709B"/>
<rect x="387.132" y="313.9" width="2.41195" height="2.41195" transform="rotate(30 387.132 313.9)" fill="#03709B"/>
<rect x="384.626" y="312.452" width="2.41195" height="2.41195" transform="rotate(30 384.626 312.452)" fill="#03709B"/>
<rect x="392.907" y="310.306" width="2.41195" height="2.41195" transform="rotate(30 392.907 310.306)" fill="#03709B"/>
<rect x="391.46" y="312.812" width="2.41195" height="2.41195" transform="rotate(30 391.46 312.812)" fill="#03709B"/>
<rect x="397.92" y="313.2" width="2.41195" height="2.41195" transform="rotate(30 397.92 313.2)" fill="#03709B"/>
<rect x="396.473" y="315.706" width="2.41195" height="2.41195" transform="rotate(30 396.473 315.706)" fill="#03709B"/>
<rect x="395.414" y="311.753" width="2.41195" height="2.41195" transform="rotate(30 395.414 311.753)" fill="#03709B"/>
<rect x="393.967" y="314.259" width="2.41195" height="2.41195" transform="rotate(30 393.967 314.259)" fill="#03709B"/>
<rect x="389.907" y="315.502" width="2.41195" height="2.41195" transform="rotate(30 389.907 315.502)" fill="#03709B"/>
<rect x="394.92" y="318.396" width="2.41195" height="2.41195" transform="rotate(30 394.92 318.396)" fill="#03709B"/>
<rect x="392.414" y="316.949" width="2.41195" height="2.41195" transform="rotate(30 392.414 316.949)" fill="#03709B"/>
<line x1="177.71" y1="276.495" x2="177.71" y2="287.495" stroke="black" stroke-width="2"/>
<rect x="173.866" y="264.366" width="20" height="13" transform="rotate(30 173.866 264.366)" fill="#333837" stroke="black" stroke-width="2"/>
<rect x="174.119" y="266.809" width="2.41195" height="2.41195" transform="rotate(30 174.119 266.809)" fill="#03709B"/>
<rect x="172.672" y="269.316" width="2.41195" height="2.41195" transform="rotate(30 172.672 269.316)" fill="#03709B"/>
<rect x="179.132" y="269.703" width="2.41195" height="2.41195" transform="rotate(30 179.132 269.703)" fill="#03709B"/>
<rect x="177.685" y="272.21" width="2.41195" height="2.41195" transform="rotate(30 177.685 272.21)" fill="#03709B"/>
<rect x="176.626" y="268.256" width="2.41195" height="2.41195" transform="rotate(30 176.626 268.256)" fill="#03709B"/>
<rect x="175.178" y="270.763" width="2.41195" height="2.41195" transform="rotate(30 175.178 270.763)" fill="#03709B"/>
<rect x="171.119" y="272.005" width="2.41195" height="2.41195" transform="rotate(30 171.119 272.005)" fill="#03709B"/>
<rect x="176.132" y="274.9" width="2.41195" height="2.41195" transform="rotate(30 176.132 274.9)" fill="#03709B"/>
<rect x="173.626" y="273.452" width="2.41195" height="2.41195" transform="rotate(30 173.626 273.452)" fill="#03709B"/>
<rect x="181.907" y="271.306" width="2.41195" height="2.41195" transform="rotate(30 181.907 271.306)" fill="#03709B"/>
<rect x="180.46" y="273.812" width="2.41195" height="2.41195" transform="rotate(30 180.46 273.812)" fill="#03709B"/>
<rect x="186.92" y="274.2" width="2.41195" height="2.41195" transform="rotate(30 186.92 274.2)" fill="#03709B"/>
<rect x="185.473" y="276.706" width="2.41195" height="2.41195" transform="rotate(30 185.473 276.706)" fill="#03709B"/>
<rect x="184.414" y="272.753" width="2.41195" height="2.41195" transform="rotate(30 184.414 272.753)" fill="#03709B"/>
<rect x="182.967" y="275.259" width="2.41195" height="2.41195" transform="rotate(30 182.967 275.259)" fill="#03709B"/>
<rect x="178.907" y="276.502" width="2.41195" height="2.41195" transform="rotate(30 178.907 276.502)" fill="#03709B"/>
<rect x="183.92" y="279.396" width="2.41195" height="2.41195" transform="rotate(30 183.92 279.396)" fill="#03709B"/>
<rect x="181.414" y="277.949" width="2.41195" height="2.41195" transform="rotate(30 181.414 277.949)" fill="#03709B"/>
<line x1="337.71" y1="241.495" x2="337.71" y2="252.495" stroke="black" stroke-width="2"/>
<rect x="333.866" y="229.366" width="20" height="13" transform="rotate(30 333.866 229.366)" fill="#333837" stroke="black" stroke-width="2"/>
<rect x="334.119" y="231.809" width="2.41195" height="2.41195" transform="rotate(30 334.119 231.809)" fill="#03709B"/>
<rect x="332.672" y="234.316" width="2.41195" height="2.41195" transform="rotate(30 332.672 234.316)" fill="#03709B"/>
<rect x="339.132" y="234.703" width="2.41195" height="2.41195" transform="rotate(30 339.132 234.703)" fill="#03709B"/>
<rect x="337.685" y="237.21" width="2.41195" height="2.41195" transform="rotate(30 337.685 237.21)" fill="#03709B"/>
<rect x="336.626" y="233.256" width="2.41195" height="2.41195" transform="rotate(30 336.626 233.256)" fill="#03709B"/>
<rect x="335.178" y="235.763" width="2.41195" height="2.41195" transform="rotate(30 335.178 235.763)" fill="#03709B"/>
<rect x="331.119" y="237.005" width="2.41195" height="2.41195" transform="rotate(30 331.119 237.005)" fill="#03709B"/>
<rect x="336.132" y="239.9" width="2.41195" height="2.41195" transform="rotate(30 336.132 239.9)" fill="#03709B"/>
<rect x="333.626" y="238.452" width="2.41195" height="2.41195" transform="rotate(30 333.626 238.452)" fill="#03709B"/>
<rect x="341.907" y="236.306" width="2.41195" height="2.41195" transform="rotate(30 341.907 236.306)" fill="#03709B"/>
<rect x="340.46" y="238.812" width="2.41195" height="2.41195" transform="rotate(30 340.46 238.812)" fill="#03709B"/>
<rect x="346.92" y="239.2" width="2.41195" height="2.41195" transform="rotate(30 346.92 239.2)" fill="#03709B"/>
<rect x="345.473" y="241.706" width="2.41195" height="2.41195" transform="rotate(30 345.473 241.706)" fill="#03709B"/>
<rect x="344.414" y="237.753" width="2.41195" height="2.41195" transform="rotate(30 344.414 237.753)" fill="#03709B"/>
<rect x="342.967" y="240.259" width="2.41195" height="2.41195" transform="rotate(30 342.967 240.259)" fill="#03709B"/>
<rect x="338.907" y="241.502" width="2.41195" height="2.41195" transform="rotate(30 338.907 241.502)" fill="#03709B"/>
<rect x="343.92" y="244.396" width="2.41195" height="2.41195" transform="rotate(30 343.92 244.396)" fill="#03709B"/>
<rect x="341.414" y="242.949" width="2.41195" height="2.41195" transform="rotate(30 341.414 242.949)" fill="#03709B"/>
<line x1="305.71" y1="304.495" x2="305.71" y2="315.495" stroke="black" stroke-width="2"/>
<rect x="301.866" y="292.366" width="20" height="13" transform="rotate(30 301.866 292.366)" fill="#333837" stroke="black" stroke-width="2"/>
<rect x="302.119" y="294.809" width="2.41195" height="2.41195" transform="rotate(30 302.119 294.809)" fill="#03709B"/>
<rect x="300.672" y="297.316" width="2.41195" height="2.41195" transform="rotate(30 300.672 297.316)" fill="#03709B"/>
<rect x="307.132" y="297.703" width="2.41195" height="2.41195" transform="rotate(30 307.132 297.703)" fill="#03709B"/>
<rect x="305.685" y="300.21" width="2.41195" height="2.41195" transform="rotate(30 305.685 300.21)" fill="#03709B"/>
<rect x="304.626" y="296.256" width="2.41195" height="2.41195" transform="rotate(30 304.626 296.256)" fill="#03709B"/>
<rect x="303.178" y="298.763" width="2.41195" height="2.41195" transform="rotate(30 303.178 298.763)" fill="#03709B"/>
<rect x="299.119" y="300.005" width="2.41195" height="2.41195" transform="rotate(30 299.119 300.005)" fill="#03709B"/>
<rect x="304.132" y="302.9" width="2.41195" height="2.41195" transform="rotate(30 304.132 302.9)" fill="#03709B"/>
<rect x="301.626" y="301.452" width="2.41195" height="2.41195" transform="rotate(30 301.626 301.452)" fill="#03709B"/>
<rect x="309.907" y="299.306" width="2.41195" height="2.41195" transform="rotate(30 309.907 299.306)" fill="#03709B"/>
<rect x="308.46" y="301.812" width="2.41195" height="2.41195" transform="rotate(30 308.46 301.812)" fill="#03709B"/>
<rect x="314.92" y="302.2" width="2.41195" height="2.41195" transform="rotate(30 314.92 302.2)" fill="#03709B"/>
<rect x="313.473" y="304.706" width="2.41195" height="2.41195" transform="rotate(30 313.473 304.706)" fill="#03709B"/>
<rect x="312.414" y="300.753" width="2.41195" height="2.41195" transform="rotate(30 312.414 300.753)" fill="#03709B"/>
<rect x="310.967" y="303.259" width="2.41195" height="2.41195" transform="rotate(30 310.967 303.259)" fill="#03709B"/>
<rect x="306.907" y="304.502" width="2.41195" height="2.41195" transform="rotate(30 306.907 304.502)" fill="#03709B"/>
<rect x="311.92" y="307.396" width="2.41195" height="2.41195" transform="rotate(30 311.92 307.396)" fill="#03709B"/>
<rect x="309.414" y="305.949" width="2.41195" height="2.41195" transform="rotate(30 309.414 305.949)" fill="#03709B"/>
<line x1="254.71" y1="261.495" x2="254.71" y2="272.495" stroke="black" stroke-width="2"/>
<rect x="250.866" y="249.366" width="20" height="13" transform="rotate(30 250.866 249.366)" fill="#333837" stroke="black" stroke-width="2"/>
<rect x="251.119" y="251.809" width="2.41195" height="2.41195" transform="rotate(30 251.119 251.809)" fill="#03709B"/>
<rect x="249.672" y="254.316" width="2.41195" height="2.41195" transform="rotate(30 249.672 254.316)" fill="#03709B"/>
<rect x="256.132" y="254.703" width="2.41195" height="2.41195" transform="rotate(30 256.132 254.703)" fill="#03709B"/>
<rect x="254.685" y="257.21" width="2.41195" height="2.41195" transform="rotate(30 254.685 257.21)" fill="#03709B"/>
<rect x="253.626" y="253.256" width="2.41195" height="2.41195" transform="rotate(30 253.626 253.256)" fill="#03709B"/>
<rect x="252.178" y="255.763" width="2.41195" height="2.41195" transform="rotate(30 252.178 255.763)" fill="#03709B"/>
<rect x="248.119" y="257.005" width="2.41195" height="2.41195" transform="rotate(30 248.119 257.005)" fill="#03709B"/>
<rect x="253.132" y="259.9" width="2.41195" height="2.41195" transform="rotate(30 253.132 259.9)" fill="#03709B"/>
<rect x="250.626" y="258.452" width="2.41195" height="2.41195" transform="rotate(30 250.626 258.452)" fill="#03709B"/>
<rect x="258.907" y="256.306" width="2.41195" height="2.41195" transform="rotate(30 258.907 256.306)" fill="#03709B"/>
<rect x="257.46" y="258.812" width="2.41195" height="2.41195" transform="rotate(30 257.46 258.812)" fill="#03709B"/>
<rect x="263.92" y="259.2" width="2.41195" height="2.41195" transform="rotate(30 263.92 259.2)" fill="#03709B"/>
<rect x="262.473" y="261.706" width="2.41195" height="2.41195" transform="rotate(30 262.473 261.706)" fill="#03709B"/>
<rect x="261.414" y="257.753" width="2.41195" height="2.41195" transform="rotate(30 261.414 257.753)" fill="#03709B"/>
<rect x="259.967" y="260.259" width="2.41195" height="2.41195" transform="rotate(30 259.967 260.259)" fill="#03709B"/>
<rect x="255.907" y="261.502" width="2.41195" height="2.41195" transform="rotate(30 255.907 261.502)" fill="#03709B"/>
<rect x="260.92" y="264.396" width="2.41195" height="2.41195" transform="rotate(30 260.92 264.396)" fill="#03709B"/>
<rect x="258.414" y="262.949" width="2.41195" height="2.41195" transform="rotate(30 258.414 262.949)" fill="#03709B"/>
<line x1="414.71" y1="226.495" x2="414.71" y2="237.495" stroke="black" stroke-width="2"/>
<rect x="410.866" y="214.366" width="20" height="13" transform="rotate(30 410.866 214.366)" fill="#333837" stroke="black" stroke-width="2"/>
<rect x="411.119" y="216.809" width="2.41195" height="2.41195" transform="rotate(30 411.119 216.809)" fill="#03709B"/>
<rect x="409.672" y="219.316" width="2.41195" height="2.41195" transform="rotate(30 409.672 219.316)" fill="#03709B"/>
<rect x="416.132" y="219.703" width="2.41195" height="2.41195" transform="rotate(30 416.132 219.703)" fill="#03709B"/>
<rect x="414.685" y="222.21" width="2.41195" height="2.41195" transform="rotate(30 414.685 222.21)" fill="#03709B"/>
<rect x="413.626" y="218.256" width="2.41195" height="2.41195" transform="rotate(30 413.626 218.256)" fill="#03709B"/>
<rect x="412.178" y="220.763" width="2.41195" height="2.41195" transform="rotate(30 412.178 220.763)" fill="#03709B"/>
<rect x="408.119" y="222.005" width="2.41195" height="2.41195" transform="rotate(30 408.119 222.005)" fill="#03709B"/>
<rect x="413.132" y="224.9" width="2.41195" height="2.41195" transform="rotate(30 413.132 224.9)" fill="#03709B"/>
<rect x="410.626" y="223.452" width="2.41195" height="2.41195" transform="rotate(30 410.626 223.452)" fill="#03709B"/>
<rect x="418.907" y="221.306" width="2.41195" height="2.41195" transform="rotate(30 418.907 221.306)" fill="#03709B"/>
<rect x="417.46" y="223.812" width="2.41195" height="2.41195" transform="rotate(30 417.46 223.812)" fill="#03709B"/>
<rect x="423.92" y="224.2" width="2.41195" height="2.41195" transform="rotate(30 423.92 224.2)" fill="#03709B"/>
<rect x="422.473" y="226.706" width="2.41195" height="2.41195" transform="rotate(30 422.473 226.706)" fill="#03709B"/>
<rect x="421.414" y="222.753" width="2.41195" height="2.41195" transform="rotate(30 421.414 222.753)" fill="#03709B"/>
<rect x="419.967" y="225.259" width="2.41195" height="2.41195" transform="rotate(30 419.967 225.259)" fill="#03709B"/>
<rect x="415.907" y="226.502" width="2.41195" height="2.41195" transform="rotate(30 415.907 226.502)" fill="#03709B"/>
<rect x="420.92" y="229.396" width="2.41195" height="2.41195" transform="rotate(30 420.92 229.396)" fill="#03709B"/>
<rect x="418.414" y="227.949" width="2.41195" height="2.41195" transform="rotate(30 418.414 227.949)" fill="#03709B"/>
<line x1="382.71" y1="289.495" x2="382.71" y2="300.495" stroke="black" stroke-width="2"/>
<rect x="378.866" y="277.366" width="20" height="13" transform="rotate(30 378.866 277.366)" fill="#333837" stroke="black" stroke-width="2"/>
<rect x="379.119" y="279.809" width="2.41195" height="2.41195" transform="rotate(30 379.119 279.809)" fill="#03709B"/>
<rect x="377.672" y="282.316" width="2.41195" height="2.41195" transform="rotate(30 377.672 282.316)" fill="#03709B"/>
<rect x="384.132" y="282.703" width="2.41195" height="2.41195" transform="rotate(30 384.132 282.703)" fill="#03709B"/>
<rect x="382.685" y="285.21" width="2.41195" height="2.41195" transform="rotate(30 382.685 285.21)" fill="#03709B"/>
<rect x="381.626" y="281.256" width="2.41195" height="2.41195" transform="rotate(30 381.626 281.256)" fill="#03709B"/>
<rect x="380.178" y="283.763" width="2.41195" height="2.41195" transform="rotate(30 380.178 283.763)" fill="#03709B"/>
<rect x="376.119" y="285.005" width="2.41195" height="2.41195" transform="rotate(30 376.119 285.005)" fill="#03709B"/>
<rect x="381.132" y="287.9" width="2.41195" height="2.41195" transform="rotate(30 381.132 287.9)" fill="#03709B"/>
<rect x="378.626" y="286.452" width="2.41195" height="2.41195" transform="rotate(30 378.626 286.452)" fill="#03709B"/>
<rect x="386.907" y="284.306" width="2.41195" height="2.41195" transform="rotate(30 386.907 284.306)" fill="#03709B"/>
<rect x="385.46" y="286.812" width="2.41195" height="2.41195" transform="rotate(30 385.46 286.812)" fill="#03709B"/>
<rect x="391.92" y="287.2" width="2.41195" height="2.41195" transform="rotate(30 391.92 287.2)" fill="#03709B"/>
<rect x="390.473" y="289.706" width="2.41195" height="2.41195" transform="rotate(30 390.473 289.706)" fill="#03709B"/>
<rect x="389.414" y="285.753" width="2.41195" height="2.41195" transform="rotate(30 389.414 285.753)" fill="#03709B"/>
<rect x="387.967" y="288.259" width="2.41195" height="2.41195" transform="rotate(30 387.967 288.259)" fill="#03709B"/>
<rect x="383.907" y="289.502" width="2.41195" height="2.41195" transform="rotate(30 383.907 289.502)" fill="#03709B"/>
<rect x="388.92" y="292.396" width="2.41195" height="2.41195" transform="rotate(30 388.92 292.396)" fill="#03709B"/>
<rect x="386.414" y="290.949" width="2.41195" height="2.41195" transform="rotate(30 386.414 290.949)" fill="#03709B"/>
<line x1="228.71" y1="316.495" x2="228.71" y2="327.495" stroke="black" stroke-width="2"/>
<rect x="224.866" y="304.366" width="20" height="13" transform="rotate(30 224.866 304.366)" fill="#333837" stroke="black" stroke-width="2"/>
<rect x="225.119" y="306.809" width="2.41195" height="2.41195" transform="rotate(30 225.119 306.809)" fill="#03709B"/>
<rect x="223.672" y="309.316" width="2.41195" height="2.41195" transform="rotate(30 223.672 309.316)" fill="#03709B"/>
<rect x="230.132" y="309.703" width="2.41195" height="2.41195" transform="rotate(30 230.132 309.703)" fill="#03709B"/>
<rect x="228.685" y="312.21" width="2.41195" height="2.41195" transform="rotate(30 228.685 312.21)" fill="#03709B"/>
<rect x="227.626" y="308.256" width="2.41195" height="2.41195" transform="rotate(30 227.626 308.256)" fill="#03709B"/>
<rect x="226.178" y="310.763" width="2.41195" height="2.41195" transform="rotate(30 226.178 310.763)" fill="#03709B"/>
<rect x="222.119" y="312.005" width="2.41195" height="2.41195" transform="rotate(30 222.119 312.005)" fill="#03709B"/>
<rect x="227.132" y="314.9" width="2.41195" height="2.41195" transform="rotate(30 227.132 314.9)" fill="#03709B"/>
<rect x="224.626" y="313.452" width="2.41195" height="2.41195" transform="rotate(30 224.626 313.452)" fill="#03709B"/>
<rect x="232.907" y="311.306" width="2.41195" height="2.41195" transform="rotate(30 232.907 311.306)" fill="#03709B"/>
<rect x="231.46" y="313.812" width="2.41195" height="2.41195" transform="rotate(30 231.46 313.812)" fill="#03709B"/>
<rect x="237.92" y="314.2" width="2.41195" height="2.41195" transform="rotate(30 237.92 314.2)" fill="#03709B"/>
<rect x="236.473" y="316.706" width="2.41195" height="2.41195" transform="rotate(30 236.473 316.706)" fill="#03709B"/>
<rect x="235.414" y="312.753" width="2.41195" height="2.41195" transform="rotate(30 235.414 312.753)" fill="#03709B"/>
<rect x="233.967" y="315.259" width="2.41195" height="2.41195" transform="rotate(30 233.967 315.259)" fill="#03709B"/>
<rect x="229.907" y="316.502" width="2.41195" height="2.41195" transform="rotate(30 229.907 316.502)" fill="#03709B"/>
<rect x="234.92" y="319.396" width="2.41195" height="2.41195" transform="rotate(30 234.92 319.396)" fill="#03709B"/>
<rect x="232.414" y="317.949" width="2.41195" height="2.41195" transform="rotate(30 232.414 317.949)" fill="#03709B"/>
<defs>
<linearGradient id="paint0_linear" x1="952" y1="0" x2="952" y2="329" gradientUnits="userSpaceOnUse">
<stop stop-color="#03709B"/>
<stop offset="0.572917" stop-color="#03709B" stop-opacity="0.72"/>
<stop offset="0.901042" stop-color="#0D8276" stop-opacity="0.72"/>
<stop offset="1" stop-color="#D6D1CC" stop-opacity="0.47"/>
</linearGradient>
<linearGradient id="paint1_linear" x1="1064.86" y1="39" x2="1064.86" y2="292" gradientUnits="userSpaceOnUse">
<stop stop-color="#03709B"/>
<stop offset="0.614583" stop-color="#0D8276"/>
<stop offset="0.895833" stop-color="#C4C4C4" stop-opacity="0"/>
</linearGradient>
<linearGradient id="paint2_linear" x1="719.154" y1="24" x2="719.154" y2="351" gradientUnits="userSpaceOnUse">
<stop stop-color="#0D8276"/>
<stop offset="0.947917" stop-color="#D6D1CC"/>
</linearGradient>
</defs>
</svg>
