<svg width="1461" height="355" viewBox="0 0 1461 355" fill="none" xmlns="http://www.w3.org/2000/svg">
<g filter="url(#hill_filter0_d)">
<path d="M506.661 108.773L501 78.2987V353H506.661H534.964H568.929H602.893H636.857H670.821H704.786H738.75H772.714H806.679H840.643H874.607H908.571H942.536H976.5H1010.46H1044.43H1078.39H1112.36H1146.32H1180.29H1214.25H1248.21H1282.18H1316.14H1350.11H1384.07H1418.04H1452C1440.68 329.679 1429.36 185.604 1418.04 177.449C1406.71 169.866 1395.39 215.649 1384.07 215.649C1372.75 215.649 1361.43 169.866 1350.11 154.557C1338.79 139.82 1327.46 154.128 1316.14 154.557C1304.82 154.128 1293.5 139.82 1282.18 131.665C1270.86 124.082 1259.54 124.082 1248.21 154.557C1236.89 185.604 1225.57 245.695 1214.25 253.85C1202.93 261.433 1191.61 215.649 1180.29 200.34C1168.96 185.604 1157.64 199.911 1146.32 169.866C1135 139.82 1123.68 62.5606 1112.36 47.824C1101.04 32.5151 1089.71 78.2987 1078.39 108.773C1067.07 139.82 1055.75 154.128 1044.43 116.499C1033.11 78.2986 1021.79 -13.2684 1010.46 9.62333C999.143 32.5151 987.821 169.866 976.5 215.649C965.179 261.433 953.857 215.649 942.536 162.283C931.214 108.344 919.893 48.2532 908.571 24.9322C897.25 2.46965 885.929 16.777 874.607 24.9322C863.286 32.5151 851.964 32.5151 840.643 62.9898C829.321 94.0368 818 154.128 806.679 192.758C795.357 231.387 784.036 245.695 772.714 269.016C761.393 291.478 750.071 322.954 738.75 291.908C727.429 261.433 716.107 169.866 704.786 108.773C693.464 48.2532 682.143 16.777 670.821 17.2062C659.5 16.777 648.179 48.2532 636.857 55.4069C625.536 62.5606 614.214 48.2532 602.893 70.7157C591.571 94.0367 580.25 154.128 568.929 192.758C557.607 231.387 546.286 245.695 534.964 223.232C523.643 199.911 512.321 139.82 506.661 108.773Z" fill="url(#hill_paint0_linear)"/>
</g>
<g filter="url(#hill_filter1_d)">
<path d="M725.857 65.3475C693.571 72.1344 661.286 256.534 629 318H725.857H822.714H919.571H1016.43H1113.29H1210.14H1307C1274.71 310.701 1242.43 168.176 1210.14 133.601C1177.86 99.0259 1145.57 86.2204 1113.29 119.899C1081 154.09 1048.71 236.045 1016.43 215.556C984.143 195.067 951.857 72.1344 919.571 65.3475C887.286 58.0483 855 168.176 822.714 167.791C790.429 168.176 758.143 58.0483 725.857 65.3475Z" fill="url(#hill_paint1_linear)"/>
</g>
<g filter="url(#hill_filter2_d)">
<path d="M-1 353L33.3073 346.464C67.6146 339.434 118.526 304.099 205.044 274.072C321.069 247.369 342.073 129.781 410.088 76.7509C479.102 23.7209 548.117 11.3884 616.132 43.823C684.846 76.7509 753.161 155.679 822.176 181.948C890.59 208.709 959.205 181.578 1028.22 181.948C1096.33 181.578 1165.25 208.709 1233.26 228.071C1302.18 248.173 1342.44 274.072 1366.79 304.099L1405 353C1370.69 353 1302.28 353 1233.26 353C1164.95 353 1096.23 353 1028.22 353C959.205 353 890.19 353 822.176 353C753.461 353 685.146 353 616.132 353C547.717 353 479.102 353 410.088 353C341.973 353 273.058 353 205.044 353C136.129 353 68.0147 353 33.0073 353H-1Z" fill="url(#hill_paint2_linear)"/>
</g>
<line x1="150.71" y1="289.495" x2="150.71" y2="300.495" stroke="black" stroke-width="2"/>
<rect x="146.866" y="277.366" width="20" height="13" transform="rotate(30 146.866 277.366)" fill="#333837" stroke="black" stroke-width="2"/>
<rect x="147.119" y="279.809" width="2.41195" height="2.41195" transform="rotate(30 147.119 279.809)" fill="#03709B"/>
<rect x="145.672" y="282.316" width="2.41195" height="2.41195" transform="rotate(30 145.672 282.316)" fill="#03709B"/>
<rect x="152.132" y="282.703" width="2.41195" height="2.41195" transform="rotate(30 152.132 282.703)" fill="#03709B"/>
<rect x="150.685" y="285.21" width="2.41195" height="2.41195" transform="rotate(30 150.685 285.21)" fill="#03709B"/>
<rect x="149.626" y="281.256" width="2.41195" height="2.41195" transform="rotate(30 149.626 281.256)" fill="#03709B"/>
<rect x="148.178" y="283.763" width="2.41195" height="2.41195" transform="rotate(30 148.178 283.763)" fill="#03709B"/>
<rect x="144.119" y="285.005" width="2.41195" height="2.41195" transform="rotate(30 144.119 285.005)" fill="#03709B"/>
<rect x="149.132" y="287.9" width="2.41195" height="2.41195" transform="rotate(30 149.132 287.9)" fill="#03709B"/>
<rect x="146.626" y="286.452" width="2.41195" height="2.41195" transform="rotate(30 146.626 286.452)" fill="#03709B"/>
<rect x="154.907" y="284.306" width="2.41195" height="2.41195" transform="rotate(30 154.907 284.306)" fill="#03709B"/>
<rect x="153.46" y="286.812" width="2.41195" height="2.41195" transform="rotate(30 153.46 286.812)" fill="#03709B"/>
<rect x="159.92" y="287.2" width="2.41195" height="2.41195" transform="rotate(30 159.92 287.2)" fill="#03709B"/>
<rect x="158.473" y="289.706" width="2.41195" height="2.41195" transform="rotate(30 158.473 289.706)" fill="#03709B"/>
<rect x="157.414" y="285.753" width="2.41195" height="2.41195" transform="rotate(30 157.414 285.753)" fill="#03709B"/>
<rect x="155.967" y="288.259" width="2.41195" height="2.41195" transform="rotate(30 155.967 288.259)" fill="#03709B"/>
<rect x="151.907" y="289.502" width="2.41195" height="2.41195" transform="rotate(30 151.907 289.502)" fill="#03709B"/>
<rect x="156.92" y="292.396" width="2.41195" height="2.41195" transform="rotate(30 156.92 292.396)" fill="#03709B"/>
<rect x="154.414" y="290.949" width="2.41195" height="2.41195" transform="rotate(30 154.414 290.949)" fill="#03709B"/>
<line x1="310.71" y1="254.495" x2="310.71" y2="265.495" stroke="black" stroke-width="2"/>
<rect x="306.866" y="242.366" width="20" height="13" transform="rotate(30 306.866 242.366)" fill="#333837" stroke="black" stroke-width="2"/>
<rect x="307.119" y="244.809" width="2.41195" height="2.41195" transform="rotate(30 307.119 244.809)" fill="#03709B"/>
<rect x="305.672" y="247.316" width="2.41195" height="2.41195" transform="rotate(30 305.672 247.316)" fill="#03709B"/>
<rect x="312.132" y="247.703" width="2.41195" height="2.41195" transform="rotate(30 312.132 247.703)" fill="#03709B"/>
<rect x="310.685" y="250.21" width="2.41195" height="2.41195" transform="rotate(30 310.685 250.21)" fill="#03709B"/>
<rect x="309.626" y="246.256" width="2.41195" height="2.41195" transform="rotate(30 309.626 246.256)" fill="#03709B"/>
<rect x="308.178" y="248.763" width="2.41195" height="2.41195" transform="rotate(30 308.178 248.763)" fill="#03709B"/>
<rect x="304.119" y="250.005" width="2.41195" height="2.41195" transform="rotate(30 304.119 250.005)" fill="#03709B"/>
<rect x="309.132" y="252.9" width="2.41195" height="2.41195" transform="rotate(30 309.132 252.9)" fill="#03709B"/>
<rect x="306.626" y="251.452" width="2.41195" height="2.41195" transform="rotate(30 306.626 251.452)" fill="#03709B"/>
<rect x="314.907" y="249.306" width="2.41195" height="2.41195" transform="rotate(30 314.907 249.306)" fill="#03709B"/>
<rect x="313.46" y="251.812" width="2.41195" height="2.41195" transform="rotate(30 313.46 251.812)" fill="#03709B"/>
<rect x="319.92" y="252.2" width="2.41195" height="2.41195" transform="rotate(30 319.92 252.2)" fill="#03709B"/>
<rect x="318.473" y="254.706" width="2.41195" height="2.41195" transform="rotate(30 318.473 254.706)" fill="#03709B"/>
<rect x="317.414" y="250.753" width="2.41195" height="2.41195" transform="rotate(30 317.414 250.753)" fill="#03709B"/>
<rect x="315.967" y="253.259" width="2.41195" height="2.41195" transform="rotate(30 315.967 253.259)" fill="#03709B"/>
<rect x="311.907" y="254.502" width="2.41195" height="2.41195" transform="rotate(30 311.907 254.502)" fill="#03709B"/>
<rect x="316.92" y="257.396" width="2.41195" height="2.41195" transform="rotate(30 316.92 257.396)" fill="#03709B"/>
<rect x="314.414" y="255.949" width="2.41195" height="2.41195" transform="rotate(30 314.414 255.949)" fill="#03709B"/>
<line x1="278.71" y1="317.495" x2="278.71" y2="328.495" stroke="black" stroke-width="2"/>
<rect x="274.866" y="305.366" width="20" height="13" transform="rotate(30 274.866 305.366)" fill="#333837" stroke="black" stroke-width="2"/>
<rect x="275.119" y="307.809" width="2.41195" height="2.41195" transform="rotate(30 275.119 307.809)" fill="#03709B"/>
<rect x="273.672" y="310.316" width="2.41195" height="2.41195" transform="rotate(30 273.672 310.316)" fill="#03709B"/>
<rect x="280.132" y="310.703" width="2.41195" height="2.41195" transform="rotate(30 280.132 310.703)" fill="#03709B"/>
<rect x="278.685" y="313.21" width="2.41195" height="2.41195" transform="rotate(30 278.685 313.21)" fill="#03709B"/>
<rect x="277.626" y="309.256" width="2.41195" height="2.41195" transform="rotate(30 277.626 309.256)" fill="#03709B"/>
<rect x="276.178" y="311.763" width="2.41195" height="2.41195" transform="rotate(30 276.178 311.763)" fill="#03709B"/>
<rect x="272.119" y="313.005" width="2.41195" height="2.41195" transform="rotate(30 272.119 313.005)" fill="#03709B"/>
<rect x="277.132" y="315.9" width="2.41195" height="2.41195" transform="rotate(30 277.132 315.9)" fill="#03709B"/>
<rect x="274.626" y="314.452" width="2.41195" height="2.41195" transform="rotate(30 274.626 314.452)" fill="#03709B"/>
<rect x="282.907" y="312.306" width="2.41195" height="2.41195" transform="rotate(30 282.907 312.306)" fill="#03709B"/>
<rect x="281.46" y="314.812" width="2.41195" height="2.41195" transform="rotate(30 281.46 314.812)" fill="#03709B"/>
<rect x="287.92" y="315.2" width="2.41195" height="2.41195" transform="rotate(30 287.92 315.2)" fill="#03709B"/>
<rect x="286.473" y="317.706" width="2.41195" height="2.41195" transform="rotate(30 286.473 317.706)" fill="#03709B"/>
<rect x="285.414" y="313.753" width="2.41195" height="2.41195" transform="rotate(30 285.414 313.753)" fill="#03709B"/>
<rect x="283.967" y="316.259" width="2.41195" height="2.41195" transform="rotate(30 283.967 316.259)" fill="#03709B"/>
<rect x="279.907" y="317.502" width="2.41195" height="2.41195" transform="rotate(30 279.907 317.502)" fill="#03709B"/>
<rect x="284.92" y="320.396" width="2.41195" height="2.41195" transform="rotate(30 284.92 320.396)" fill="#03709B"/>
<rect x="282.414" y="318.949" width="2.41195" height="2.41195" transform="rotate(30 282.414 318.949)" fill="#03709B"/>
<line x1="227.71" y1="274.495" x2="227.71" y2="285.495" stroke="black" stroke-width="2"/>
<rect x="223.866" y="262.366" width="20" height="13" transform="rotate(30 223.866 262.366)" fill="#333837" stroke="black" stroke-width="2"/>
<rect x="224.119" y="264.809" width="2.41195" height="2.41195" transform="rotate(30 224.119 264.809)" fill="#03709B"/>
<rect x="222.672" y="267.316" width="2.41195" height="2.41195" transform="rotate(30 222.672 267.316)" fill="#03709B"/>
<rect x="229.132" y="267.703" width="2.41195" height="2.41195" transform="rotate(30 229.132 267.703)" fill="#03709B"/>
<rect x="227.685" y="270.21" width="2.41195" height="2.41195" transform="rotate(30 227.685 270.21)" fill="#03709B"/>
<rect x="226.626" y="266.256" width="2.41195" height="2.41195" transform="rotate(30 226.626 266.256)" fill="#03709B"/>
<rect x="225.178" y="268.763" width="2.41195" height="2.41195" transform="rotate(30 225.178 268.763)" fill="#03709B"/>
<rect x="221.119" y="270.005" width="2.41195" height="2.41195" transform="rotate(30 221.119 270.005)" fill="#03709B"/>
<rect x="226.132" y="272.9" width="2.41195" height="2.41195" transform="rotate(30 226.132 272.9)" fill="#03709B"/>
<rect x="223.626" y="271.452" width="2.41195" height="2.41195" transform="rotate(30 223.626 271.452)" fill="#03709B"/>
<rect x="231.907" y="269.306" width="2.41195" height="2.41195" transform="rotate(30 231.907 269.306)" fill="#03709B"/>
<rect x="230.46" y="271.812" width="2.41195" height="2.41195" transform="rotate(30 230.46 271.812)" fill="#03709B"/>
<rect x="236.92" y="272.2" width="2.41195" height="2.41195" transform="rotate(30 236.92 272.2)" fill="#03709B"/>
<rect x="235.473" y="274.706" width="2.41195" height="2.41195" transform="rotate(30 235.473 274.706)" fill="#03709B"/>
<rect x="234.414" y="270.753" width="2.41195" height="2.41195" transform="rotate(30 234.414 270.753)" fill="#03709B"/>
<rect x="232.967" y="273.259" width="2.41195" height="2.41195" transform="rotate(30 232.967 273.259)" fill="#03709B"/>
<rect x="228.907" y="274.502" width="2.41195" height="2.41195" transform="rotate(30 228.907 274.502)" fill="#03709B"/>
<rect x="233.92" y="277.396" width="2.41195" height="2.41195" transform="rotate(30 233.92 277.396)" fill="#03709B"/>
<rect x="231.414" y="275.949" width="2.41195" height="2.41195" transform="rotate(30 231.414 275.949)" fill="#03709B"/>
<line x1="387.71" y1="239.495" x2="387.71" y2="250.495" stroke="black" stroke-width="2"/>
<rect x="383.866" y="227.366" width="20" height="13" transform="rotate(30 383.866 227.366)" fill="#333837" stroke="black" stroke-width="2"/>
<rect x="384.119" y="229.809" width="2.41195" height="2.41195" transform="rotate(30 384.119 229.809)" fill="#03709B"/>
<rect x="382.672" y="232.316" width="2.41195" height="2.41195" transform="rotate(30 382.672 232.316)" fill="#03709B"/>
<rect x="389.132" y="232.703" width="2.41195" height="2.41195" transform="rotate(30 389.132 232.703)" fill="#03709B"/>
<rect x="387.685" y="235.21" width="2.41195" height="2.41195" transform="rotate(30 387.685 235.21)" fill="#03709B"/>
<rect x="386.626" y="231.256" width="2.41195" height="2.41195" transform="rotate(30 386.626 231.256)" fill="#03709B"/>
<rect x="385.178" y="233.763" width="2.41195" height="2.41195" transform="rotate(30 385.178 233.763)" fill="#03709B"/>
<rect x="381.119" y="235.005" width="2.41195" height="2.41195" transform="rotate(30 381.119 235.005)" fill="#03709B"/>
<rect x="386.132" y="237.9" width="2.41195" height="2.41195" transform="rotate(30 386.132 237.9)" fill="#03709B"/>
<rect x="383.626" y="236.452" width="2.41195" height="2.41195" transform="rotate(30 383.626 236.452)" fill="#03709B"/>
<rect x="391.907" y="234.306" width="2.41195" height="2.41195" transform="rotate(30 391.907 234.306)" fill="#03709B"/>
<rect x="390.46" y="236.812" width="2.41195" height="2.41195" transform="rotate(30 390.46 236.812)" fill="#03709B"/>
<rect x="396.92" y="237.2" width="2.41195" height="2.41195" transform="rotate(30 396.92 237.2)" fill="#03709B"/>
<rect x="395.473" y="239.706" width="2.41195" height="2.41195" transform="rotate(30 395.473 239.706)" fill="#03709B"/>
<rect x="394.414" y="235.753" width="2.41195" height="2.41195" transform="rotate(30 394.414 235.753)" fill="#03709B"/>
<rect x="392.967" y="238.259" width="2.41195" height="2.41195" transform="rotate(30 392.967 238.259)" fill="#03709B"/>
<rect x="388.907" y="239.502" width="2.41195" height="2.41195" transform="rotate(30 388.907 239.502)" fill="#03709B"/>
<rect x="393.92" y="242.396" width="2.41195" height="2.41195" transform="rotate(30 393.92 242.396)" fill="#03709B"/>
<rect x="391.414" y="240.949" width="2.41195" height="2.41195" transform="rotate(30 391.414 240.949)" fill="#03709B"/>
<line x1="355.71" y1="302.495" x2="355.71" y2="313.495" stroke="black" stroke-width="2"/>
<rect x="351.866" y="290.366" width="20" height="13" transform="rotate(30 351.866 290.366)" fill="#333837" stroke="black" stroke-width="2"/>
<rect x="352.119" y="292.809" width="2.41195" height="2.41195" transform="rotate(30 352.119 292.809)" fill="#03709B"/>
<rect x="350.672" y="295.316" width="2.41195" height="2.41195" transform="rotate(30 350.672 295.316)" fill="#03709B"/>
<rect x="357.132" y="295.703" width="2.41195" height="2.41195" transform="rotate(30 357.132 295.703)" fill="#03709B"/>
<rect x="355.685" y="298.21" width="2.41195" height="2.41195" transform="rotate(30 355.685 298.21)" fill="#03709B"/>
<rect x="354.626" y="294.256" width="2.41195" height="2.41195" transform="rotate(30 354.626 294.256)" fill="#03709B"/>
<rect x="353.178" y="296.763" width="2.41195" height="2.41195" transform="rotate(30 353.178 296.763)" fill="#03709B"/>
<rect x="349.119" y="298.005" width="2.41195" height="2.41195" transform="rotate(30 349.119 298.005)" fill="#03709B"/>
<rect x="354.132" y="300.9" width="2.41195" height="2.41195" transform="rotate(30 354.132 300.9)" fill="#03709B"/>
<rect x="351.626" y="299.452" width="2.41195" height="2.41195" transform="rotate(30 351.626 299.452)" fill="#03709B"/>
<rect x="359.907" y="297.306" width="2.41195" height="2.41195" transform="rotate(30 359.907 297.306)" fill="#03709B"/>
<rect x="358.46" y="299.812" width="2.41195" height="2.41195" transform="rotate(30 358.46 299.812)" fill="#03709B"/>
<rect x="364.92" y="300.2" width="2.41195" height="2.41195" transform="rotate(30 364.92 300.2)" fill="#03709B"/>
<rect x="363.473" y="302.706" width="2.41195" height="2.41195" transform="rotate(30 363.473 302.706)" fill="#03709B"/>
<rect x="362.414" y="298.753" width="2.41195" height="2.41195" transform="rotate(30 362.414 298.753)" fill="#03709B"/>
<rect x="360.967" y="301.259" width="2.41195" height="2.41195" transform="rotate(30 360.967 301.259)" fill="#03709B"/>
<rect x="356.907" y="302.502" width="2.41195" height="2.41195" transform="rotate(30 356.907 302.502)" fill="#03709B"/>
<rect x="361.92" y="305.396" width="2.41195" height="2.41195" transform="rotate(30 361.92 305.396)" fill="#03709B"/>
<rect x="359.414" y="303.949" width="2.41195" height="2.41195" transform="rotate(30 359.414 303.949)" fill="#03709B"/>
<line x1="201.71" y1="329.495" x2="201.71" y2="340.495" stroke="black" stroke-width="2"/>
<rect x="197.866" y="317.366" width="20" height="13" transform="rotate(30 197.866 317.366)" fill="#333837" stroke="black" stroke-width="2"/>
<rect x="198.119" y="319.809" width="2.41195" height="2.41195" transform="rotate(30 198.119 319.809)" fill="#03709B"/>
<rect x="196.672" y="322.316" width="2.41195" height="2.41195" transform="rotate(30 196.672 322.316)" fill="#03709B"/>
<rect x="203.132" y="322.703" width="2.41195" height="2.41195" transform="rotate(30 203.132 322.703)" fill="#03709B"/>
<rect x="201.685" y="325.21" width="2.41195" height="2.41195" transform="rotate(30 201.685 325.21)" fill="#03709B"/>
<rect x="200.626" y="321.256" width="2.41195" height="2.41195" transform="rotate(30 200.626 321.256)" fill="#03709B"/>
<rect x="199.178" y="323.763" width="2.41195" height="2.41195" transform="rotate(30 199.178 323.763)" fill="#03709B"/>
<rect x="195.119" y="325.005" width="2.41195" height="2.41195" transform="rotate(30 195.119 325.005)" fill="#03709B"/>
<rect x="200.132" y="327.9" width="2.41195" height="2.41195" transform="rotate(30 200.132 327.9)" fill="#03709B"/>
<rect x="197.626" y="326.452" width="2.41195" height="2.41195" transform="rotate(30 197.626 326.452)" fill="#03709B"/>
<rect x="205.907" y="324.306" width="2.41195" height="2.41195" transform="rotate(30 205.907 324.306)" fill="#03709B"/>
<rect x="204.46" y="326.812" width="2.41195" height="2.41195" transform="rotate(30 204.46 326.812)" fill="#03709B"/>
<rect x="210.92" y="327.2" width="2.41195" height="2.41195" transform="rotate(30 210.92 327.2)" fill="#03709B"/>
<rect x="209.473" y="329.706" width="2.41195" height="2.41195" transform="rotate(30 209.473 329.706)" fill="#03709B"/>
<rect x="208.414" y="325.753" width="2.41195" height="2.41195" transform="rotate(30 208.414 325.753)" fill="#03709B"/>
<rect x="206.967" y="328.259" width="2.41195" height="2.41195" transform="rotate(30 206.967 328.259)" fill="#03709B"/>
<rect x="202.907" y="329.502" width="2.41195" height="2.41195" transform="rotate(30 202.907 329.502)" fill="#03709B"/>
<rect x="207.92" y="332.396" width="2.41195" height="2.41195" transform="rotate(30 207.92 332.396)" fill="#03709B"/>
<rect x="205.414" y="330.949" width="2.41195" height="2.41195" transform="rotate(30 205.414 330.949)" fill="#03709B"/>
<line x1="128.71" y1="306.495" x2="128.71" y2="317.495" stroke="black" stroke-width="2"/>
<rect x="124.866" y="294.366" width="20" height="13" transform="rotate(30 124.866 294.366)" fill="#333837" stroke="black" stroke-width="2"/>
<rect x="125.119" y="296.809" width="2.41195" height="2.41195" transform="rotate(30 125.119 296.809)" fill="#03709B"/>
<rect x="123.672" y="299.316" width="2.41195" height="2.41195" transform="rotate(30 123.672 299.316)" fill="#03709B"/>
<rect x="130.132" y="299.703" width="2.41195" height="2.41195" transform="rotate(30 130.132 299.703)" fill="#03709B"/>
<rect x="128.685" y="302.21" width="2.41195" height="2.41195" transform="rotate(30 128.685 302.21)" fill="#03709B"/>
<rect x="127.626" y="298.256" width="2.41195" height="2.41195" transform="rotate(30 127.626 298.256)" fill="#03709B"/>
<rect x="126.178" y="300.763" width="2.41195" height="2.41195" transform="rotate(30 126.178 300.763)" fill="#03709B"/>
<rect x="122.119" y="302.005" width="2.41195" height="2.41195" transform="rotate(30 122.119 302.005)" fill="#03709B"/>
<rect x="127.132" y="304.9" width="2.41195" height="2.41195" transform="rotate(30 127.132 304.9)" fill="#03709B"/>
<rect x="124.626" y="303.452" width="2.41195" height="2.41195" transform="rotate(30 124.626 303.452)" fill="#03709B"/>
<rect x="132.907" y="301.306" width="2.41195" height="2.41195" transform="rotate(30 132.907 301.306)" fill="#03709B"/>
<rect x="131.46" y="303.812" width="2.41195" height="2.41195" transform="rotate(30 131.46 303.812)" fill="#03709B"/>
<rect x="137.92" y="304.2" width="2.41195" height="2.41195" transform="rotate(30 137.92 304.2)" fill="#03709B"/>
<rect x="136.473" y="306.706" width="2.41195" height="2.41195" transform="rotate(30 136.473 306.706)" fill="#03709B"/>
<rect x="135.414" y="302.753" width="2.41195" height="2.41195" transform="rotate(30 135.414 302.753)" fill="#03709B"/>
<rect x="133.967" y="305.259" width="2.41195" height="2.41195" transform="rotate(30 133.967 305.259)" fill="#03709B"/>
<rect x="129.907" y="306.502" width="2.41195" height="2.41195" transform="rotate(30 129.907 306.502)" fill="#03709B"/>
<rect x="134.92" y="309.396" width="2.41195" height="2.41195" transform="rotate(30 134.92 309.396)" fill="#03709B"/>
<rect x="132.414" y="307.949" width="2.41195" height="2.41195" transform="rotate(30 132.414 307.949)" fill="#03709B"/>
<line x1="288.71" y1="271.495" x2="288.71" y2="282.495" stroke="black" stroke-width="2"/>
<rect x="284.866" y="259.366" width="20" height="13" transform="rotate(30 284.866 259.366)" fill="#333837" stroke="black" stroke-width="2"/>
<rect x="285.119" y="261.809" width="2.41195" height="2.41195" transform="rotate(30 285.119 261.809)" fill="#03709B"/>
<rect x="283.672" y="264.316" width="2.41195" height="2.41195" transform="rotate(30 283.672 264.316)" fill="#03709B"/>
<rect x="290.132" y="264.703" width="2.41195" height="2.41195" transform="rotate(30 290.132 264.703)" fill="#03709B"/>
<rect x="288.685" y="267.21" width="2.41195" height="2.41195" transform="rotate(30 288.685 267.21)" fill="#03709B"/>
<rect x="287.626" y="263.256" width="2.41195" height="2.41195" transform="rotate(30 287.626 263.256)" fill="#03709B"/>
<rect x="286.178" y="265.763" width="2.41195" height="2.41195" transform="rotate(30 286.178 265.763)" fill="#03709B"/>
<rect x="282.119" y="267.005" width="2.41195" height="2.41195" transform="rotate(30 282.119 267.005)" fill="#03709B"/>
<rect x="287.132" y="269.9" width="2.41195" height="2.41195" transform="rotate(30 287.132 269.9)" fill="#03709B"/>
<rect x="284.626" y="268.452" width="2.41195" height="2.41195" transform="rotate(30 284.626 268.452)" fill="#03709B"/>
<rect x="292.907" y="266.306" width="2.41195" height="2.41195" transform="rotate(30 292.907 266.306)" fill="#03709B"/>
<rect x="291.46" y="268.812" width="2.41195" height="2.41195" transform="rotate(30 291.46 268.812)" fill="#03709B"/>
<rect x="297.92" y="269.2" width="2.41195" height="2.41195" transform="rotate(30 297.92 269.2)" fill="#03709B"/>
<rect x="296.473" y="271.706" width="2.41195" height="2.41195" transform="rotate(30 296.473 271.706)" fill="#03709B"/>
<rect x="295.414" y="267.753" width="2.41195" height="2.41195" transform="rotate(30 295.414 267.753)" fill="#03709B"/>
<rect x="293.967" y="270.259" width="2.41195" height="2.41195" transform="rotate(30 293.967 270.259)" fill="#03709B"/>
<rect x="289.907" y="271.502" width="2.41195" height="2.41195" transform="rotate(30 289.907 271.502)" fill="#03709B"/>
<rect x="294.92" y="274.396" width="2.41195" height="2.41195" transform="rotate(30 294.92 274.396)" fill="#03709B"/>
<rect x="292.414" y="272.949" width="2.41195" height="2.41195" transform="rotate(30 292.414 272.949)" fill="#03709B"/>
<line x1="205.71" y1="291.495" x2="205.71" y2="302.495" stroke="black" stroke-width="2"/>
<rect x="201.866" y="279.366" width="20" height="13" transform="rotate(30 201.866 279.366)" fill="#333837" stroke="black" stroke-width="2"/>
<rect x="202.119" y="281.809" width="2.41195" height="2.41195" transform="rotate(30 202.119 281.809)" fill="#03709B"/>
<rect x="200.672" y="284.316" width="2.41195" height="2.41195" transform="rotate(30 200.672 284.316)" fill="#03709B"/>
<rect x="207.132" y="284.703" width="2.41195" height="2.41195" transform="rotate(30 207.132 284.703)" fill="#03709B"/>
<rect x="205.685" y="287.21" width="2.41195" height="2.41195" transform="rotate(30 205.685 287.21)" fill="#03709B"/>
<rect x="204.626" y="283.256" width="2.41195" height="2.41195" transform="rotate(30 204.626 283.256)" fill="#03709B"/>
<rect x="203.178" y="285.763" width="2.41195" height="2.41195" transform="rotate(30 203.178 285.763)" fill="#03709B"/>
<rect x="199.119" y="287.005" width="2.41195" height="2.41195" transform="rotate(30 199.119 287.005)" fill="#03709B"/>
<rect x="204.132" y="289.9" width="2.41195" height="2.41195" transform="rotate(30 204.132 289.9)" fill="#03709B"/>
<rect x="201.626" y="288.452" width="2.41195" height="2.41195" transform="rotate(30 201.626 288.452)" fill="#03709B"/>
<rect x="209.907" y="286.306" width="2.41195" height="2.41195" transform="rotate(30 209.907 286.306)" fill="#03709B"/>
<rect x="208.46" y="288.812" width="2.41195" height="2.41195" transform="rotate(30 208.46 288.812)" fill="#03709B"/>
<rect x="214.92" y="289.2" width="2.41195" height="2.41195" transform="rotate(30 214.92 289.2)" fill="#03709B"/>
<rect x="213.473" y="291.706" width="2.41195" height="2.41195" transform="rotate(30 213.473 291.706)" fill="#03709B"/>
<rect x="212.414" y="287.753" width="2.41195" height="2.41195" transform="rotate(30 212.414 287.753)" fill="#03709B"/>
<rect x="210.967" y="290.259" width="2.41195" height="2.41195" transform="rotate(30 210.967 290.259)" fill="#03709B"/>
<rect x="206.907" y="291.502" width="2.41195" height="2.41195" transform="rotate(30 206.907 291.502)" fill="#03709B"/>
<rect x="211.92" y="294.396" width="2.41195" height="2.41195" transform="rotate(30 211.92 294.396)" fill="#03709B"/>
<rect x="209.414" y="292.949" width="2.41195" height="2.41195" transform="rotate(30 209.414 292.949)" fill="#03709B"/>
<line x1="365.71" y1="256.495" x2="365.71" y2="267.495" stroke="black" stroke-width="2"/>
<rect x="361.866" y="244.366" width="20" height="13" transform="rotate(30 361.866 244.366)" fill="#333837" stroke="black" stroke-width="2"/>
<rect x="362.119" y="246.809" width="2.41195" height="2.41195" transform="rotate(30 362.119 246.809)" fill="#03709B"/>
<rect x="360.672" y="249.316" width="2.41195" height="2.41195" transform="rotate(30 360.672 249.316)" fill="#03709B"/>
<rect x="367.132" y="249.703" width="2.41195" height="2.41195" transform="rotate(30 367.132 249.703)" fill="#03709B"/>
<rect x="365.685" y="252.21" width="2.41195" height="2.41195" transform="rotate(30 365.685 252.21)" fill="#03709B"/>
<rect x="364.626" y="248.256" width="2.41195" height="2.41195" transform="rotate(30 364.626 248.256)" fill="#03709B"/>
<rect x="363.178" y="250.763" width="2.41195" height="2.41195" transform="rotate(30 363.178 250.763)" fill="#03709B"/>
<rect x="359.119" y="252.005" width="2.41195" height="2.41195" transform="rotate(30 359.119 252.005)" fill="#03709B"/>
<rect x="364.132" y="254.9" width="2.41195" height="2.41195" transform="rotate(30 364.132 254.9)" fill="#03709B"/>
<rect x="361.626" y="253.452" width="2.41195" height="2.41195" transform="rotate(30 361.626 253.452)" fill="#03709B"/>
<rect x="369.907" y="251.306" width="2.41195" height="2.41195" transform="rotate(30 369.907 251.306)" fill="#03709B"/>
<rect x="368.46" y="253.812" width="2.41195" height="2.41195" transform="rotate(30 368.46 253.812)" fill="#03709B"/>
<rect x="374.92" y="254.2" width="2.41195" height="2.41195" transform="rotate(30 374.92 254.2)" fill="#03709B"/>
<rect x="373.473" y="256.706" width="2.41195" height="2.41195" transform="rotate(30 373.473 256.706)" fill="#03709B"/>
<rect x="372.414" y="252.753" width="2.41195" height="2.41195" transform="rotate(30 372.414 252.753)" fill="#03709B"/>
<rect x="370.967" y="255.259" width="2.41195" height="2.41195" transform="rotate(30 370.967 255.259)" fill="#03709B"/>
<rect x="366.907" y="256.502" width="2.41195" height="2.41195" transform="rotate(30 366.907 256.502)" fill="#03709B"/>
<rect x="371.92" y="259.396" width="2.41195" height="2.41195" transform="rotate(30 371.92 259.396)" fill="#03709B"/>
<rect x="369.414" y="257.949" width="2.41195" height="2.41195" transform="rotate(30 369.414 257.949)" fill="#03709B"/>
<line x1="333.71" y1="319.495" x2="333.71" y2="330.495" stroke="black" stroke-width="2"/>
<rect x="329.866" y="307.366" width="20" height="13" transform="rotate(30 329.866 307.366)" fill="#333837" stroke="black" stroke-width="2"/>
<rect x="330.119" y="309.809" width="2.41195" height="2.41195" transform="rotate(30 330.119 309.809)" fill="#03709B"/>
<rect x="328.672" y="312.316" width="2.41195" height="2.41195" transform="rotate(30 328.672 312.316)" fill="#03709B"/>
<rect x="335.132" y="312.703" width="2.41195" height="2.41195" transform="rotate(30 335.132 312.703)" fill="#03709B"/>
<rect x="333.685" y="315.21" width="2.41195" height="2.41195" transform="rotate(30 333.685 315.21)" fill="#03709B"/>
<rect x="332.626" y="311.256" width="2.41195" height="2.41195" transform="rotate(30 332.626 311.256)" fill="#03709B"/>
<rect x="331.178" y="313.763" width="2.41195" height="2.41195" transform="rotate(30 331.178 313.763)" fill="#03709B"/>
<rect x="327.119" y="315.005" width="2.41195" height="2.41195" transform="rotate(30 327.119 315.005)" fill="#03709B"/>
<rect x="332.132" y="317.9" width="2.41195" height="2.41195" transform="rotate(30 332.132 317.9)" fill="#03709B"/>
<rect x="329.626" y="316.452" width="2.41195" height="2.41195" transform="rotate(30 329.626 316.452)" fill="#03709B"/>
<rect x="337.907" y="314.306" width="2.41195" height="2.41195" transform="rotate(30 337.907 314.306)" fill="#03709B"/>
<rect x="336.46" y="316.812" width="2.41195" height="2.41195" transform="rotate(30 336.46 316.812)" fill="#03709B"/>
<rect x="342.92" y="317.2" width="2.41195" height="2.41195" transform="rotate(30 342.92 317.2)" fill="#03709B"/>
<rect x="341.473" y="319.706" width="2.41195" height="2.41195" transform="rotate(30 341.473 319.706)" fill="#03709B"/>
<rect x="340.414" y="315.753" width="2.41195" height="2.41195" transform="rotate(30 340.414 315.753)" fill="#03709B"/>
<rect x="338.967" y="318.259" width="2.41195" height="2.41195" transform="rotate(30 338.967 318.259)" fill="#03709B"/>
<rect x="334.907" y="319.502" width="2.41195" height="2.41195" transform="rotate(30 334.907 319.502)" fill="#03709B"/>
<rect x="339.92" y="322.396" width="2.41195" height="2.41195" transform="rotate(30 339.92 322.396)" fill="#03709B"/>
<rect x="337.414" y="320.949" width="2.41195" height="2.41195" transform="rotate(30 337.414 320.949)" fill="#03709B"/>
<line x1="163.71" y1="317.495" x2="163.71" y2="328.495" stroke="black" stroke-width="2"/>
<rect x="159.866" y="305.366" width="20" height="13" transform="rotate(30 159.866 305.366)" fill="#333837" stroke="black" stroke-width="2"/>
<rect x="160.119" y="307.809" width="2.41195" height="2.41195" transform="rotate(30 160.119 307.809)" fill="#03709B"/>
<rect x="158.672" y="310.316" width="2.41195" height="2.41195" transform="rotate(30 158.672 310.316)" fill="#03709B"/>
<rect x="165.132" y="310.703" width="2.41195" height="2.41195" transform="rotate(30 165.132 310.703)" fill="#03709B"/>
<rect x="163.685" y="313.21" width="2.41195" height="2.41195" transform="rotate(30 163.685 313.21)" fill="#03709B"/>
<rect x="162.626" y="309.256" width="2.41195" height="2.41195" transform="rotate(30 162.626 309.256)" fill="#03709B"/>
<rect x="161.178" y="311.763" width="2.41195" height="2.41195" transform="rotate(30 161.178 311.763)" fill="#03709B"/>
<rect x="157.119" y="313.005" width="2.41195" height="2.41195" transform="rotate(30 157.119 313.005)" fill="#03709B"/>
<rect x="162.132" y="315.9" width="2.41195" height="2.41195" transform="rotate(30 162.132 315.9)" fill="#03709B"/>
<rect x="159.626" y="314.452" width="2.41195" height="2.41195" transform="rotate(30 159.626 314.452)" fill="#03709B"/>
<rect x="167.907" y="312.306" width="2.41195" height="2.41195" transform="rotate(30 167.907 312.306)" fill="#03709B"/>
<rect x="166.46" y="314.812" width="2.41195" height="2.41195" transform="rotate(30 166.46 314.812)" fill="#03709B"/>
<rect x="172.92" y="315.2" width="2.41195" height="2.41195" transform="rotate(30 172.92 315.2)" fill="#03709B"/>
<rect x="171.473" y="317.706" width="2.41195" height="2.41195" transform="rotate(30 171.473 317.706)" fill="#03709B"/>
<rect x="170.414" y="313.753" width="2.41195" height="2.41195" transform="rotate(30 170.414 313.753)" fill="#03709B"/>
<rect x="168.967" y="316.259" width="2.41195" height="2.41195" transform="rotate(30 168.967 316.259)" fill="#03709B"/>
<rect x="164.907" y="317.502" width="2.41195" height="2.41195" transform="rotate(30 164.907 317.502)" fill="#03709B"/>
<rect x="169.92" y="320.396" width="2.41195" height="2.41195" transform="rotate(30 169.92 320.396)" fill="#03709B"/>
<rect x="167.414" y="318.949" width="2.41195" height="2.41195" transform="rotate(30 167.414 318.949)" fill="#03709B"/>
<line x1="323.71" y1="282.495" x2="323.71" y2="293.495" stroke="black" stroke-width="2"/>
<rect x="319.866" y="270.366" width="20" height="13" transform="rotate(30 319.866 270.366)" fill="#333837" stroke="black" stroke-width="2"/>
<rect x="320.119" y="272.809" width="2.41195" height="2.41195" transform="rotate(30 320.119 272.809)" fill="#03709B"/>
<rect x="318.672" y="275.316" width="2.41195" height="2.41195" transform="rotate(30 318.672 275.316)" fill="#03709B"/>
<rect x="325.132" y="275.703" width="2.41195" height="2.41195" transform="rotate(30 325.132 275.703)" fill="#03709B"/>
<rect x="323.685" y="278.21" width="2.41195" height="2.41195" transform="rotate(30 323.685 278.21)" fill="#03709B"/>
<rect x="322.626" y="274.256" width="2.41195" height="2.41195" transform="rotate(30 322.626 274.256)" fill="#03709B"/>
<rect x="321.178" y="276.763" width="2.41195" height="2.41195" transform="rotate(30 321.178 276.763)" fill="#03709B"/>
<rect x="317.119" y="278.005" width="2.41195" height="2.41195" transform="rotate(30 317.119 278.005)" fill="#03709B"/>
<rect x="322.132" y="280.9" width="2.41195" height="2.41195" transform="rotate(30 322.132 280.9)" fill="#03709B"/>
<rect x="319.626" y="279.452" width="2.41195" height="2.41195" transform="rotate(30 319.626 279.452)" fill="#03709B"/>
<rect x="327.907" y="277.306" width="2.41195" height="2.41195" transform="rotate(30 327.907 277.306)" fill="#03709B"/>
<rect x="326.46" y="279.812" width="2.41195" height="2.41195" transform="rotate(30 326.46 279.812)" fill="#03709B"/>
<rect x="332.92" y="280.2" width="2.41195" height="2.41195" transform="rotate(30 332.92 280.2)" fill="#03709B"/>
<rect x="331.473" y="282.706" width="2.41195" height="2.41195" transform="rotate(30 331.473 282.706)" fill="#03709B"/>
<rect x="330.414" y="278.753" width="2.41195" height="2.41195" transform="rotate(30 330.414 278.753)" fill="#03709B"/>
<rect x="328.967" y="281.259" width="2.41195" height="2.41195" transform="rotate(30 328.967 281.259)" fill="#03709B"/>
<rect x="324.907" y="282.502" width="2.41195" height="2.41195" transform="rotate(30 324.907 282.502)" fill="#03709B"/>
<rect x="329.92" y="285.396" width="2.41195" height="2.41195" transform="rotate(30 329.92 285.396)" fill="#03709B"/>
<rect x="327.414" y="283.949" width="2.41195" height="2.41195" transform="rotate(30 327.414 283.949)" fill="#03709B"/>
<line x1="240.71" y1="302.495" x2="240.71" y2="313.495" stroke="black" stroke-width="2"/>
<rect x="236.866" y="290.366" width="20" height="13" transform="rotate(30 236.866 290.366)" fill="#333837" stroke="black" stroke-width="2"/>
<rect x="237.119" y="292.809" width="2.41195" height="2.41195" transform="rotate(30 237.119 292.809)" fill="#03709B"/>
<rect x="235.672" y="295.316" width="2.41195" height="2.41195" transform="rotate(30 235.672 295.316)" fill="#03709B"/>
<rect x="242.132" y="295.703" width="2.41195" height="2.41195" transform="rotate(30 242.132 295.703)" fill="#03709B"/>
<rect x="240.685" y="298.21" width="2.41195" height="2.41195" transform="rotate(30 240.685 298.21)" fill="#03709B"/>
<rect x="239.626" y="294.256" width="2.41195" height="2.41195" transform="rotate(30 239.626 294.256)" fill="#03709B"/>
<rect x="238.178" y="296.763" width="2.41195" height="2.41195" transform="rotate(30 238.178 296.763)" fill="#03709B"/>
<rect x="234.119" y="298.005" width="2.41195" height="2.41195" transform="rotate(30 234.119 298.005)" fill="#03709B"/>
<rect x="239.132" y="300.9" width="2.41195" height="2.41195" transform="rotate(30 239.132 300.9)" fill="#03709B"/>
<rect x="236.626" y="299.452" width="2.41195" height="2.41195" transform="rotate(30 236.626 299.452)" fill="#03709B"/>
<rect x="244.907" y="297.306" width="2.41195" height="2.41195" transform="rotate(30 244.907 297.306)" fill="#03709B"/>
<rect x="243.46" y="299.812" width="2.41195" height="2.41195" transform="rotate(30 243.46 299.812)" fill="#03709B"/>
<rect x="249.92" y="300.2" width="2.41195" height="2.41195" transform="rotate(30 249.92 300.2)" fill="#03709B"/>
<rect x="248.473" y="302.706" width="2.41195" height="2.41195" transform="rotate(30 248.473 302.706)" fill="#03709B"/>
<rect x="247.414" y="298.753" width="2.41195" height="2.41195" transform="rotate(30 247.414 298.753)" fill="#03709B"/>
<rect x="245.967" y="301.259" width="2.41195" height="2.41195" transform="rotate(30 245.967 301.259)" fill="#03709B"/>
<rect x="241.907" y="302.502" width="2.41195" height="2.41195" transform="rotate(30 241.907 302.502)" fill="#03709B"/>
<rect x="246.92" y="305.396" width="2.41195" height="2.41195" transform="rotate(30 246.92 305.396)" fill="#03709B"/>
<rect x="244.414" y="303.949" width="2.41195" height="2.41195" transform="rotate(30 244.414 303.949)" fill="#03709B"/>
<line x1="400.71" y1="267.495" x2="400.71" y2="278.495" stroke="black" stroke-width="2"/>
<rect x="396.866" y="255.366" width="20" height="13" transform="rotate(30 396.866 255.366)" fill="#333837" stroke="black" stroke-width="2"/>
<rect x="397.119" y="257.809" width="2.41195" height="2.41195" transform="rotate(30 397.119 257.809)" fill="#03709B"/>
<rect x="395.672" y="260.316" width="2.41195" height="2.41195" transform="rotate(30 395.672 260.316)" fill="#03709B"/>
<rect x="402.132" y="260.703" width="2.41195" height="2.41195" transform="rotate(30 402.132 260.703)" fill="#03709B"/>
<rect x="400.685" y="263.21" width="2.41195" height="2.41195" transform="rotate(30 400.685 263.21)" fill="#03709B"/>
<rect x="399.626" y="259.256" width="2.41195" height="2.41195" transform="rotate(30 399.626 259.256)" fill="#03709B"/>
<rect x="398.178" y="261.763" width="2.41195" height="2.41195" transform="rotate(30 398.178 261.763)" fill="#03709B"/>
<rect x="394.119" y="263.005" width="2.41195" height="2.41195" transform="rotate(30 394.119 263.005)" fill="#03709B"/>
<rect x="399.132" y="265.9" width="2.41195" height="2.41195" transform="rotate(30 399.132 265.9)" fill="#03709B"/>
<rect x="396.626" y="264.452" width="2.41195" height="2.41195" transform="rotate(30 396.626 264.452)" fill="#03709B"/>
<rect x="404.907" y="262.306" width="2.41195" height="2.41195" transform="rotate(30 404.907 262.306)" fill="#03709B"/>
<rect x="403.46" y="264.812" width="2.41195" height="2.41195" transform="rotate(30 403.46 264.812)" fill="#03709B"/>
<rect x="409.92" y="265.2" width="2.41195" height="2.41195" transform="rotate(30 409.92 265.2)" fill="#03709B"/>
<rect x="408.473" y="267.706" width="2.41195" height="2.41195" transform="rotate(30 408.473 267.706)" fill="#03709B"/>
<rect x="407.414" y="263.753" width="2.41195" height="2.41195" transform="rotate(30 407.414 263.753)" fill="#03709B"/>
<rect x="405.967" y="266.259" width="2.41195" height="2.41195" transform="rotate(30 405.967 266.259)" fill="#03709B"/>
<rect x="401.907" y="267.502" width="2.41195" height="2.41195" transform="rotate(30 401.907 267.502)" fill="#03709B"/>
<rect x="406.92" y="270.396" width="2.41195" height="2.41195" transform="rotate(30 406.92 270.396)" fill="#03709B"/>
<rect x="404.414" y="268.949" width="2.41195" height="2.41195" transform="rotate(30 404.414 268.949)" fill="#03709B"/>
<line x1="183.71" y1="304.495" x2="183.71" y2="315.495" stroke="black" stroke-width="2"/>
<rect x="179.866" y="292.366" width="20" height="13" transform="rotate(30 179.866 292.366)" fill="#333837" stroke="black" stroke-width="2"/>
<rect x="180.119" y="294.809" width="2.41195" height="2.41195" transform="rotate(30 180.119 294.809)" fill="#03709B"/>
<rect x="178.672" y="297.316" width="2.41195" height="2.41195" transform="rotate(30 178.672 297.316)" fill="#03709B"/>
<rect x="185.132" y="297.703" width="2.41195" height="2.41195" transform="rotate(30 185.132 297.703)" fill="#03709B"/>
<rect x="183.685" y="300.21" width="2.41195" height="2.41195" transform="rotate(30 183.685 300.21)" fill="#03709B"/>
<rect x="182.626" y="296.256" width="2.41195" height="2.41195" transform="rotate(30 182.626 296.256)" fill="#03709B"/>
<rect x="181.178" y="298.763" width="2.41195" height="2.41195" transform="rotate(30 181.178 298.763)" fill="#03709B"/>
<rect x="177.119" y="300.005" width="2.41195" height="2.41195" transform="rotate(30 177.119 300.005)" fill="#03709B"/>
<rect x="182.132" y="302.9" width="2.41195" height="2.41195" transform="rotate(30 182.132 302.9)" fill="#03709B"/>
<rect x="179.626" y="301.452" width="2.41195" height="2.41195" transform="rotate(30 179.626 301.452)" fill="#03709B"/>
<rect x="187.907" y="299.306" width="2.41195" height="2.41195" transform="rotate(30 187.907 299.306)" fill="#03709B"/>
<rect x="186.46" y="301.812" width="2.41195" height="2.41195" transform="rotate(30 186.46 301.812)" fill="#03709B"/>
<rect x="192.92" y="302.2" width="2.41195" height="2.41195" transform="rotate(30 192.92 302.2)" fill="#03709B"/>
<rect x="191.473" y="304.706" width="2.41195" height="2.41195" transform="rotate(30 191.473 304.706)" fill="#03709B"/>
<rect x="190.414" y="300.753" width="2.41195" height="2.41195" transform="rotate(30 190.414 300.753)" fill="#03709B"/>
<rect x="188.967" y="303.259" width="2.41195" height="2.41195" transform="rotate(30 188.967 303.259)" fill="#03709B"/>
<rect x="184.907" y="304.502" width="2.41195" height="2.41195" transform="rotate(30 184.907 304.502)" fill="#03709B"/>
<rect x="189.92" y="307.396" width="2.41195" height="2.41195" transform="rotate(30 189.92 307.396)" fill="#03709B"/>
<rect x="187.414" y="305.949" width="2.41195" height="2.41195" transform="rotate(30 187.414 305.949)" fill="#03709B"/>
<line x1="343.71" y1="269.495" x2="343.71" y2="280.495" stroke="black" stroke-width="2"/>
<rect x="339.866" y="257.366" width="20" height="13" transform="rotate(30 339.866 257.366)" fill="#333837" stroke="black" stroke-width="2"/>
<rect x="340.119" y="259.809" width="2.41195" height="2.41195" transform="rotate(30 340.119 259.809)" fill="#03709B"/>
<rect x="338.672" y="262.316" width="2.41195" height="2.41195" transform="rotate(30 338.672 262.316)" fill="#03709B"/>
<rect x="345.132" y="262.703" width="2.41195" height="2.41195" transform="rotate(30 345.132 262.703)" fill="#03709B"/>
<rect x="343.685" y="265.21" width="2.41195" height="2.41195" transform="rotate(30 343.685 265.21)" fill="#03709B"/>
<rect x="342.626" y="261.256" width="2.41195" height="2.41195" transform="rotate(30 342.626 261.256)" fill="#03709B"/>
<rect x="341.178" y="263.763" width="2.41195" height="2.41195" transform="rotate(30 341.178 263.763)" fill="#03709B"/>
<rect x="337.119" y="265.005" width="2.41195" height="2.41195" transform="rotate(30 337.119 265.005)" fill="#03709B"/>
<rect x="342.132" y="267.9" width="2.41195" height="2.41195" transform="rotate(30 342.132 267.9)" fill="#03709B"/>
<rect x="339.626" y="266.452" width="2.41195" height="2.41195" transform="rotate(30 339.626 266.452)" fill="#03709B"/>
<rect x="347.907" y="264.306" width="2.41195" height="2.41195" transform="rotate(30 347.907 264.306)" fill="#03709B"/>
<rect x="346.46" y="266.812" width="2.41195" height="2.41195" transform="rotate(30 346.46 266.812)" fill="#03709B"/>
<rect x="352.92" y="267.2" width="2.41195" height="2.41195" transform="rotate(30 352.92 267.2)" fill="#03709B"/>
<rect x="351.473" y="269.706" width="2.41195" height="2.41195" transform="rotate(30 351.473 269.706)" fill="#03709B"/>
<rect x="350.414" y="265.753" width="2.41195" height="2.41195" transform="rotate(30 350.414 265.753)" fill="#03709B"/>
<rect x="348.967" y="268.259" width="2.41195" height="2.41195" transform="rotate(30 348.967 268.259)" fill="#03709B"/>
<rect x="344.907" y="269.502" width="2.41195" height="2.41195" transform="rotate(30 344.907 269.502)" fill="#03709B"/>
<rect x="349.92" y="272.396" width="2.41195" height="2.41195" transform="rotate(30 349.92 272.396)" fill="#03709B"/>
<rect x="347.414" y="270.949" width="2.41195" height="2.41195" transform="rotate(30 347.414 270.949)" fill="#03709B"/>
<line x1="260.71" y1="289.495" x2="260.71" y2="300.495" stroke="black" stroke-width="2"/>
<rect x="256.866" y="277.366" width="20" height="13" transform="rotate(30 256.866 277.366)" fill="#333837" stroke="black" stroke-width="2"/>
<rect x="257.119" y="279.809" width="2.41195" height="2.41195" transform="rotate(30 257.119 279.809)" fill="#03709B"/>
<rect x="255.672" y="282.316" width="2.41195" height="2.41195" transform="rotate(30 255.672 282.316)" fill="#03709B"/>
<rect x="262.132" y="282.703" width="2.41195" height="2.41195" transform="rotate(30 262.132 282.703)" fill="#03709B"/>
<rect x="260.685" y="285.21" width="2.41195" height="2.41195" transform="rotate(30 260.685 285.21)" fill="#03709B"/>
<rect x="259.626" y="281.256" width="2.41195" height="2.41195" transform="rotate(30 259.626 281.256)" fill="#03709B"/>
<rect x="258.178" y="283.763" width="2.41195" height="2.41195" transform="rotate(30 258.178 283.763)" fill="#03709B"/>
<rect x="254.119" y="285.005" width="2.41195" height="2.41195" transform="rotate(30 254.119 285.005)" fill="#03709B"/>
<rect x="259.132" y="287.9" width="2.41195" height="2.41195" transform="rotate(30 259.132 287.9)" fill="#03709B"/>
<rect x="256.626" y="286.452" width="2.41195" height="2.41195" transform="rotate(30 256.626 286.452)" fill="#03709B"/>
<rect x="264.907" y="284.306" width="2.41195" height="2.41195" transform="rotate(30 264.907 284.306)" fill="#03709B"/>
<rect x="263.46" y="286.812" width="2.41195" height="2.41195" transform="rotate(30 263.46 286.812)" fill="#03709B"/>
<rect x="269.92" y="287.2" width="2.41195" height="2.41195" transform="rotate(30 269.92 287.2)" fill="#03709B"/>
<rect x="268.473" y="289.706" width="2.41195" height="2.41195" transform="rotate(30 268.473 289.706)" fill="#03709B"/>
<rect x="267.414" y="285.753" width="2.41195" height="2.41195" transform="rotate(30 267.414 285.753)" fill="#03709B"/>
<rect x="265.967" y="288.259" width="2.41195" height="2.41195" transform="rotate(30 265.967 288.259)" fill="#03709B"/>
<rect x="261.907" y="289.502" width="2.41195" height="2.41195" transform="rotate(30 261.907 289.502)" fill="#03709B"/>
<rect x="266.92" y="292.396" width="2.41195" height="2.41195" transform="rotate(30 266.92 292.396)" fill="#03709B"/>
<rect x="264.414" y="290.949" width="2.41195" height="2.41195" transform="rotate(30 264.414 290.949)" fill="#03709B"/>
<line x1="420.71" y1="254.495" x2="420.71" y2="265.495" stroke="black" stroke-width="2"/>
<rect x="416.866" y="242.366" width="20" height="13" transform="rotate(30 416.866 242.366)" fill="#333837" stroke="black" stroke-width="2"/>
<rect x="417.119" y="244.809" width="2.41195" height="2.41195" transform="rotate(30 417.119 244.809)" fill="#03709B"/>
<rect x="415.672" y="247.316" width="2.41195" height="2.41195" transform="rotate(30 415.672 247.316)" fill="#03709B"/>
<rect x="422.132" y="247.703" width="2.41195" height="2.41195" transform="rotate(30 422.132 247.703)" fill="#03709B"/>
<rect x="420.685" y="250.21" width="2.41195" height="2.41195" transform="rotate(30 420.685 250.21)" fill="#03709B"/>
<rect x="419.626" y="246.256" width="2.41195" height="2.41195" transform="rotate(30 419.626 246.256)" fill="#03709B"/>
<rect x="418.178" y="248.763" width="2.41195" height="2.41195" transform="rotate(30 418.178 248.763)" fill="#03709B"/>
<rect x="414.119" y="250.005" width="2.41195" height="2.41195" transform="rotate(30 414.119 250.005)" fill="#03709B"/>
<rect x="419.132" y="252.9" width="2.41195" height="2.41195" transform="rotate(30 419.132 252.9)" fill="#03709B"/>
<rect x="416.626" y="251.452" width="2.41195" height="2.41195" transform="rotate(30 416.626 251.452)" fill="#03709B"/>
<rect x="424.907" y="249.306" width="2.41195" height="2.41195" transform="rotate(30 424.907 249.306)" fill="#03709B"/>
<rect x="423.46" y="251.812" width="2.41195" height="2.41195" transform="rotate(30 423.46 251.812)" fill="#03709B"/>
<rect x="429.92" y="252.2" width="2.41195" height="2.41195" transform="rotate(30 429.92 252.2)" fill="#03709B"/>
<rect x="428.473" y="254.706" width="2.41195" height="2.41195" transform="rotate(30 428.473 254.706)" fill="#03709B"/>
<rect x="427.414" y="250.753" width="2.41195" height="2.41195" transform="rotate(30 427.414 250.753)" fill="#03709B"/>
<rect x="425.967" y="253.259" width="2.41195" height="2.41195" transform="rotate(30 425.967 253.259)" fill="#03709B"/>
<rect x="421.907" y="254.502" width="2.41195" height="2.41195" transform="rotate(30 421.907 254.502)" fill="#03709B"/>
<rect x="426.92" y="257.396" width="2.41195" height="2.41195" transform="rotate(30 426.92 257.396)" fill="#03709B"/>
<rect x="424.414" y="255.949" width="2.41195" height="2.41195" transform="rotate(30 424.414 255.949)" fill="#03709B"/>
<line x1="388.71" y1="317.495" x2="388.71" y2="328.495" stroke="black" stroke-width="2"/>
<rect x="384.866" y="305.366" width="20" height="13" transform="rotate(30 384.866 305.366)" fill="#333837" stroke="black" stroke-width="2"/>
<rect x="385.119" y="307.809" width="2.41195" height="2.41195" transform="rotate(30 385.119 307.809)" fill="#03709B"/>
<rect x="383.672" y="310.316" width="2.41195" height="2.41195" transform="rotate(30 383.672 310.316)" fill="#03709B"/>
<rect x="390.132" y="310.703" width="2.41195" height="2.41195" transform="rotate(30 390.132 310.703)" fill="#03709B"/>
<rect x="388.685" y="313.21" width="2.41195" height="2.41195" transform="rotate(30 388.685 313.21)" fill="#03709B"/>
<rect x="387.626" y="309.256" width="2.41195" height="2.41195" transform="rotate(30 387.626 309.256)" fill="#03709B"/>
<rect x="386.178" y="311.763" width="2.41195" height="2.41195" transform="rotate(30 386.178 311.763)" fill="#03709B"/>
<rect x="382.119" y="313.005" width="2.41195" height="2.41195" transform="rotate(30 382.119 313.005)" fill="#03709B"/>
<rect x="387.132" y="315.9" width="2.41195" height="2.41195" transform="rotate(30 387.132 315.9)" fill="#03709B"/>
<rect x="384.626" y="314.452" width="2.41195" height="2.41195" transform="rotate(30 384.626 314.452)" fill="#03709B"/>
<rect x="392.907" y="312.306" width="2.41195" height="2.41195" transform="rotate(30 392.907 312.306)" fill="#03709B"/>
<rect x="391.46" y="314.812" width="2.41195" height="2.41195" transform="rotate(30 391.46 314.812)" fill="#03709B"/>
<rect x="397.92" y="315.2" width="2.41195" height="2.41195" transform="rotate(30 397.92 315.2)" fill="#03709B"/>
<rect x="396.473" y="317.706" width="2.41195" height="2.41195" transform="rotate(30 396.473 317.706)" fill="#03709B"/>
<rect x="395.414" y="313.753" width="2.41195" height="2.41195" transform="rotate(30 395.414 313.753)" fill="#03709B"/>
<rect x="393.967" y="316.259" width="2.41195" height="2.41195" transform="rotate(30 393.967 316.259)" fill="#03709B"/>
<rect x="389.907" y="317.502" width="2.41195" height="2.41195" transform="rotate(30 389.907 317.502)" fill="#03709B"/>
<rect x="394.92" y="320.396" width="2.41195" height="2.41195" transform="rotate(30 394.92 320.396)" fill="#03709B"/>
<rect x="392.414" y="318.949" width="2.41195" height="2.41195" transform="rotate(30 392.414 318.949)" fill="#03709B"/>
<line x1="177.71" y1="278.495" x2="177.71" y2="289.495" stroke="black" stroke-width="2"/>
<rect x="173.866" y="266.366" width="20" height="13" transform="rotate(30 173.866 266.366)" fill="#333837" stroke="black" stroke-width="2"/>
<rect x="174.119" y="268.809" width="2.41195" height="2.41195" transform="rotate(30 174.119 268.809)" fill="#03709B"/>
<rect x="172.672" y="271.316" width="2.41195" height="2.41195" transform="rotate(30 172.672 271.316)" fill="#03709B"/>
<rect x="179.132" y="271.703" width="2.41195" height="2.41195" transform="rotate(30 179.132 271.703)" fill="#03709B"/>
<rect x="177.685" y="274.21" width="2.41195" height="2.41195" transform="rotate(30 177.685 274.21)" fill="#03709B"/>
<rect x="176.626" y="270.256" width="2.41195" height="2.41195" transform="rotate(30 176.626 270.256)" fill="#03709B"/>
<rect x="175.178" y="272.763" width="2.41195" height="2.41195" transform="rotate(30 175.178 272.763)" fill="#03709B"/>
<rect x="171.119" y="274.005" width="2.41195" height="2.41195" transform="rotate(30 171.119 274.005)" fill="#03709B"/>
<rect x="176.132" y="276.9" width="2.41195" height="2.41195" transform="rotate(30 176.132 276.9)" fill="#03709B"/>
<rect x="173.626" y="275.452" width="2.41195" height="2.41195" transform="rotate(30 173.626 275.452)" fill="#03709B"/>
<rect x="181.907" y="273.306" width="2.41195" height="2.41195" transform="rotate(30 181.907 273.306)" fill="#03709B"/>
<rect x="180.46" y="275.812" width="2.41195" height="2.41195" transform="rotate(30 180.46 275.812)" fill="#03709B"/>
<rect x="186.92" y="276.2" width="2.41195" height="2.41195" transform="rotate(30 186.92 276.2)" fill="#03709B"/>
<rect x="185.473" y="278.706" width="2.41195" height="2.41195" transform="rotate(30 185.473 278.706)" fill="#03709B"/>
<rect x="184.414" y="274.753" width="2.41195" height="2.41195" transform="rotate(30 184.414 274.753)" fill="#03709B"/>
<rect x="182.967" y="277.259" width="2.41195" height="2.41195" transform="rotate(30 182.967 277.259)" fill="#03709B"/>
<rect x="178.907" y="278.502" width="2.41195" height="2.41195" transform="rotate(30 178.907 278.502)" fill="#03709B"/>
<rect x="183.92" y="281.396" width="2.41195" height="2.41195" transform="rotate(30 183.92 281.396)" fill="#03709B"/>
<rect x="181.414" y="279.949" width="2.41195" height="2.41195" transform="rotate(30 181.414 279.949)" fill="#03709B"/>
<line x1="337.71" y1="243.495" x2="337.71" y2="254.495" stroke="black" stroke-width="2"/>
<rect x="333.866" y="231.366" width="20" height="13" transform="rotate(30 333.866 231.366)" fill="#333837" stroke="black" stroke-width="2"/>
<rect x="334.119" y="233.809" width="2.41195" height="2.41195" transform="rotate(30 334.119 233.809)" fill="#03709B"/>
<rect x="332.672" y="236.316" width="2.41195" height="2.41195" transform="rotate(30 332.672 236.316)" fill="#03709B"/>
<rect x="339.132" y="236.703" width="2.41195" height="2.41195" transform="rotate(30 339.132 236.703)" fill="#03709B"/>
<rect x="337.685" y="239.21" width="2.41195" height="2.41195" transform="rotate(30 337.685 239.21)" fill="#03709B"/>
<rect x="336.626" y="235.256" width="2.41195" height="2.41195" transform="rotate(30 336.626 235.256)" fill="#03709B"/>
<rect x="335.178" y="237.763" width="2.41195" height="2.41195" transform="rotate(30 335.178 237.763)" fill="#03709B"/>
<rect x="331.119" y="239.005" width="2.41195" height="2.41195" transform="rotate(30 331.119 239.005)" fill="#03709B"/>
<rect x="336.132" y="241.9" width="2.41195" height="2.41195" transform="rotate(30 336.132 241.9)" fill="#03709B"/>
<rect x="333.626" y="240.452" width="2.41195" height="2.41195" transform="rotate(30 333.626 240.452)" fill="#03709B"/>
<rect x="341.907" y="238.306" width="2.41195" height="2.41195" transform="rotate(30 341.907 238.306)" fill="#03709B"/>
<rect x="340.46" y="240.812" width="2.41195" height="2.41195" transform="rotate(30 340.46 240.812)" fill="#03709B"/>
<rect x="346.92" y="241.2" width="2.41195" height="2.41195" transform="rotate(30 346.92 241.2)" fill="#03709B"/>
<rect x="345.473" y="243.706" width="2.41195" height="2.41195" transform="rotate(30 345.473 243.706)" fill="#03709B"/>
<rect x="344.414" y="239.753" width="2.41195" height="2.41195" transform="rotate(30 344.414 239.753)" fill="#03709B"/>
<rect x="342.967" y="242.259" width="2.41195" height="2.41195" transform="rotate(30 342.967 242.259)" fill="#03709B"/>
<rect x="338.907" y="243.502" width="2.41195" height="2.41195" transform="rotate(30 338.907 243.502)" fill="#03709B"/>
<rect x="343.92" y="246.396" width="2.41195" height="2.41195" transform="rotate(30 343.92 246.396)" fill="#03709B"/>
<rect x="341.414" y="244.949" width="2.41195" height="2.41195" transform="rotate(30 341.414 244.949)" fill="#03709B"/>
<line x1="305.71" y1="306.495" x2="305.71" y2="317.495" stroke="black" stroke-width="2"/>
<rect x="301.866" y="294.366" width="20" height="13" transform="rotate(30 301.866 294.366)" fill="#333837" stroke="black" stroke-width="2"/>
<rect x="302.119" y="296.809" width="2.41195" height="2.41195" transform="rotate(30 302.119 296.809)" fill="#03709B"/>
<rect x="300.672" y="299.316" width="2.41195" height="2.41195" transform="rotate(30 300.672 299.316)" fill="#03709B"/>
<rect x="307.132" y="299.703" width="2.41195" height="2.41195" transform="rotate(30 307.132 299.703)" fill="#03709B"/>
<rect x="305.685" y="302.21" width="2.41195" height="2.41195" transform="rotate(30 305.685 302.21)" fill="#03709B"/>
<rect x="304.626" y="298.256" width="2.41195" height="2.41195" transform="rotate(30 304.626 298.256)" fill="#03709B"/>
<rect x="303.178" y="300.763" width="2.41195" height="2.41195" transform="rotate(30 303.178 300.763)" fill="#03709B"/>
<rect x="299.119" y="302.005" width="2.41195" height="2.41195" transform="rotate(30 299.119 302.005)" fill="#03709B"/>
<rect x="304.132" y="304.9" width="2.41195" height="2.41195" transform="rotate(30 304.132 304.9)" fill="#03709B"/>
<rect x="301.626" y="303.452" width="2.41195" height="2.41195" transform="rotate(30 301.626 303.452)" fill="#03709B"/>
<rect x="309.907" y="301.306" width="2.41195" height="2.41195" transform="rotate(30 309.907 301.306)" fill="#03709B"/>
<rect x="308.46" y="303.812" width="2.41195" height="2.41195" transform="rotate(30 308.46 303.812)" fill="#03709B"/>
<rect x="314.92" y="304.2" width="2.41195" height="2.41195" transform="rotate(30 314.92 304.2)" fill="#03709B"/>
<rect x="313.473" y="306.706" width="2.41195" height="2.41195" transform="rotate(30 313.473 306.706)" fill="#03709B"/>
<rect x="312.414" y="302.753" width="2.41195" height="2.41195" transform="rotate(30 312.414 302.753)" fill="#03709B"/>
<rect x="310.967" y="305.259" width="2.41195" height="2.41195" transform="rotate(30 310.967 305.259)" fill="#03709B"/>
<rect x="306.907" y="306.502" width="2.41195" height="2.41195" transform="rotate(30 306.907 306.502)" fill="#03709B"/>
<rect x="311.92" y="309.396" width="2.41195" height="2.41195" transform="rotate(30 311.92 309.396)" fill="#03709B"/>
<rect x="309.414" y="307.949" width="2.41195" height="2.41195" transform="rotate(30 309.414 307.949)" fill="#03709B"/>
<line x1="254.71" y1="263.495" x2="254.71" y2="274.495" stroke="black" stroke-width="2"/>
<rect x="250.866" y="251.366" width="20" height="13" transform="rotate(30 250.866 251.366)" fill="#333837" stroke="black" stroke-width="2"/>
<rect x="251.119" y="253.809" width="2.41195" height="2.41195" transform="rotate(30 251.119 253.809)" fill="#03709B"/>
<rect x="249.672" y="256.316" width="2.41195" height="2.41195" transform="rotate(30 249.672 256.316)" fill="#03709B"/>
<rect x="256.132" y="256.703" width="2.41195" height="2.41195" transform="rotate(30 256.132 256.703)" fill="#03709B"/>
<rect x="254.685" y="259.21" width="2.41195" height="2.41195" transform="rotate(30 254.685 259.21)" fill="#03709B"/>
<rect x="253.626" y="255.256" width="2.41195" height="2.41195" transform="rotate(30 253.626 255.256)" fill="#03709B"/>
<rect x="252.178" y="257.763" width="2.41195" height="2.41195" transform="rotate(30 252.178 257.763)" fill="#03709B"/>
<rect x="248.119" y="259.005" width="2.41195" height="2.41195" transform="rotate(30 248.119 259.005)" fill="#03709B"/>
<rect x="253.132" y="261.9" width="2.41195" height="2.41195" transform="rotate(30 253.132 261.9)" fill="#03709B"/>
<rect x="250.626" y="260.452" width="2.41195" height="2.41195" transform="rotate(30 250.626 260.452)" fill="#03709B"/>
<rect x="258.907" y="258.306" width="2.41195" height="2.41195" transform="rotate(30 258.907 258.306)" fill="#03709B"/>
<rect x="257.46" y="260.812" width="2.41195" height="2.41195" transform="rotate(30 257.46 260.812)" fill="#03709B"/>
<rect x="263.92" y="261.2" width="2.41195" height="2.41195" transform="rotate(30 263.92 261.2)" fill="#03709B"/>
<rect x="262.473" y="263.706" width="2.41195" height="2.41195" transform="rotate(30 262.473 263.706)" fill="#03709B"/>
<rect x="261.414" y="259.753" width="2.41195" height="2.41195" transform="rotate(30 261.414 259.753)" fill="#03709B"/>
<rect x="259.967" y="262.259" width="2.41195" height="2.41195" transform="rotate(30 259.967 262.259)" fill="#03709B"/>
<rect x="255.907" y="263.502" width="2.41195" height="2.41195" transform="rotate(30 255.907 263.502)" fill="#03709B"/>
<rect x="260.92" y="266.396" width="2.41195" height="2.41195" transform="rotate(30 260.92 266.396)" fill="#03709B"/>
<rect x="258.414" y="264.949" width="2.41195" height="2.41195" transform="rotate(30 258.414 264.949)" fill="#03709B"/>
<line x1="414.71" y1="228.495" x2="414.71" y2="239.495" stroke="black" stroke-width="2"/>
<rect x="410.866" y="216.366" width="20" height="13" transform="rotate(30 410.866 216.366)" fill="#333837" stroke="black" stroke-width="2"/>
<rect x="411.119" y="218.809" width="2.41195" height="2.41195" transform="rotate(30 411.119 218.809)" fill="#03709B"/>
<rect x="409.672" y="221.316" width="2.41195" height="2.41195" transform="rotate(30 409.672 221.316)" fill="#03709B"/>
<rect x="416.132" y="221.703" width="2.41195" height="2.41195" transform="rotate(30 416.132 221.703)" fill="#03709B"/>
<rect x="414.685" y="224.21" width="2.41195" height="2.41195" transform="rotate(30 414.685 224.21)" fill="#03709B"/>
<rect x="413.626" y="220.256" width="2.41195" height="2.41195" transform="rotate(30 413.626 220.256)" fill="#03709B"/>
<rect x="412.178" y="222.763" width="2.41195" height="2.41195" transform="rotate(30 412.178 222.763)" fill="#03709B"/>
<rect x="408.119" y="224.005" width="2.41195" height="2.41195" transform="rotate(30 408.119 224.005)" fill="#03709B"/>
<rect x="413.132" y="226.9" width="2.41195" height="2.41195" transform="rotate(30 413.132 226.9)" fill="#03709B"/>
<rect x="410.626" y="225.452" width="2.41195" height="2.41195" transform="rotate(30 410.626 225.452)" fill="#03709B"/>
<rect x="418.907" y="223.306" width="2.41195" height="2.41195" transform="rotate(30 418.907 223.306)" fill="#03709B"/>
<rect x="417.46" y="225.812" width="2.41195" height="2.41195" transform="rotate(30 417.46 225.812)" fill="#03709B"/>
<rect x="423.92" y="226.2" width="2.41195" height="2.41195" transform="rotate(30 423.92 226.2)" fill="#03709B"/>
<rect x="422.473" y="228.706" width="2.41195" height="2.41195" transform="rotate(30 422.473 228.706)" fill="#03709B"/>
<rect x="421.414" y="224.753" width="2.41195" height="2.41195" transform="rotate(30 421.414 224.753)" fill="#03709B"/>
<rect x="419.967" y="227.259" width="2.41195" height="2.41195" transform="rotate(30 419.967 227.259)" fill="#03709B"/>
<rect x="415.907" y="228.502" width="2.41195" height="2.41195" transform="rotate(30 415.907 228.502)" fill="#03709B"/>
<rect x="420.92" y="231.396" width="2.41195" height="2.41195" transform="rotate(30 420.92 231.396)" fill="#03709B"/>
<rect x="418.414" y="229.949" width="2.41195" height="2.41195" transform="rotate(30 418.414 229.949)" fill="#03709B"/>
<line x1="382.71" y1="291.495" x2="382.71" y2="302.495" stroke="black" stroke-width="2"/>
<rect x="378.866" y="279.366" width="20" height="13" transform="rotate(30 378.866 279.366)" fill="#333837" stroke="black" stroke-width="2"/>
<rect x="379.119" y="281.809" width="2.41195" height="2.41195" transform="rotate(30 379.119 281.809)" fill="#03709B"/>
<rect x="377.672" y="284.316" width="2.41195" height="2.41195" transform="rotate(30 377.672 284.316)" fill="#03709B"/>
<rect x="384.132" y="284.703" width="2.41195" height="2.41195" transform="rotate(30 384.132 284.703)" fill="#03709B"/>
<rect x="382.685" y="287.21" width="2.41195" height="2.41195" transform="rotate(30 382.685 287.21)" fill="#03709B"/>
<rect x="381.626" y="283.256" width="2.41195" height="2.41195" transform="rotate(30 381.626 283.256)" fill="#03709B"/>
<rect x="380.178" y="285.763" width="2.41195" height="2.41195" transform="rotate(30 380.178 285.763)" fill="#03709B"/>
<rect x="376.119" y="287.005" width="2.41195" height="2.41195" transform="rotate(30 376.119 287.005)" fill="#03709B"/>
<rect x="381.132" y="289.9" width="2.41195" height="2.41195" transform="rotate(30 381.132 289.9)" fill="#03709B"/>
<rect x="378.626" y="288.452" width="2.41195" height="2.41195" transform="rotate(30 378.626 288.452)" fill="#03709B"/>
<rect x="386.907" y="286.306" width="2.41195" height="2.41195" transform="rotate(30 386.907 286.306)" fill="#03709B"/>
<rect x="385.46" y="288.812" width="2.41195" height="2.41195" transform="rotate(30 385.46 288.812)" fill="#03709B"/>
<rect x="391.92" y="289.2" width="2.41195" height="2.41195" transform="rotate(30 391.92 289.2)" fill="#03709B"/>
<rect x="390.473" y="291.706" width="2.41195" height="2.41195" transform="rotate(30 390.473 291.706)" fill="#03709B"/>
<rect x="389.414" y="287.753" width="2.41195" height="2.41195" transform="rotate(30 389.414 287.753)" fill="#03709B"/>
<rect x="387.967" y="290.259" width="2.41195" height="2.41195" transform="rotate(30 387.967 290.259)" fill="#03709B"/>
<rect x="383.907" y="291.502" width="2.41195" height="2.41195" transform="rotate(30 383.907 291.502)" fill="#03709B"/>
<rect x="388.92" y="294.396" width="2.41195" height="2.41195" transform="rotate(30 388.92 294.396)" fill="#03709B"/>
<rect x="386.414" y="292.949" width="2.41195" height="2.41195" transform="rotate(30 386.414 292.949)" fill="#03709B"/>
<line x1="228.71" y1="318.495" x2="228.71" y2="329.495" stroke="black" stroke-width="2"/>
<rect x="224.866" y="306.366" width="20" height="13" transform="rotate(30 224.866 306.366)" fill="#333837" stroke="black" stroke-width="2"/>
<rect x="225.119" y="308.809" width="2.41195" height="2.41195" transform="rotate(30 225.119 308.809)" fill="#03709B"/>
<rect x="223.672" y="311.316" width="2.41195" height="2.41195" transform="rotate(30 223.672 311.316)" fill="#03709B"/>
<rect x="230.132" y="311.703" width="2.41195" height="2.41195" transform="rotate(30 230.132 311.703)" fill="#03709B"/>
<rect x="228.685" y="314.21" width="2.41195" height="2.41195" transform="rotate(30 228.685 314.21)" fill="#03709B"/>
<rect x="227.626" y="310.256" width="2.41195" height="2.41195" transform="rotate(30 227.626 310.256)" fill="#03709B"/>
<rect x="226.178" y="312.763" width="2.41195" height="2.41195" transform="rotate(30 226.178 312.763)" fill="#03709B"/>
<rect x="222.119" y="314.005" width="2.41195" height="2.41195" transform="rotate(30 222.119 314.005)" fill="#03709B"/>
<rect x="227.132" y="316.9" width="2.41195" height="2.41195" transform="rotate(30 227.132 316.9)" fill="#03709B"/>
<rect x="224.626" y="315.452" width="2.41195" height="2.41195" transform="rotate(30 224.626 315.452)" fill="#03709B"/>
<rect x="232.907" y="313.306" width="2.41195" height="2.41195" transform="rotate(30 232.907 313.306)" fill="#03709B"/>
<rect x="231.46" y="315.812" width="2.41195" height="2.41195" transform="rotate(30 231.46 315.812)" fill="#03709B"/>
<rect x="237.92" y="316.2" width="2.41195" height="2.41195" transform="rotate(30 237.92 316.2)" fill="#03709B"/>
<rect x="236.473" y="318.706" width="2.41195" height="2.41195" transform="rotate(30 236.473 318.706)" fill="#03709B"/>
<rect x="235.414" y="314.753" width="2.41195" height="2.41195" transform="rotate(30 235.414 314.753)" fill="#03709B"/>
<rect x="233.967" y="317.259" width="2.41195" height="2.41195" transform="rotate(30 233.967 317.259)" fill="#03709B"/>
<rect x="229.907" y="318.502" width="2.41195" height="2.41195" transform="rotate(30 229.907 318.502)" fill="#03709B"/>
<rect x="234.92" y="321.396" width="2.41195" height="2.41195" transform="rotate(30 234.92 321.396)" fill="#03709B"/>
<rect x="232.414" y="319.949" width="2.41195" height="2.41195" transform="rotate(30 232.414 319.949)" fill="#03709B"/>
<defs>
<filter id="hill_filter0_d" x="501" y="0" width="960" height="355" filterUnits="userSpaceOnUse" color-interpolation-filters="sRGB">
<feFlood flood-opacity="0" result="BackgroundImageFix"/>
<feColorMatrix in="SourceAlpha" type="matrix" values="0 0 0 0 0 0 0 0 0 0 0 0 0 0 0 0 0 0 127 0"/>
<feOffset dx="5" dy="-2"/>
<feGaussianBlur stdDeviation="2"/>
<feColorMatrix type="matrix" values="0 0 0 0 0 0 0 0 0 0 0 0 0 0 0 0 0 0 0.03 0"/>
<feBlend mode="normal" in2="BackgroundImageFix" result="effect1_dropShadow"/>
<feBlend mode="normal" in="SourceGraphic" in2="effect1_dropShadow" result="shape"/>
</filter>
<filter id="hill_filter1_d" x="629" y="59" width="687" height="261" filterUnits="userSpaceOnUse" color-interpolation-filters="sRGB">
<feFlood flood-opacity="0" result="BackgroundImageFix"/>
<feColorMatrix in="SourceAlpha" type="matrix" values="0 0 0 0 0 0 0 0 0 0 0 0 0 0 0 0 0 0 127 0"/>
<feOffset dx="5" dy="-2"/>
<feGaussianBlur stdDeviation="2"/>
<feColorMatrix type="matrix" values="0 0 0 0 0 0 0 0 0 0 0 0 0 0 0 0 0 0 0.03 0"/>
<feBlend mode="normal" in2="BackgroundImageFix" result="effect1_dropShadow"/>
<feBlend mode="normal" in="SourceGraphic" in2="effect1_dropShadow" result="shape"/>
</filter>
<filter id="hill_filter2_d" x="-1" y="20" width="1415" height="335" filterUnits="userSpaceOnUse" color-interpolation-filters="sRGB">
<feFlood flood-opacity="0" result="BackgroundImageFix"/>
<feColorMatrix in="SourceAlpha" type="matrix" values="0 0 0 0 0 0 0 0 0 0 0 0 0 0 0 0 0 0 127 0"/>
<feOffset dx="5" dy="-2"/>
<feGaussianBlur stdDeviation="2"/>
<feColorMatrix type="matrix" values="0 0 0 0 0 0 0 0 0 0 0 0 0 0 0 0 0 0 0.03 0"/>
<feBlend mode="normal" in2="BackgroundImageFix" result="effect1_dropShadow"/>
<feBlend mode="normal" in="SourceGraphic" in2="effect1_dropShadow" result="shape"/>
</filter>
<linearGradient id="hill_paint0_linear" x1="976.5" y1="6" x2="976.5" y2="353" gradientUnits="userSpaceOnUse">
<stop stop-color="#03709B"/>
<stop offset="0.390625" stop-color="#03709B" stop-opacity="0.72"/>
<stop offset="0.671875" stop-color="#0D8276" stop-opacity="0.72"/>
<stop offset="1" stop-color="#D6D1CC" stop-opacity="0.47"/>
</linearGradient>
<linearGradient id="hill_paint1_linear" x1="1064.86" y1="65" x2="1064.86" y2="318" gradientUnits="userSpaceOnUse">
<stop stop-color="#6092A6"/>
<stop offset="0.6875" stop-color="#0D8276"/>
<stop offset="0.895833" stop-color="#C4C4C4" stop-opacity="0"/>
</linearGradient>
<linearGradient id="hill_paint2_linear" x1="719.154" y1="26" x2="719.154" y2="353" gradientUnits="userSpaceOnUse">
<stop offset="0.447917" stop-color="#0D8276"/>
<stop offset="1" stop-color="#D6D1CC"/>
</linearGradient>
</defs>
</svg>
