<svg aria-hidden="true" width="986" height="636" viewBox="0 0 986 636" fill="none"
    xmlns="http://www.w3.org/2000/svg">
    <mask id="mask0" mask-type="alpha" maskUnits="userSpaceOnUse" x="-4" y="-4" width="640" height="640">
        <circle cx="316" cy="316" r="316" fill="white" stroke="white" stroke-width="7"/>
    </mask>
    <g mask="url(#mask0)">
        <path d="M648.5 502.5C648.5 645.917 500.68 763.5 316.5 763.5C132.32 763.5 -15.5 645.917 -15.5 502.5C-15.5 359.084 132.32 241.5 316.5 241.5C500.68 241.5 648.5 359.084 648.5 502.5Z" stroke="var(--color-campfire-smoke)" stroke-width="7"/>
        <path d="M117.024 496.931C129.061 494.816 141.128 491.282 152.548 486.41C157.308 484.38 162.249 482.841 167.379 481.263L167.875 481.111C172.797 479.597 177.897 478.03 182.865 475.975C187.625 474.005 192.959 473.02 198.461 472.004C200.037 471.713 201.627 471.419 203.221 471.099C206.621 470.417 210.085 469.385 213.405 468.344C214.186 468.099 214.956 467.854 215.717 467.612C218.25 466.808 220.68 466.036 223.055 465.393C225.731 464.668 228.711 464.769 232.398 464.894L232.577 464.9C236.109 465.019 240.329 465.148 244.334 463.846C245.225 463.557 246.245 463.463 247.717 463.385C247.838 463.379 247.963 463.372 248.092 463.366C249.381 463.301 251.05 463.218 252.683 462.816C254.382 462.398 255.864 461.614 256.941 461.044L257.061 460.981C258.278 460.337 259.047 459.951 259.821 459.762C262.3 459.158 264.915 459.2 268.064 459.305C268.206 459.31 268.349 459.315 268.493 459.319C271.398 459.418 274.778 459.533 278.169 458.844C280.849 458.3 283.493 457.74 286.12 457.183C289.92 456.378 293.685 455.58 297.476 454.848C300.474 454.269 303.448 453.915 306.586 453.541C308.624 453.298 310.732 453.047 312.96 452.721C318.353 451.931 323.999 450.735 329.148 448.073C331.746 446.729 334.522 446.189 337.754 445.78C338.372 445.702 339.018 445.628 339.685 445.551C342.35 445.246 345.362 444.902 348.296 444.09C350.942 443.358 353.392 442.117 355.473 441.063C355.8 440.898 356.117 440.737 356.425 440.584C358.841 439.379 360.859 438.502 363.005 438.23C365.784 437.879 368.482 437.273 371.036 436.657C371.647 436.509 372.247 436.362 372.837 436.217C374.769 435.743 376.609 435.291 378.475 434.922C381.672 434.289 384.571 433.103 387.175 431.958C387.708 431.724 388.225 431.493 388.731 431.268C390.785 430.351 392.642 429.522 394.591 428.889C400.979 426.813 407.378 424.071 413.57 421.418C415.014 420.799 416.446 420.186 417.864 419.587C420.525 418.462 423.27 417.589 426.17 416.692C426.39 416.623 426.611 416.555 426.833 416.487C429.49 415.666 432.284 414.802 435.028 413.722C437.036 412.931 439.224 412.549 441.851 412.09L441.865 412.087C444.367 411.65 447.298 411.138 450.09 409.964C453.087 408.704 457.657 408.037 461.17 408.037C462.03 408.037 463.09 408.117 464.411 408.224L464.628 408.242C465.843 408.34 467.226 408.453 468.607 408.496C471.35 408.581 474.992 408.454 477.813 406.671C481.094 404.597 483.394 402.738 486.066 399.697C487.426 398.151 489.119 397.05 491.24 395.788C491.438 395.67 491.641 395.55 491.849 395.427C493.738 394.312 496.006 392.972 497.946 391.114C500.961 388.225 504.454 387.53 508.918 387.227C509.606 387.181 510.335 387.145 511.096 387.108C514.966 386.921 519.659 386.693 523.942 384.744C526.837 383.426 527.695 380.618 527.799 378.468C527.903 376.304 527.348 373.992 526.578 371.995C525.796 369.968 524.672 367.953 523.358 366.376C522.7 365.588 521.921 364.82 521.026 364.225C520.149 363.642 518.948 363.085 517.523 363.085C516.733 363.085 516.408 362.852 516.067 362.406C515.56 361.743 515.124 360.651 514.654 358.967C514.552 358.602 514.444 358.185 514.327 357.739C513.996 356.465 513.602 354.951 513.126 353.739C512.487 352.108 511.219 349.658 508.406 348.811C503.504 347.335 498.398 347.158 493.807 347L493.486 346.989C488.644 346.821 484.344 346.64 480.338 345.397C476.896 344.329 472.475 343.661 468.706 343.092C467.714 342.942 466.767 342.799 465.895 342.657C464.194 342.381 462.507 341.789 460.471 341.075C460.074 340.936 459.664 340.792 459.238 340.645C456.812 339.808 453.896 338.884 450.802 338.884C449.217 338.884 447.565 338.578 445.557 338.174C445.446 338.152 445.333 338.129 445.22 338.106C443.397 337.738 441.25 337.305 439.067 337.236C437.017 337.171 434.729 337.249 432.541 337.325C431.577 337.358 430.633 337.39 429.736 337.41C426.632 337.476 423.868 337.4 421.555 336.889C418.618 336.239 415.92 337.093 414.091 337.721C413.769 337.831 413.473 337.935 413.198 338.03C411.607 338.584 410.744 338.884 409.921 338.884C407.783 338.884 405.716 339.193 403.937 339.459L403.845 339.472C401.958 339.754 400.379 339.984 398.827 339.984C396.82 339.984 394.901 340.293 393.272 340.556L393.131 340.579C391.387 340.859 389.934 341.084 388.459 341.084C387.752 341.084 386.777 340.963 385.474 340.743C385.027 340.668 384.503 340.574 383.948 340.474C383.086 340.319 382.149 340.151 381.315 340.02C379.86 339.791 378.26 339.595 376.721 339.607C375.216 339.618 373.457 339.826 371.864 340.65C368.785 342.242 364.575 342.852 359.735 342.975C357.36 343.036 354.94 342.979 352.545 342.903C352.116 342.89 351.685 342.875 351.255 342.861C349.325 342.798 347.406 342.734 345.644 342.734C343.38 342.734 341.011 342.67 338.579 342.604C331.054 342.401 322.912 342.181 315.319 343.788C310.667 344.772 306.038 345.342 301.251 345.931C300.773 345.989 300.294 346.048 299.814 346.108C294.569 346.757 289.146 347.479 283.679 348.861C281.524 349.405 279.283 349.682 276.778 349.99C276.326 350.046 275.865 350.103 275.395 350.162C272.439 350.537 269.168 351.02 266.01 352.175C265.531 352.35 264.697 352.56 263.414 352.862C263.307 352.888 263.198 352.913 263.086 352.94C261.965 353.204 260.642 353.515 259.349 353.884C257.94 354.285 256.402 354.799 255.052 355.486C253.791 356.128 252.167 357.18 251.263 358.927C250.381 360.634 248.804 361.509 246.247 361.884C244.315 362.168 242.428 362.107 240.44 362.043C239.557 362.014 238.655 361.985 237.719 361.985C234.322 361.985 231.284 363.954 229.153 365.527C228.242 366.2 227.337 366.928 226.524 367.582C226.325 367.742 226.132 367.897 225.946 368.046C224.943 368.848 224.13 369.473 223.426 369.913C220.14 371.969 216.779 373.204 213.029 374.583C211.588 375.112 210.09 375.663 208.516 376.29C204.213 378.003 199.012 381.071 194.288 384.724C189.591 388.357 185.065 392.8 182.375 397.389C179.793 401.796 176.391 405.366 172.671 409.272L172.628 409.317C168.972 413.155 165.003 417.328 162.014 422.616C161.127 424.186 160.107 425.758 159.015 427.441C158.735 427.871 158.452 428.308 158.164 428.755C156.797 430.877 155.369 433.173 154.284 435.519C153.665 436.856 152.574 437.972 150.932 439.405C150.738 439.575 150.53 439.753 150.313 439.939C148.896 441.154 147.075 442.717 145.761 444.639C145.194 445.467 144.671 446.261 144.152 447.049C143.413 448.17 142.682 449.279 141.848 450.456C140.491 452.369 139.176 453.986 137.865 455.127C136.769 456.08 135.492 457.126 134.149 458.226C131.449 460.437 128.48 462.868 126.172 465.212C123.753 467.669 119.837 470.078 116.536 471.811C116.474 471.844 116.407 471.879 116.335 471.917C115.245 472.487 113.052 473.636 111.002 474.987C109.912 475.704 108.759 476.545 107.795 477.457C106.932 478.273 105.761 479.563 105.341 481.238C105.109 482.159 104.95 483.04 104.917 483.86C104.885 484.664 104.963 485.659 105.435 486.628C106.556 488.93 108.857 489.209 109.499 489.287L109.518 489.29C109.81 489.325 109.942 489.337 110.033 489.345C110.028 489.356 110.023 489.368 110.017 489.379L109.976 489.465C109.888 489.648 109.774 489.888 109.666 490.141C109.467 490.607 109.157 491.407 109.108 492.361C109.054 493.402 109.078 494.655 109.524 495.767C109.771 496.382 110.225 497.151 111.055 497.729C111.927 498.337 112.878 498.501 113.673 498.448C114.989 498.36 116.01 497.669 116.41 497.391C116.62 497.245 116.829 497.086 117.024 496.931ZM110.333 488.657C110.335 488.646 110.337 488.641 110.337 488.64C110.337 488.64 110.336 488.646 110.333 488.657Z" stroke="var(--color-campfire-smoke)" stroke-width="7" stroke-linecap="round" stroke-linejoin="round"/>
    </g>
    <path d="M753.281 288.773C747.344 291.221 740.924 292.445 734.023 292.445C724.284 292.445 716.693 289.776 711.25 284.438C705.807 279.099 703.086 271.638 703.086 262.055C703.086 252.419 705.742 244.958 711.055 239.672C716.367 234.385 723.867 231.742 733.555 231.742C739.44 231.742 745.677 232.589 752.266 234.281V246.195H746.445V245.453C746.445 241.99 745.885 239.789 744.766 238.852C742.161 236.664 738.477 235.57 733.711 235.57C728.034 235.57 723.646 237.862 720.547 242.445C717.448 247.003 715.898 253.474 715.898 261.859C715.898 270.427 717.63 276.859 721.094 281.156C724.583 285.453 729.792 287.602 736.719 287.602C741.51 287.602 747.031 286.169 753.281 283.305V288.773ZM776.298 229.32V279.672C776.298 283.161 776.559 285.271 777.08 286C777.627 286.703 779.215 287.146 781.845 287.328L782.588 287.367V291H758.486V287.367L759.228 287.328C761.858 287.146 763.434 286.703 763.955 286C764.476 285.271 764.736 283.161 764.736 279.672V240.648C764.736 237.159 764.476 235.049 763.955 234.32C763.434 233.591 761.858 233.148 759.228 232.992L758.486 232.914V229.32H776.298ZM824.784 289.32C819.68 291.091 814.706 291.977 809.863 291.977C802.545 291.977 796.751 289.919 792.48 285.805C788.235 281.69 786.113 276.104 786.113 269.047C786.113 262.536 788.027 257.263 791.855 253.227C795.709 249.164 800.722 247.133 806.894 247.133C818.821 247.133 824.784 254.451 824.784 269.086V269.945H797.988C797.988 275.362 799.251 279.424 801.777 282.133C804.303 284.841 808.092 286.195 813.144 286.195C816.581 286.195 820.461 285.258 824.784 283.383V289.32ZM798.261 266.312H813.378V264.945C813.378 259.763 812.857 256.104 811.816 253.969C810.774 251.833 808.977 250.766 806.425 250.766C803.717 250.766 801.672 252.068 800.292 254.672C798.938 257.25 798.261 261.13 798.261 266.312ZM856.864 286.039C854.807 288.018 852.697 289.503 850.536 290.492C848.401 291.482 846.213 291.977 843.973 291.977C840.171 291.977 837.02 290.805 834.52 288.461C832.02 286.091 830.77 283.109 830.77 279.516C830.77 275.323 832.359 271.977 835.536 269.477C837.437 267.966 839.69 266.924 842.294 266.352C844.898 265.753 848.57 265.453 853.309 265.453H855.262V260.258C855.262 256.586 854.794 254.086 853.856 252.758C852.945 251.43 851.239 250.766 848.739 250.766C845.692 250.766 843.401 251.586 841.864 253.227C841.343 253.747 841.005 255.492 840.848 258.461L840.809 259.203H834.52V250.531C839.468 248.266 844.637 247.133 850.028 247.133C855.445 247.133 859.598 248.253 862.489 250.492C865.38 252.732 866.825 255.948 866.825 260.141V278.969C866.825 282.302 867.072 284.568 867.567 285.766C868.036 286.99 868.934 287.602 870.262 287.602C870.653 287.602 871.109 287.523 871.63 287.367L872.137 291C870.132 291.651 868.166 291.977 866.239 291.977C864.13 291.977 862.294 291.482 860.731 290.492C859.169 289.503 857.88 288.018 856.864 286.039ZM855.262 283.188V268.969H853.739C849.885 268.969 846.981 269.75 845.028 271.312C843.101 272.849 842.137 275.167 842.137 278.266C842.137 280.557 842.749 282.393 843.973 283.773C845.223 285.128 846.89 285.805 848.973 285.805C850.145 285.805 851.252 285.583 852.294 285.141C853.335 284.698 854.325 284.047 855.262 283.188ZM893.045 256.195C894.816 253.174 896.926 250.909 899.373 249.398C901.821 247.888 904.608 247.133 907.733 247.133C911.587 247.133 914.608 248.318 916.795 250.688C918.957 253.083 920.038 256.404 920.038 260.648V279.672C920.038 283.161 920.298 285.271 920.819 286C921.366 286.703 922.954 287.146 925.584 287.328L926.327 287.367V291H902.225V287.367L902.928 287.328C905.584 287.146 907.173 286.703 907.694 286C908.215 285.271 908.475 283.161 908.475 279.672V261.977C908.475 258.93 908.11 256.872 907.381 255.805C906.678 254.711 905.311 254.164 903.28 254.164C901.535 254.164 899.803 254.698 898.084 255.766C896.392 256.807 894.712 258.396 893.045 260.531V279.672C893.045 283.161 893.306 285.271 893.827 286C894.373 286.703 895.962 287.146 898.592 287.328L899.334 287.367V291H875.233V287.367L875.975 287.328C878.605 287.146 880.181 286.703 880.702 286C881.222 285.271 881.483 283.161 881.483 279.672V259.438C881.483 255.948 881.222 253.852 880.702 253.148C880.181 252.419 878.605 251.964 875.975 251.781L875.233 251.742V248.109H893.045V256.195ZM745.781 389H701.68V385.367L702.422 385.328C705.052 385.146 706.628 384.703 707.148 384C707.669 383.271 707.93 381.161 707.93 377.672V342.477C707.93 338.987 707.669 336.891 707.148 336.188C706.654 335.484 705.078 335.029 702.422 334.82L701.68 334.781V331.188H744.102V341.539H738.32L738.242 340.797C738.164 339.469 738.125 338.688 738.125 338.453C738.125 336.995 737.773 336.057 737.07 335.641C736.393 335.224 734.844 335.016 732.422 335.016H720V356.969H728.047C731.146 356.969 732.917 356.891 733.359 356.734C733.828 356.578 734.089 355.367 734.141 353.102L734.219 352.359H738.32V364.898H734.219L734.141 364.195C734.089 362.138 733.724 360.979 733.047 360.719C732.37 360.458 730.716 360.328 728.086 360.328H719.766V377.672C719.766 381.995 720.273 384.299 721.289 384.586C722.044 384.794 724.115 384.898 727.5 384.898H732.344C736.25 384.898 738.438 384.716 738.906 384.352C739.401 383.961 739.753 382.138 739.961 378.883L740 378.141H745.781V389ZM767.548 354.195C769.319 351.174 771.429 348.909 773.877 347.398C776.324 345.888 779.111 345.133 782.236 345.133C786.09 345.133 789.111 346.318 791.298 348.688C793.46 351.083 794.541 354.404 794.541 358.648V377.672C794.541 381.161 794.801 383.271 795.322 384C795.869 384.703 797.457 385.146 800.088 385.328L800.83 385.367V389H776.728V385.367L777.431 385.328C780.088 385.146 781.676 384.703 782.197 384C782.718 383.271 782.978 381.161 782.978 377.672V359.977C782.978 356.93 782.614 354.872 781.884 353.805C781.181 352.711 779.814 352.164 777.783 352.164C776.038 352.164 774.306 352.698 772.588 353.766C770.895 354.807 769.215 356.396 767.548 358.531V377.672C767.548 381.161 767.809 383.271 768.33 384C768.877 384.703 770.465 385.146 773.095 385.328L773.838 385.367V389H749.736V385.367L750.478 385.328C753.108 385.146 754.684 384.703 755.205 384C755.726 383.271 755.986 381.161 755.986 377.672V357.438C755.986 353.948 755.726 351.852 755.205 351.148C754.684 350.419 753.108 349.964 750.478 349.781L749.736 349.742V346.109H767.548V354.195ZM842.363 387.32C837.258 389.091 832.284 389.977 827.441 389.977C820.123 389.977 814.329 387.919 810.058 383.805C805.813 379.69 803.691 374.104 803.691 367.047C803.691 360.536 805.605 355.263 809.433 351.227C813.287 347.164 818.3 345.133 824.472 345.133C836.399 345.133 842.363 352.451 842.363 367.086V367.945H815.566C815.566 373.362 816.829 377.424 819.355 380.133C821.881 382.841 825.67 384.195 830.722 384.195C834.159 384.195 838.04 383.258 842.363 381.383V387.32ZM815.839 364.312H830.956V362.945C830.956 357.763 830.435 354.104 829.394 351.969C828.352 349.833 826.555 348.766 824.003 348.766C821.295 348.766 819.251 350.068 817.87 352.672C816.516 355.25 815.839 359.13 815.839 364.312ZM865.692 358.336V377.672C865.692 381.214 865.979 383.323 866.552 384C867.124 384.677 869.012 385.12 872.216 385.328L872.958 385.367V389H847.88V385.367L848.622 385.328C851.252 385.146 852.828 384.703 853.348 384C853.869 383.271 854.13 381.161 854.13 377.672V357.438C854.13 353.948 853.869 351.852 853.348 351.148C852.828 350.419 851.252 349.964 848.622 349.781L847.88 349.742V346.109H865.692V354.195C869.208 348.154 873.765 345.133 879.364 345.133C879.963 345.133 880.718 345.237 881.63 345.445V359.117H876.317L876.278 358.414C876.07 355.523 875.874 353.896 875.692 353.531C875.536 353.141 874.898 352.945 873.778 352.945C870.445 352.945 867.749 354.742 865.692 358.336ZM894.959 387.477C891.965 385.914 890.467 384.039 890.467 381.852C890.467 380.445 891.144 379.078 892.498 377.75C893.879 376.396 895.936 375.081 898.67 373.805C895.467 372.607 893.058 370.875 891.444 368.609C889.855 366.344 889.061 363.544 889.061 360.211C889.061 355.628 890.636 351.969 893.788 349.234C896.965 346.5 901.196 345.133 906.483 345.133C908.149 345.133 909.712 345.263 911.17 345.523C912.655 345.784 914.048 346.174 915.35 346.695L931.327 345.367L928.905 351.539L920.428 350.367C922.902 353.31 924.139 356.513 924.139 359.977C924.139 364.273 922.59 367.88 919.491 370.797C916.392 373.688 912.551 375.133 907.967 375.133C907.03 375.133 905.754 375.068 904.139 374.938L901.873 374.547C900.988 375.224 900.324 375.901 899.881 376.578C899.439 377.229 899.217 377.893 899.217 378.57C899.217 380.211 901.34 381.031 905.584 381.031H912.147C918.241 381.031 922.577 381.799 925.155 383.336C927.707 384.898 928.983 387.516 928.983 391.188C928.983 395.458 926.926 398.896 922.811 401.5C918.722 404.104 913.306 405.406 906.561 405.406C900.519 405.406 895.571 404.547 891.717 402.828C887.863 401.109 885.936 398.909 885.936 396.227C885.936 392.32 888.944 389.404 894.959 387.477ZM899.92 360.367C899.92 364.169 900.48 367.034 901.6 368.961C902.72 370.862 904.386 371.812 906.6 371.812C908.84 371.812 910.506 370.862 911.6 368.961C912.72 367.034 913.28 364.169 913.28 360.367C913.28 356.539 912.72 353.674 911.6 351.773C910.506 349.872 908.84 348.922 906.6 348.922C904.386 348.922 902.72 349.872 901.6 351.773C900.48 353.674 899.92 356.539 899.92 360.367ZM898.709 388.531C897.642 390.849 897.108 392.711 897.108 394.117C897.108 396.227 898.123 398.023 900.155 399.508C902.186 401.018 904.621 401.773 907.459 401.773C910.558 401.773 913.136 400.966 915.194 399.352C917.277 397.737 918.319 395.732 918.319 393.336C918.319 391.721 917.577 390.51 916.092 389.703C914.634 388.922 912.433 388.531 909.491 388.531H898.709ZM940.477 404.43L955.125 388.531L940.711 357.32C938.914 353.648 937.703 351.513 937.078 350.914C936.453 350.289 935.138 349.911 933.133 349.781L932.391 349.742V346.109H956.727V349.742H956.023C952.872 349.742 951.297 350.211 951.297 351.148C951.297 351.695 952.117 353.779 953.758 357.398L961.766 375.094L971.141 357.359C973.016 353.844 973.953 351.695 973.953 350.914C973.953 350.133 972.625 349.742 969.969 349.742H969.266V346.109H984.695V349.742L983.953 349.781C981.714 349.938 980.294 350.289 979.695 350.836C979.122 351.357 977.82 353.531 975.789 357.359L950.711 404.43H940.477ZM719.492 463.328V475.672C719.492 479.214 719.779 481.323 720.352 482C720.924 482.677 722.812 483.12 726.016 483.328L726.758 483.367V487H701.68V483.367L702.422 483.328C705.052 483.146 706.628 482.703 707.148 482C707.669 481.271 707.93 479.161 707.93 475.672V440.477C707.93 436.987 707.669 434.891 707.148 434.188C706.654 433.484 705.078 433.029 702.422 432.82L701.68 432.781V429.188H719.492L726.953 428.992L730.234 428.914C741.615 428.914 747.305 434.018 747.305 444.227C747.305 450.581 745.286 455.359 741.25 458.562C737.214 461.74 731.159 463.328 723.086 463.328H719.492ZM719.492 459.461H721.797C726.224 459.461 729.544 458.263 731.758 455.867C733.971 453.471 735.078 449.891 735.078 445.125C735.078 437.052 731.289 433.016 723.711 433.016H719.492V459.461ZM768.564 456.336V475.672C768.564 479.214 768.851 481.323 769.423 482C769.996 482.677 771.884 483.12 775.088 483.328L775.83 483.367V487H750.752V483.367L751.494 483.328C754.124 483.146 755.699 482.703 756.22 482C756.741 481.271 757.002 479.161 757.002 475.672V455.438C757.002 451.948 756.741 449.852 756.22 449.148C755.699 448.419 754.124 447.964 751.494 447.781L750.752 447.742V444.109H768.564V452.195C772.08 446.154 776.637 443.133 782.236 443.133C782.835 443.133 783.59 443.237 784.502 443.445V457.117H779.189L779.15 456.414C778.942 453.523 778.746 451.896 778.564 451.531C778.408 451.141 777.77 450.945 776.65 450.945C773.317 450.945 770.621 452.742 768.564 456.336ZM811.698 487.977C804.771 487.977 799.316 485.984 795.331 482C791.373 477.99 789.394 472.508 789.394 465.555C789.394 458.602 791.373 453.133 795.331 449.148C799.316 445.138 804.771 443.133 811.698 443.133C818.599 443.133 824.029 445.138 827.988 449.148C831.972 453.133 833.964 458.602 833.964 465.555C833.964 472.508 831.972 477.99 827.988 482C824.029 485.984 818.599 487.977 811.698 487.977ZM811.698 483.875C814.876 483.875 817.245 482.352 818.808 479.305C820.396 476.232 821.191 471.648 821.191 465.555C821.191 459.435 820.396 454.852 818.808 451.805C817.245 448.758 814.876 447.234 811.698 447.234C808.521 447.234 806.139 448.758 804.55 451.805C802.961 454.852 802.167 459.435 802.167 465.555C802.167 471.648 802.961 476.232 804.55 479.305C806.139 482.352 808.521 483.875 811.698 483.875ZM858.739 444.109V486.141C858.739 491.896 857.333 496.206 854.52 499.07C851.734 501.961 847.528 503.406 841.903 503.406C839.221 503.406 836.044 502.872 832.372 501.805V491.336H837.684L837.723 492.078C837.906 495.359 838.283 497.469 838.856 498.406C839.429 499.344 840.601 499.812 842.372 499.812C844.377 499.812 845.679 499.135 846.278 497.781C846.877 496.427 847.177 493.523 847.177 489.07V455.438C847.177 451.948 846.916 449.852 846.395 449.148C845.874 448.419 844.286 447.964 841.63 447.781L840.927 447.742V444.109H858.739ZM847.177 436.883V425.32H858.739V436.883H847.177ZM906.756 485.32C901.652 487.091 896.678 487.977 891.834 487.977C884.517 487.977 878.722 485.919 874.452 481.805C870.207 477.69 868.084 472.104 868.084 465.047C868.084 458.536 869.998 453.263 873.827 449.227C877.681 445.164 882.694 443.133 888.866 443.133C900.793 443.133 906.756 450.451 906.756 465.086V465.945H879.959C879.959 471.362 881.222 475.424 883.748 478.133C886.274 480.841 890.064 482.195 895.116 482.195C898.553 482.195 902.433 481.258 906.756 479.383V485.32ZM880.233 462.312H895.35V460.945C895.35 455.763 894.829 452.104 893.788 449.969C892.746 447.833 890.949 446.766 888.397 446.766C885.689 446.766 883.644 448.068 882.264 450.672C880.91 453.25 880.233 457.13 880.233 462.312ZM950.359 485.984C945.906 487.312 941.635 487.977 937.547 487.977C930.073 487.977 924.188 485.945 919.891 481.883C915.62 477.794 913.484 472.182 913.484 465.047C913.484 458.224 915.516 452.872 919.578 448.992C923.641 445.086 929.24 443.133 936.375 443.133C940.88 443.133 945.49 443.784 950.203 445.086V456.141H944.656L944.617 455.438C944.409 452.182 944.018 450.203 943.445 449.5C941.987 447.677 939.734 446.766 936.688 446.766C933.042 446.766 930.307 448.25 928.484 451.219C926.661 454.188 925.75 458.641 925.75 464.578C925.75 470.646 926.961 475.203 929.383 478.25C931.831 481.297 935.477 482.82 940.32 482.82C943.315 482.82 946.661 482.091 950.359 480.633V485.984ZM983.806 486.648C981.384 487.534 979.015 487.977 976.697 487.977C971.879 487.977 968.259 486.792 965.837 484.422C963.442 482.026 962.244 478.445 962.244 473.68V447.977H956.931V444.109H962.244V436.883L973.806 434.852V444.109H983.298V447.977H973.806V473.953C973.806 477.781 974.184 480.307 974.939 481.531C975.694 482.755 977.257 483.367 979.627 483.367C980.929 483.367 982.322 483.068 983.806 482.469V486.648Z" fill="var(--color-campfire-smoke)" id="logo-text"/>
</svg>