<svg width="986" height="636" fill="none" xmlns="http://www.w3.org/2000/svg"><mask id="a" maskUnits="userSpaceOnUse" x="-4" y="-4" width="640" height="640"><circle cx="316" cy="316" r="316" fill="#fff" stroke="#fff" stroke-width="7"/></mask><g mask="url(#a)" stroke="var(--color-campfire-smoke)" stroke-width="7"><path d="M648.5 502.5c0 143.417-147.82 261-332 261s-332-117.583-332-261c0-143.416 147.82-261 332-261s332 117.584 332 261z"/><path d="M117.024 496.931c12.037-2.115 24.104-5.649 35.524-10.521 4.76-2.03 9.701-3.569 14.831-5.147l.496-.152c4.922-1.514 10.022-3.081 14.99-5.136 4.76-1.97 10.094-2.955 15.596-3.971 1.576-.291 3.166-.585 4.76-.905 3.4-.682 6.864-1.714 10.184-2.755.781-.245 1.551-.49 2.312-.732 2.533-.804 4.963-1.576 7.338-2.219 2.676-.725 5.656-.624 9.343-.499l.179.006c3.532.119 7.752.248 11.757-1.054.891-.289 1.911-.383 3.383-.461l.375-.019c1.289-.065 2.958-.148 4.591-.55 1.699-.418 3.181-1.202 4.258-1.772l.12-.063c1.217-.644 1.986-1.03 2.76-1.219 2.479-.604 5.094-.562 8.243-.457l.429.014c2.905.099 6.285.214 9.676-.475a933.32 933.32 0 007.951-1.661c3.8-.805 7.565-1.603 11.356-2.335 2.998-.579 5.972-.933 9.11-1.307 2.038-.243 4.146-.494 6.374-.82 5.393-.79 11.039-1.986 16.188-4.648 2.598-1.344 5.374-1.884 8.606-2.293.618-.078 1.264-.152 1.931-.229 2.665-.305 5.677-.649 8.611-1.461 2.646-.732 5.096-1.973 7.177-3.027.327-.165.644-.326.952-.479 2.416-1.205 4.434-2.082 6.58-2.354 2.779-.351 5.477-.957 8.031-1.573.611-.148 1.211-.295 1.801-.44 1.932-.474 3.772-.926 5.638-1.295 3.197-.633 6.096-1.819 8.7-2.964.533-.234 1.05-.465 1.556-.69 2.054-.917 3.911-1.746 5.86-2.379 6.388-2.076 12.787-4.818 18.979-7.471a885.89 885.89 0 014.294-1.831c2.661-1.125 5.406-1.998 8.306-2.895l.663-.205c2.657-.821 5.451-1.685 8.195-2.765 2.008-.791 4.196-1.173 6.823-1.632l.014-.003c2.502-.437 5.433-.949 8.225-2.123 2.997-1.26 7.567-1.927 11.08-1.927.86 0 1.92.08 3.241.187l.217.018c1.215.098 2.598.211 3.979.254 2.743.085 6.385-.042 9.206-1.825 3.281-2.074 5.581-3.933 8.253-6.974 1.36-1.546 3.053-2.647 5.174-3.909l.609-.361c1.889-1.115 4.157-2.455 6.097-4.313 3.015-2.889 6.508-3.584 10.972-3.887.688-.046 1.417-.082 2.178-.119 3.87-.187 8.563-.415 12.846-2.364 2.895-1.318 3.753-4.126 3.857-6.276.104-2.164-.451-4.476-1.221-6.473-.782-2.027-1.906-4.042-3.22-5.619-.658-.788-1.437-1.556-2.332-2.151-.877-.583-2.078-1.14-3.503-1.14-.79 0-1.115-.233-1.456-.679-.507-.663-.943-1.755-1.413-3.439-.102-.365-.21-.782-.327-1.228-.331-1.274-.725-2.788-1.201-4-.639-1.631-1.907-4.081-4.72-4.928-4.902-1.476-10.008-1.653-14.599-1.811l-.321-.011c-4.842-.168-9.142-.349-13.148-1.592-3.442-1.068-7.863-1.736-11.632-2.305-.992-.15-1.939-.293-2.811-.435-1.701-.276-3.388-.868-5.424-1.582-.397-.139-.807-.283-1.233-.43-2.426-.837-5.342-1.761-8.436-1.761-1.585 0-3.237-.306-5.245-.71a67.385 67.385 0 01-.337-.068c-1.823-.368-3.97-.801-6.153-.87-2.05-.065-4.338.013-6.526.089-.964.033-1.908.065-2.805.085-3.104.066-5.868-.01-8.181-.521-2.937-.65-5.635.204-7.464.832-.322.11-.618.214-.893.309-1.591.554-2.454.854-3.277.854-2.138 0-4.205.309-5.984.575l-.092.013c-1.887.282-3.466.512-5.018.512-2.007 0-3.926.309-5.555.572l-.141.023c-1.744.28-3.197.505-4.672.505-.707 0-1.682-.121-2.985-.341a135.92 135.92 0 01-1.526-.269c-.862-.155-1.799-.323-2.633-.454-1.455-.229-3.055-.425-4.594-.413-1.505.011-3.264.219-4.857 1.043-3.079 1.592-7.289 2.202-12.129 2.325-2.375.061-4.795.004-7.19-.072l-1.29-.042c-1.93-.063-3.849-.127-5.611-.127-2.264 0-4.633-.064-7.065-.13-7.525-.203-15.667-.423-23.26 1.184-4.652.984-9.281 1.554-14.068 2.143l-1.437.177c-5.245.649-10.668 1.371-16.135 2.753-2.155.544-4.396.821-6.901 1.129l-1.383.172c-2.956.375-6.227.858-9.385 2.013-.479.175-1.313.385-2.596.687l-.328.078c-1.121.264-2.444.575-3.737.944-1.409.401-2.947.915-4.297 1.602-1.261.642-2.885 1.694-3.789 3.441-.882 1.707-2.459 2.582-5.016 2.957-1.932.284-3.819.223-5.807.159a81.955 81.955 0 00-2.721-.058c-3.397 0-6.435 1.969-8.566 3.542a81.758 81.758 0 00-2.629 2.055l-.578.464c-1.003.802-1.816 1.427-2.52 1.867-3.286 2.056-6.647 3.291-10.397 4.67-1.441.529-2.939 1.08-4.513 1.707-4.303 1.713-9.504 4.781-14.228 8.434-4.697 3.633-9.223 8.076-11.913 12.665-2.582 4.407-5.984 7.977-9.704 11.883l-.043.045c-3.656 3.838-7.625 8.011-10.614 13.299-.887 1.57-1.907 3.142-2.999 4.825-.28.43-.563.867-.851 1.314-1.367 2.122-2.795 4.418-3.88 6.764-.619 1.337-1.71 2.453-3.352 3.886-.194.17-.402.348-.619.534-1.417 1.215-3.238 2.778-4.552 4.7-.567.828-1.09 1.622-1.609 2.41-.739 1.121-1.47 2.23-2.304 3.407-1.357 1.913-2.672 3.53-3.983 4.671-1.096.953-2.373 1.999-3.716 3.099-2.7 2.211-5.669 4.642-7.977 6.986-2.419 2.457-6.335 4.866-9.636 6.599l-.201.106c-1.09.57-3.283 1.719-5.333 3.07-1.09.717-2.243 1.558-3.207 2.47-.863.816-2.034 2.106-2.454 3.781-.232.921-.391 1.802-.424 2.622-.032.804.046 1.799.518 2.768 1.121 2.302 3.422 2.581 4.064 2.659l.019.003c.292.035.424.047.515.055l-.016.034-.041.086c-.088.183-.202.423-.31.676-.199.466-.509 1.266-.558 2.22-.054 1.041-.03 2.294.416 3.406.247.615.701 1.384 1.531 1.962a4.08 4.08 0 002.618.719c1.316-.088 2.337-.779 2.737-1.057.21-.146.419-.305.614-.46zm-6.691-8.274l.004-.017-.004.017z" stroke-linecap="round" stroke-linejoin="round"/></g><path d="M753.281 288.773c-5.937 2.448-12.357 3.672-19.258 3.672-9.739 0-17.33-2.669-22.773-8.007-5.443-5.339-8.164-12.8-8.164-22.383 0-9.636 2.656-17.097 7.969-22.383 5.312-5.287 12.812-7.93 22.5-7.93 5.885 0 12.122.847 18.711 2.539v11.914h-5.821v-.742c0-3.463-.56-5.664-1.679-6.601-2.605-2.188-6.289-3.282-11.055-3.282-5.677 0-10.065 2.292-13.164 6.875-3.099 4.558-4.649 11.029-4.649 19.414 0 8.568 1.732 15 5.196 19.297 3.489 4.297 8.698 6.446 15.625 6.446 4.791 0 10.312-1.433 16.562-4.297v5.468zm23.017-59.453v50.352c0 3.489.261 5.599.782 6.328.547.703 2.135 1.146 4.765 1.328l.743.039V291h-24.102v-3.633l.742-.039c2.63-.182 4.206-.625 4.727-1.328.521-.729.781-2.839.781-6.328v-39.024c0-3.489-.26-5.599-.781-6.328-.521-.729-2.097-1.172-4.727-1.328l-.742-.078v-3.594h17.812zm48.486 60c-5.104 1.771-10.078 2.657-14.921 2.657-7.318 0-13.112-2.058-17.383-6.172-4.245-4.115-6.367-9.701-6.367-16.758 0-6.511 1.914-11.784 5.742-15.82 3.854-4.063 8.867-6.094 15.039-6.094 11.927 0 17.89 7.318 17.89 21.953v.859h-26.796c0 5.417 1.263 9.479 3.789 12.188 2.526 2.708 6.315 4.062 11.367 4.062 3.437 0 7.317-.937 11.64-2.812v5.937zm-26.523-23.008h15.117v-1.367c0-5.182-.521-8.841-1.562-10.976-1.042-2.136-2.839-3.203-5.391-3.203-2.708 0-4.753 1.302-6.133 3.906-1.354 2.578-2.031 6.458-2.031 11.64zm58.603 19.727c-2.057 1.979-4.167 3.464-6.328 4.453-2.135.99-4.323 1.485-6.563 1.485-3.802 0-6.953-1.172-9.453-3.516-2.5-2.37-3.75-5.352-3.75-8.945 0-4.193 1.589-7.539 4.766-10.039 1.901-1.511 4.154-2.553 6.758-3.125 2.604-.599 6.276-.899 11.015-.899h1.953v-5.195c0-3.672-.468-6.172-1.406-7.5-.911-1.328-2.617-1.992-5.117-1.992-3.047 0-5.338.82-6.875 2.461-.521.52-.859 2.265-1.016 5.234l-.039.742h-6.289v-8.672c4.948-2.265 10.117-3.398 15.508-3.398 5.417 0 9.57 1.12 12.461 3.359 2.891 2.24 4.336 5.456 4.336 9.649v18.828c0 3.333.247 5.599.742 6.797.469 1.224 1.367 1.836 2.695 1.836.391 0 .847-.079 1.368-.235l.507 3.633c-2.005.651-3.971.977-5.898.977-2.109 0-3.945-.495-5.508-1.485-1.562-.989-2.851-2.474-3.867-4.453zm-1.602-2.851v-14.219h-1.523c-3.854 0-6.758.781-8.711 2.343-1.927 1.537-2.891 3.855-2.891 6.954 0 2.291.612 4.127 1.836 5.507 1.25 1.355 2.917 2.032 5 2.032a8.417 8.417 0 003.321-.664c1.041-.443 2.031-1.094 2.968-1.953zm37.783-26.993c1.771-3.021 3.881-5.286 6.328-6.797 2.448-1.51 5.235-2.265 8.36-2.265 3.854 0 6.875 1.185 9.062 3.555 2.162 2.395 3.243 5.716 3.243 9.96v19.024c0 3.489.26 5.599.781 6.328.547.703 2.135 1.146 4.765 1.328l.743.039V291h-24.102v-3.633l.703-.039c2.656-.182 4.245-.625 4.766-1.328.521-.729.781-2.839.781-6.328v-17.695c0-3.047-.365-5.105-1.094-6.172-.703-1.094-2.07-1.641-4.101-1.641-1.745 0-3.477.534-5.196 1.602-1.692 1.041-3.372 2.63-5.039 4.765v19.141c0 3.489.261 5.599.782 6.328.546.703 2.135 1.146 4.765 1.328l.742.039V291h-24.101v-3.633l.742-.039c2.63-.182 4.206-.625 4.727-1.328.52-.729.781-2.839.781-6.328v-20.234c0-3.49-.261-5.586-.781-6.29-.521-.729-2.097-1.184-4.727-1.367l-.742-.039v-3.633h17.812v8.086zM745.781 389H701.68v-3.633l.742-.039c2.63-.182 4.206-.625 4.726-1.328.521-.729.782-2.839.782-6.328v-35.195c0-3.49-.261-5.586-.782-6.289-.494-.704-2.07-1.159-4.726-1.368l-.742-.039v-3.593h42.422v10.351h-5.782l-.078-.742c-.078-1.328-.117-2.109-.117-2.344 0-1.458-.352-2.396-1.055-2.812-.677-.417-2.226-.625-4.648-.625H720v21.953h8.047c3.099 0 4.87-.078 5.312-.235.469-.156.73-1.367.782-3.632l.078-.743h4.101v12.539h-4.101l-.078-.703c-.052-2.057-.417-3.216-1.094-3.476-.677-.261-2.331-.391-4.961-.391h-8.32v17.344c0 4.323.507 6.627 1.523 6.914.755.208 2.826.312 6.211.312h4.844c3.906 0 6.094-.182 6.562-.546.495-.391.847-2.214 1.055-5.469l.039-.742h5.781V389zm21.767-34.805c1.771-3.021 3.881-5.286 6.329-6.797 2.447-1.51 5.234-2.265 8.359-2.265 3.854 0 6.875 1.185 9.062 3.555 2.162 2.395 3.243 5.716 3.243 9.96v19.024c0 3.489.26 5.599.781 6.328.547.703 2.135 1.146 4.766 1.328l.742.039V389h-24.102v-3.633l.703-.039c2.657-.182 4.245-.625 4.766-1.328.521-.729.781-2.839.781-6.328v-17.695c0-3.047-.364-5.105-1.094-6.172-.703-1.094-2.07-1.641-4.101-1.641-1.745 0-3.477.534-5.195 1.602-1.693 1.041-3.373 2.63-5.04 4.765v19.141c0 3.489.261 5.599.782 6.328.547.703 2.135 1.146 4.765 1.328l.743.039V389h-24.102v-3.633l.742-.039c2.63-.182 4.206-.625 4.727-1.328.521-.729.781-2.839.781-6.328v-20.234c0-3.49-.26-5.586-.781-6.29-.521-.729-2.097-1.184-4.727-1.367l-.742-.039v-3.633h17.812v8.086zm74.815 33.125c-5.105 1.771-10.079 2.657-14.922 2.657-7.318 0-13.112-2.058-17.383-6.172-4.245-4.115-6.367-9.701-6.367-16.758 0-6.511 1.914-11.784 5.742-15.82 3.854-4.063 8.867-6.094 15.039-6.094 11.927 0 17.891 7.318 17.891 21.953v.859h-26.797c0 5.417 1.263 9.479 3.789 12.188 2.526 2.708 6.315 4.062 11.367 4.062 3.437 0 7.318-.937 11.641-2.812v5.937zm-26.524-23.008h15.117v-1.367c0-5.182-.521-8.841-1.562-10.976-1.042-2.136-2.839-3.203-5.391-3.203-2.708 0-4.752 1.302-6.133 3.906-1.354 2.578-2.031 6.458-2.031 11.64zm49.853-5.976v19.336c0 3.542.287 5.651.86 6.328.572.677 2.46 1.12 5.664 1.328l.742.039V389H847.88v-3.633l.742-.039c2.63-.182 4.206-.625 4.726-1.328.521-.729.782-2.839.782-6.328v-20.234c0-3.49-.261-5.586-.782-6.29-.52-.729-2.096-1.184-4.726-1.367l-.742-.039v-3.633h17.812v8.086c3.516-6.041 8.073-9.062 13.672-9.062.599 0 1.354.104 2.266.312v13.672h-5.313l-.039-.703c-.208-2.891-.404-4.518-.586-4.883-.156-.39-.794-.586-1.914-.586-3.333 0-6.029 1.797-8.086 5.391zm29.267 29.141c-2.994-1.563-4.492-3.438-4.492-5.625 0-1.407.677-2.774 2.031-4.102 1.381-1.354 3.438-2.669 6.172-3.945-3.203-1.198-5.612-2.93-7.226-5.196-1.589-2.265-2.383-5.065-2.383-8.398 0-4.583 1.575-8.242 4.727-10.977 3.177-2.734 7.408-4.101 12.695-4.101 1.666 0 3.229.13 4.687.39 1.485.261 2.878.651 4.18 1.172l15.977-1.328-2.422 6.172-8.477-1.172c2.474 2.943 3.711 6.146 3.711 9.61 0 4.296-1.549 7.903-4.648 10.82-3.099 2.891-6.94 4.336-11.524 4.336-.937 0-2.213-.065-3.828-.195l-2.266-.391c-.885.677-1.549 1.354-1.992 2.031-.442.651-.664 1.315-.664 1.992 0 1.641 2.123 2.461 6.367 2.461h6.563c6.094 0 10.43.768 13.008 2.305 2.552 1.562 3.828 4.18 3.828 7.852 0 4.27-2.057 7.708-6.172 10.312-4.089 2.604-9.505 3.906-16.25 3.906-6.042 0-10.99-.859-14.844-2.578-3.854-1.719-5.781-3.919-5.781-6.601 0-3.907 3.008-6.823 9.023-8.75zm4.961-27.11c0 3.802.56 6.667 1.68 8.594 1.12 1.901 2.786 2.851 5 2.851 2.24 0 3.906-.95 5-2.851 1.12-1.927 1.68-4.792 1.68-8.594 0-3.828-.56-6.693-1.68-8.594-1.094-1.901-2.76-2.851-5-2.851-2.214 0-3.88.95-5 2.851s-1.68 4.766-1.68 8.594zm-1.211 28.164c-1.067 2.318-1.601 4.18-1.601 5.586 0 2.11 1.015 3.906 3.047 5.391 2.031 1.51 4.466 2.265 7.304 2.265 3.099 0 5.677-.807 7.735-2.421 2.083-1.615 3.125-3.62 3.125-6.016 0-1.615-.742-2.826-2.227-3.633-1.458-.781-3.659-1.172-6.601-1.172h-10.782zm41.768 15.899l14.648-15.899-14.414-31.211c-1.797-3.672-3.008-5.807-3.633-6.406-.625-.625-1.94-1.003-3.945-1.133l-.742-.039v-3.633h24.336v3.633h-.704c-3.151 0-4.726.469-4.726 1.406 0 .547.82 2.631 2.461 6.25l8.008 17.696 9.375-17.735c1.875-3.515 2.812-5.664 2.812-6.445 0-.781-1.328-1.172-3.984-1.172h-.703v-3.633h15.429v3.633l-.742.039c-2.239.157-3.659.508-4.258 1.055-.573.521-1.875 2.695-3.906 6.523l-25.078 47.071h-10.234zm-220.985 58.898v12.344c0 3.542.287 5.651.86 6.328.572.677 2.46 1.12 5.664 1.328l.742.039V487H701.68v-3.633l.742-.039c2.63-.182 4.206-.625 4.726-1.328.521-.729.782-2.839.782-6.328v-35.195c0-3.49-.261-5.586-.782-6.289-.494-.704-2.07-1.159-4.726-1.368l-.742-.039v-3.593h17.812l7.461-.196 3.281-.078c11.381 0 17.071 5.104 17.071 15.313 0 6.354-2.019 11.132-6.055 14.335-4.036 3.178-10.091 4.766-18.164 4.766h-3.594zm0-3.867h2.305c4.427 0 7.747-1.198 9.961-3.594 2.213-2.396 3.32-5.976 3.32-10.742 0-8.073-3.789-12.109-11.367-12.109h-4.219v26.445zm49.072-3.125v19.336c0 3.542.287 5.651.859 6.328.573.677 2.461 1.12 5.665 1.328l.742.039V487h-25.078v-3.633l.742-.039c2.63-.182 4.205-.625 4.726-1.328.521-.729.782-2.839.782-6.328v-20.234c0-3.49-.261-5.586-.782-6.29-.521-.729-2.096-1.184-4.726-1.367l-.742-.039v-3.633h17.812v8.086c3.516-6.041 8.073-9.062 13.672-9.062.599 0 1.354.104 2.266.312v13.672h-5.313l-.039-.703c-.208-2.891-.404-4.518-.586-4.883-.156-.39-.794-.586-1.914-.586-3.333 0-6.029 1.797-8.086 5.391zm43.134 31.641c-6.927 0-12.382-1.993-16.367-5.977-3.958-4.01-5.937-9.492-5.937-16.445 0-6.953 1.979-12.422 5.937-16.407 3.985-4.01 9.44-6.015 16.367-6.015 6.901 0 12.331 2.005 16.29 6.015 3.984 3.985 5.976 9.454 5.976 16.407 0 6.953-1.992 12.435-5.976 16.445-3.959 3.984-9.389 5.977-16.29 5.977zm0-4.102c3.178 0 5.547-1.523 7.11-4.57 1.588-3.073 2.383-7.657 2.383-13.75 0-6.12-.795-10.703-2.383-13.75-1.563-3.047-3.932-4.571-7.11-4.571-3.177 0-5.559 1.524-7.148 4.571-1.589 3.047-2.383 7.63-2.383 13.75 0 6.093.794 10.677 2.383 13.75 1.589 3.047 3.971 4.57 7.148 4.57zm47.041-39.766v42.032c0 5.755-1.406 10.065-4.219 12.929-2.786 2.891-6.992 4.336-12.617 4.336-2.682 0-5.859-.534-9.531-1.601v-10.469h5.312l.039.742c.183 3.281.56 5.391 1.133 6.328.573.938 1.745 1.406 3.516 1.406 2.005 0 3.307-.677 3.906-2.031.599-1.354.899-4.258.899-8.711v-33.632c0-3.49-.261-5.586-.782-6.29-.521-.729-2.109-1.184-4.765-1.367l-.703-.039v-3.633h17.812zm-11.562-7.226V425.32h11.562v11.563h-11.562zm59.579 48.437c-5.104 1.771-10.078 2.657-14.922 2.657-7.317 0-13.112-2.058-17.382-6.172-4.245-4.115-6.368-9.701-6.368-16.758 0-6.511 1.914-11.784 5.743-15.82 3.854-4.063 8.867-6.094 15.039-6.094 11.927 0 17.89 7.318 17.89 21.953v.859h-26.797c0 5.417 1.263 9.479 3.789 12.188 2.526 2.708 6.316 4.062 11.368 4.062 3.437 0 7.317-.937 11.64-2.812v5.937zm-26.523-23.008h15.117v-1.367c0-5.182-.521-8.841-1.562-10.976-1.042-2.136-2.839-3.203-5.391-3.203-2.708 0-4.753 1.302-6.133 3.906-1.354 2.578-2.031 6.458-2.031 11.64zm70.126 23.672c-4.453 1.328-8.724 1.993-12.812 1.993-7.474 0-13.359-2.032-17.656-6.094-4.271-4.089-6.407-9.701-6.407-16.836 0-6.823 2.032-12.175 6.094-16.055 4.063-3.906 9.662-5.859 16.797-5.859 4.505 0 9.115.651 13.828 1.953v11.055h-5.547l-.039-.703c-.208-3.256-.599-5.235-1.172-5.938-1.458-1.823-3.711-2.734-6.757-2.734-3.646 0-6.381 1.484-8.204 4.453-1.823 2.969-2.734 7.422-2.734 13.359 0 6.068 1.211 10.625 3.633 13.672 2.448 3.047 6.094 4.57 10.937 4.57 2.995 0 6.341-.729 10.039-2.187v5.351zm33.447.664c-2.422.886-4.791 1.329-7.109 1.329-4.818 0-8.438-1.185-10.86-3.555-2.395-2.396-3.593-5.977-3.593-10.742v-25.703h-5.313v-3.868h5.313v-7.226l11.562-2.031v9.257h9.492v3.868h-9.492v25.976c0 3.828.378 6.354 1.133 7.578.755 1.224 2.318 1.836 4.688 1.836 1.302 0 2.695-.299 4.179-.898v4.179z" fill="var(--color-campfire-smoke)"/></svg>