<svg width="640" height="640" viewBox="0 0 640 640" fill="none" xmlns="http://www.w3.org/2000/svg">
<g id="Mask Group">
<mask id="mask0" mask-type="alpha" maskUnits="userSpaceOnUse" x="0" y="0" width="640" height="640">
<circle id="Ellipse 2" cx="320" cy="320" r="316" fill="white" stroke="white" stroke-width="7"/>
</mask>
<g mask="url(#mask0)">
<g id="Group 1">
<circle id="Ellipse 3" cx="320" cy="320" r="316" fill="#D6D1CC" stroke="black" stroke-width="7"/>
<path id="Ellipse 1" d="M652.5 506.5C652.5 649.917 504.68 767.5 320.5 767.5C136.32 767.5 -11.5 649.917 -11.5 506.5C-11.5 363.084 136.32 245.5 320.5 245.5C504.68 245.5 652.5 363.084 652.5 506.5Z" fill="#03709B" stroke="black" stroke-width="7"/>
<path id="Vector 1" d="M121.024 500.931C133.061 498.816 145.128 495.282 156.548 490.41C161.308 488.38 166.249 486.841 171.379 485.263L171.875 485.111C176.797 483.597 181.897 482.03 186.865 479.975C191.625 478.005 196.959 477.02 202.461 476.004C204.037 475.713 205.627 475.419 207.221 475.099C210.621 474.417 214.085 473.385 217.406 472.344C218.186 472.099 218.956 471.854 219.717 471.612C222.25 470.808 224.68 470.036 227.055 469.393C229.731 468.668 232.711 468.769 236.398 468.894L236.577 468.9C240.109 469.019 244.329 469.148 248.334 467.846C249.225 467.557 250.245 467.463 251.717 467.385C251.838 467.379 251.963 467.372 252.093 467.366C253.381 467.301 255.05 467.218 256.683 466.816C258.382 466.398 259.864 465.614 260.941 465.044L261.061 464.981C262.278 464.337 263.047 463.951 263.821 463.762C266.3 463.158 268.915 463.2 272.064 463.305C272.206 463.31 272.349 463.315 272.493 463.319C275.399 463.418 278.778 463.533 282.169 462.844C284.849 462.3 287.493 461.74 290.12 461.183C293.92 460.378 297.685 459.58 301.476 458.848C304.474 458.269 307.448 457.915 310.586 457.541C312.624 457.298 314.732 457.047 316.96 456.721C322.353 455.931 327.999 454.735 333.148 452.073C335.746 450.729 338.522 450.189 341.754 449.78C342.372 449.702 343.018 449.628 343.685 449.551C346.351 449.246 349.362 448.902 352.296 448.09C354.942 447.358 357.392 446.117 359.474 445.063C359.8 444.898 360.117 444.737 360.425 444.584C362.841 443.379 364.859 442.502 367.005 442.23C369.784 441.879 372.482 441.273 375.036 440.657C375.647 440.509 376.247 440.362 376.837 440.217C378.769 439.743 380.609 439.291 382.475 438.922C385.672 438.289 388.571 437.103 391.175 435.958C391.708 435.724 392.225 435.493 392.731 435.268C394.785 434.351 396.642 433.522 398.591 432.889C404.979 430.813 411.378 428.071 417.57 425.418C419.014 424.799 420.446 424.186 421.864 423.587C424.525 422.462 427.27 421.589 430.17 420.692C430.39 420.623 430.611 420.555 430.833 420.487C433.49 419.666 436.284 418.802 439.028 417.722C441.036 416.931 443.224 416.549 445.851 416.09L445.865 416.087C448.368 415.65 451.298 415.138 454.091 413.964C457.087 412.704 461.657 412.037 465.17 412.037C466.03 412.037 467.09 412.117 468.411 412.224L468.628 412.242C469.843 412.34 471.226 412.453 472.607 412.496C475.35 412.581 478.992 412.454 481.814 410.671C485.094 408.597 487.394 406.738 490.066 403.697C491.426 402.151 493.119 401.05 495.24 399.788C495.438 399.67 495.641 399.55 495.849 399.427C497.738 398.312 500.006 396.972 501.946 395.114C504.961 392.225 508.454 391.53 512.918 391.227C513.606 391.181 514.335 391.145 515.096 391.108C518.966 390.921 523.659 390.693 527.942 388.744C530.838 387.426 531.695 384.618 531.799 382.468C531.903 380.304 531.348 377.992 530.578 375.995C529.796 373.968 528.673 371.953 527.358 370.376C526.7 369.588 525.921 368.82 525.026 368.225C524.149 367.642 522.948 367.085 521.523 367.085C520.733 367.085 520.408 366.852 520.067 366.406C519.56 365.743 519.124 364.651 518.654 362.967C518.552 362.602 518.444 362.185 518.327 361.739C517.996 360.465 517.602 358.951 517.126 357.739C516.487 356.108 515.219 353.658 512.406 352.811C507.504 351.335 502.398 351.158 497.807 351L497.486 350.989C492.644 350.821 488.344 350.64 484.338 349.397C480.896 348.329 476.475 347.661 472.706 347.092C471.714 346.942 470.767 346.799 469.895 346.657C468.194 346.381 466.507 345.789 464.471 345.075C464.074 344.936 463.664 344.792 463.238 344.645C460.812 343.808 457.896 342.884 454.802 342.884C453.217 342.884 451.565 342.578 449.557 342.174C449.446 342.152 449.333 342.129 449.22 342.106C447.397 341.738 445.25 341.305 443.067 341.236C441.017 341.171 438.729 341.249 436.541 341.325C435.577 341.358 434.633 341.39 433.736 341.41C430.632 341.476 427.868 341.4 425.555 340.889C422.618 340.239 419.92 341.093 418.091 341.721C417.769 341.831 417.473 341.935 417.198 342.03C415.607 342.584 414.744 342.884 413.921 342.884C411.783 342.884 409.716 343.193 407.937 343.459L407.845 343.472C405.958 343.754 404.379 343.984 402.827 343.984C400.82 343.984 398.901 344.293 397.272 344.556L397.131 344.579C395.387 344.859 393.934 345.084 392.459 345.084C391.752 345.084 390.777 344.963 389.474 344.743C389.027 344.668 388.503 344.574 387.949 344.474C387.086 344.319 386.149 344.151 385.315 344.02C383.86 343.791 382.26 343.595 380.721 343.607C379.216 343.618 377.457 343.826 375.864 344.65C372.785 346.242 368.575 346.852 363.735 346.975C361.36 347.036 358.94 346.979 356.545 346.903C356.116 346.89 355.685 346.875 355.255 346.861C353.325 346.798 351.406 346.734 349.644 346.734C347.38 346.734 345.011 346.67 342.579 346.604C335.054 346.401 326.912 346.181 319.319 347.788C314.667 348.772 310.038 349.342 305.251 349.931C304.773 349.989 304.294 350.048 303.814 350.108C298.569 350.757 293.146 351.479 287.679 352.861C285.524 353.405 283.283 353.682 280.778 353.99C280.326 354.046 279.865 354.103 279.395 354.162C276.439 354.537 273.168 355.02 270.01 356.175C269.531 356.35 268.697 356.56 267.414 356.862C267.307 356.888 267.198 356.913 267.087 356.94C265.965 357.204 264.642 357.515 263.349 357.884C261.94 358.285 260.402 358.799 259.052 359.486C257.791 360.128 256.167 361.18 255.263 362.927C254.381 364.634 252.804 365.509 250.247 365.884C248.315 366.168 246.428 366.107 244.44 366.043C243.557 366.014 242.655 365.985 241.719 365.985C238.322 365.985 235.284 367.954 233.153 369.527C232.242 370.2 231.337 370.928 230.524 371.582C230.325 371.742 230.132 371.897 229.946 372.046C228.943 372.848 228.13 373.473 227.426 373.913C224.14 375.969 220.779 377.204 217.029 378.583C215.588 379.112 214.09 379.663 212.516 380.29C208.213 382.003 203.012 385.071 198.288 388.724C193.591 392.357 189.065 396.8 186.375 401.389C183.793 405.796 180.392 409.366 176.671 413.272L176.628 413.317C172.972 417.155 169.003 421.328 166.014 426.616C165.127 428.186 164.107 429.758 163.015 431.441C162.736 431.871 162.452 432.308 162.164 432.755C160.797 434.877 159.369 437.173 158.284 439.519C157.665 440.856 156.575 441.972 154.932 443.405C154.738 443.575 154.53 443.753 154.313 443.939C152.896 445.154 151.075 446.717 149.761 448.639C149.194 449.467 148.671 450.261 148.152 451.049C147.413 452.17 146.682 453.279 145.848 454.456C144.491 456.369 143.176 457.986 141.865 459.127C140.769 460.08 139.492 461.126 138.149 462.226C135.449 464.437 132.48 466.868 130.172 469.212C127.753 471.669 123.837 474.078 120.536 475.811C120.474 475.844 120.407 475.879 120.335 475.917C119.245 476.487 117.052 477.636 115.002 478.987C113.912 479.704 112.759 480.545 111.795 481.457C110.932 482.273 109.762 483.563 109.341 485.238C109.11 486.159 108.95 487.04 108.917 487.86C108.885 488.664 108.963 489.659 109.435 490.628C110.556 492.93 112.857 493.209 113.499 493.287L113.518 493.29C113.81 493.325 113.942 493.337 114.033 493.345C114.028 493.356 114.023 493.368 114.017 493.379L113.976 493.465C113.888 493.648 113.774 493.888 113.666 494.141C113.467 494.607 113.157 495.407 113.108 496.361C113.054 497.402 113.078 498.655 113.524 499.767C113.771 500.382 114.225 501.151 115.055 501.729C115.927 502.337 116.878 502.501 117.673 502.448C118.989 502.36 120.01 501.669 120.41 501.391C120.621 501.245 120.829 501.086 121.024 500.931ZM114.333 492.657C114.335 492.646 114.337 492.641 114.337 492.64C114.337 492.64 114.336 492.646 114.333 492.657Z" fill="#0F998B" stroke="black" stroke-width="7" stroke-linecap="round" stroke-linejoin="round"/>
</g>
</g>
</g>
</svg>
